<svg width="32" height="32" fill="none" xmlns="http://www.w3.org/2000/svg">
  <g clip-path="url(#a)">
    <path d="M32 16a16 16 0 1 1-32 0 16 16 0 0 1 32 0Z" fill="#F4F4F4"/>
    <path d="M16 1.088a14.918 14.918 0 0 1 5.805 28.653 14.917 14.917 0 0 1-11.61-27.482A14.826 14.826 0 0 1 16 1.088Zm0-.371a15.283 15.283 0 1 0 0 30.566A15.283 15.283 0 0 0 16 .717Z" fill="#006EC3"/>
    <path d="M16 1.6a14.4 14.4 0 0 1 10.176 24.576 14.398 14.398 0 0 1-22.15-2.117 14.4 14.4 0 0 1 6.37-21.32A14.291 14.291 0 0 1 16 1.599Zm0-.147a14.54 14.54 0 1 0 13.434 8.982A14.54 14.54 0 0 0 16 1.46v-.006Z" fill="#006EC3"/>
    <path d="M26.992 16a10.992 10.992 0 1 1-21.984 0 10.992 10.992 0 0 1 21.984 0Z" fill="#DADADA"/>
    <path d="M26.759 16A10.759 10.759 0 1 1 5.24 16a10.759 10.759 0 0 1 21.518 0Z" fill="#F4F4F4"/>
    <g style="mix-blend-mode:multiply" fill="#EBEAEA">
      <path d="M26.413 14.665c.192.144.22.381.732.16.512-.22.529-.675.384-1.084-.143-.41-.384-.397-.134-.765s.266-.5-.16-.749v-.051a.258.258 0 0 0 0-.051v-.03a.18.18 0 0 0 0-.04V11.996a.881.881 0 0 0-.563-.605c-.279-.045-.47-.263-.413-.455.058-.192.119-.572-.745-.499a1.5 1.5 0 0 0-1.082.47 2.089 2.089 0 0 0-.125-.169c-.24-.272-.275-.477.17-.662.445-.186.595-.32.595-.797a.96.96 0 0 0-.595-1.021c-.477-.237-.404-.58-.404-.883 0-.304.02-.32-.406-.64l-.07-.045h-.02l-.057-.029-.067-.025h-.02L23.36 6.6H23.037h.003l-.122.036-.041.019a1.15 1.15 0 0 0-.275.166c-.288.221-.477-.137-.884-.393-.406-.256-.64-.186-.96.614a6.302 6.302 0 0 0-.06 2.186 8.466 8.466 0 0 1-.049-.356c-.044-.387-.073-.537-.281-.732-.208-.196-.029-.32-.029-.596 0-.275-.32-.595-.835-.624-.515-.028-.432-.37-.269-.61l.029-.046a.095.095 0 0 0 0-.032v-.08a.073.073 0 0 0 0-.025v-.035a.512.512 0 0 0-.262-.56.96.96 0 0 0-.25-.087c-.573-.153-1.152 1.335-1.152 1.335a1.001 1.001 0 0 0-.615-.381.64.64 0 0 0-.697.278c.032-.278-.157-.413-.362-.598a.96.96 0 0 0-1.085-.093l-.054.026h-.022l-.032.016a.065.065 0 0 0-.013.05l-.045.02H14.371a.32.32 0 0 1-.096-.045l-.035-.022a1.639 1.639 0 0 1-.3-.32c-.26-.32-.76-.237-1.098.182a1.027 1.027 0 0 1-1.002.467.675.675 0 0 0-.48.228.431.431 0 0 0-.342-.138c-.353.02-.24-.202-.093-.515a.289.289 0 0 0 0-.042.154.154 0 0 0 0-.038.107.107 0 0 0 0-.032.16.16 0 0 0 0-.035l-.045-.058v-.032l-.035-.026-.045-.022-.048-.016a.438.438 0 0 0-.112-.026.682.682 0 0 0-.32.045.586.586 0 0 0-.23.18c-.32.406-.074.499-.48.591-.407.093-1.35.093-1.037 1.463l.038.182a1.04 1.04 0 0 0-1.069-.224c-.185.125-.243-.038-.64-.262l-.044-.023h-.24l-.036.02h-.028l-.026.019-.029.022c-.022.023-.045.042-.064.064l-.029.032c-.115.131-.217.291-.32.407-.233.272-.704.019-1.136.403a.64.64 0 0 0-.217.78c-1.632.32-1.38 1.684-.986 1.857.394.172.41.048.57.483.16.435.873 0 .873.38a3.483 3.483 0 0 0-.64-.019c-.77.058-.77.35-.678.88a.355.355 0 0 1 0 .055v.054a.16.16 0 0 1 0 .039.16.16 0 0 1 0 .041l-.016.029-.02.022-.028.03-.026.018h-.025l-.08.036H3.472a1.31 1.31 0 0 1-.224 0c-.22 0-.384.108-.458.473-.073.365.128.605.512.531.384-.073.384-.054.32.439-.044.397.026.685.263.803h.032l.057.02h.09c-.134.351-.278.703-.448.738-.17.036-.438-.022-.81.682-.37.704.298 1.11.224 1.795-.252.842-.438 1.303.81 2.426.269.285.512.515.73.71l-.032.035a1.942 1.942 0 0 0-.586 1.143c0 .665.666.054.64.445-.028.268.027.538.157.774l.016.026.016.019.016.019.019.016h.483c.685-.166.519.074.743.445.224.371.604.832 1.28.665a.691.691 0 0 0 .32-.864c-.16-.198-.205-.268-.087-.355a.464.464 0 0 0 .115-.281c.672.96 1.85 1.443 2.816 1.056-.269.62.138 1.017.544.85.5-.204.538-.111.64.32a.835.835 0 0 0 .775.714H12.614c.5-.073.131-.72.557-.758.426-.038.48.464.794.352.313-.112.518-.26.777-.093.18.115.368-.064.506-.262a.676.676 0 0 0 .73.589c.69.025.54-.839 1.036-.445.04.031.08.06.122.086a.53.53 0 0 0 .509.077l.041-.022.032-.023a.092.092 0 0 0 .026-.022l.022-.026v-.038a.05.05 0 0 0 0-.023v-.019a.116.116 0 0 0 0-.029.187.187 0 0 0 0-.044c.048-.228 0-.458.4-.448l.039.099c.32.72 1.056.371 1.315.349.26-.023.592.224.96.41a.68.68 0 0 0 .233.07c.073.01.146.01.218 0h.051a1.03 1.03 0 0 0 .138-.055l.032-.019h.022l.03-.02.028-.018h.02l.044-.039.029-.032v-.016c.01-.009.019-.02.025-.032 0 0 .023-.032.032-.051.167-.294.5-.26.925-.26a1.426 1.426 0 0 0 1.28-.534c.387-.502.387-.64.32-1.036-.067-.397.093-.372.518-.832a.903.903 0 0 0 0-1.2.602.602 0 0 0 .535-.592c-.042-.183.182-.154.278-.544.036-.148.047-.3.032-.452.145-.026.287-.068.423-.124.704-.272.505-.487.547-1.034.042-.547.291-.685.7-.9l.071-.04.032-.023.026-.02a.115.115 0 0 0 .035-.031h.016l.032-.039a.376.376 0 0 0 .029-.048.24.24 0 0 0 .019-.086.166.166 0 0 0 0-.055 1.222 1.222 0 0 0-.147-.665c-.195-.467-.666-.32-.528-.82.195-.623-.253-.742-.995-.742a1.077 1.077 0 0 1-.32-.038c.031-.404.18-.79.428-1.11l-.038-.071c.098-.052.19-.115.272-.189.144-.15.368-.352.54-.205Z"/>
      <path d="M26.166 15.68c.052 0 .106-.128.048-.128-.057 0-.102.128-.048.128ZM25.398 16.041c0 .048.07 0 .084-.035.012-.035.015-.048 0-.06-.017-.014-.049.018-.061.034-.023.02-.039.052-.023.061Z"/>
    </g>
    <path d="M11.651 21.93s-4.48-.704-5.513-3.552c-1.034-2.848.441-6.96 1.145-7.92s2.035-1.296 3.997-1.776c1.962-.48 4.22-.89 6.256-.295 2.035.595 4.7 1.44 5.475 3.2.775 1.76 1.11 6.57 1.63 7.613.518 1.043.578 1.542.482 1.92-.096.377-.32.361-.278.54.042.18-.042.462-.432.67-.39.208-5.952 1.081-8.211.71a36.414 36.414 0 0 1-4.55-1.11Z" fill="#58991F"/>
    <path d="M24.64 19.2c-.518-1.034-.851-5.808-1.629-7.587-.777-1.78-3.44-2.628-5.475-3.2-2.035-.573-4.294-.19-6.256.294-1.962.483-3.28.787-3.997 1.75-.717.964-2.182 5.07-1.145 7.92 1.036 2.852 5.513 3.552 5.513 3.552 1.492.468 3.011.839 4.55 1.11 2.26.372 7.825-.495 8.212-.706.387-.212.473-.487.432-.67-.042-.182.182-.15.278-.54.096-.39.035-.896-.483-1.923ZM8.154 16.899c-.087.185-.16.377-.218.573-.025.17-.091.333-.192.473-.058.068-.218.176-.304.103-.086-.074 0-.208 0-.269.051-.154.122-.3.18-.451a.566.566 0 0 0-.026-.403c-.045-.119-.17-.228-.164-.359.077 0 .154.045.234.035.128-.016.38-.252.5-.108.118.144.038.288-.01.406Zm.864-5.722-.032.045a.317.317 0 0 1-.032.055l-.016.019a1.171 1.171 0 0 0-.11.179c-.054.143-.079.295-.073.448a.748.748 0 0 1-.099.378s-.022.028-.035.019a1.126 1.126 0 0 1-.509-.832c-.031-.287.02-.577.15-.835.032-.048.138-.16.205-.128.067.032.122.124.218.118.096-.006.166-.045.23-.02.202.084.183.32.109.52a.039.039 0 0 1-.006.034Zm2.668 5.62c-.185 0-.348-.096-.53-.112a.868.868 0 0 0-.567.179 1.92 1.92 0 0 0-.669 1.155c-.07.509.043 1.026.32 1.46.147.236.4.546.32.844 0 0-.026.045-.042.038-.188-.083-.262-.259-.419-.37-.157-.113-.368-.193-.528-.32-.32-.26-.278-.64-.217-1.006.075-.304.17-.603.284-.896.1-.3.215-.684 0-.96 0 0 .032-.073.048-.054l.016.029a.36.36 0 0 1 0-.058s.026-.057.045-.048a.618.618 0 0 0 .813-.08c.143-.143.243-.324.288-.521.058-.173.154-.32.355-.247.26.083.663.288.755.567a.32.32 0 0 1-.272.4Zm2.455.64a.816.816 0 0 1-.797-.676c-.067-.227-.157-1.03-.493-1.008-.173 0-.105-.112-.045-.224a.32.32 0 0 1 .15-.15c.122-.06.452-.102.417-.32-.026-.154-.183-.154-.103-.32s.292-.24.455-.32c.025 0 0 .054-.023.064l-.054.02a.221.221 0 0 1 .262.169c.074.233-.124.47-.23.665-.38.695.32 1.383.5 2.023.006.025-.017.067-.04.067v.01Zm.672 2.899c-.413.083-.381-.627-.413-.861-.029-.288-.189-.547-.208-.835a.756.756 0 0 1 .208-.573s.02-.02.029 0l.029.029h.019c.177.16.283.383.297.62.008.125.008.25 0 .375-.032.14-.05.284-.054.429.01.127.044.25.1.365.044.076.079.157.102.243 0 .064-.016.176-.11.198v.01Zm5.299 1.632c-.17-.048-.256-.32-.32-.461a.82.82 0 0 0-.294-.387c-.048-.029-.103-.055-.116-.115-.025-.116.135-.292.205-.365.13-.11.25-.233.359-.365.065-.112.123-.228.172-.349a.067.067 0 0 1 .026-.038c0-.029.06-.042.035 0a4.967 4.967 0 0 0 .058 1.155c.026.127.04.255.045.384-.01.054.016.582-.17.531v.01Zm.64-6.451c-.173.06-.32-.276-.378-.384-.137-.26-.32-.525-.662-.452-.237.055-.438.141-.669 0v-.022c.1-.26.343-.253.544-.397.141-.099.035-.32-.073-.371a.673.673 0 0 1-.173-.106c-.045-.044-.08-.115-.032-.17.048-.054.115-.118.166-.182a.496.496 0 0 0 .067-.467 2.075 2.075 0 0 1-.134-.585c0-.32.32-.56.538-.778a.051.051 0 0 1 0-.032s.06-.067.086-.051c.026.016 0 .048 0 .067a.148.148 0 0 1 0 .035.045.045 0 0 1 0 .035.308.308 0 0 1-.016.032l-.022.048v.02a.077.077 0 0 1-.036.041c-.132.302-.189.632-.166.96-.008.346.03.692.115 1.027.052.197.15.377.285.528.115.112.25.196.368.301.17.151.288.352.34.573a.227.227 0 0 1-.145.32l-.003.01Zm4.134 5.619c-.038.109-.121.102-.217.099-.247 0 0 .294 0 .387a.17.17 0 0 1-.067.167c-.282.188-.605-.023-.807-.23a.96.96 0 0 1-.323-.76s.02-.047.038-.047c.11 0 .266.07.372.022.105-.048.137-.134.214-.224a.227.227 0 0 1 .266-.067c.201.054.214.34.352.464a.537.537 0 0 1 .121.058h.026v.019a.103.103 0 0 1 .025.112Z" fill="#58991F" style="mix-blend-mode:multiply" opacity=".5"/>
    <path d="M15.549 21.623s2.54-.592 3.357-.445c.688.173.688.445.739.691.051.246.467.272.493.765.025.493-.74 2.912-1.824 2.96-.496-.048-.445.198-.496.445-.052.246-.368.521-.858.121s-.346.47-1.037.445c-.691-.026-.72-.493-.819-1.005-.1-.512-.368-2.419-1.06-2.985-.69-.567-.345-.698 1.505-.992Z" fill="#97C740"/>
    <path d="M20.138 22.634c-.026-.493-.445-.519-.493-.765-.048-.246-.051-.518-.74-.691-.815-.147-3.356.445-3.356.445-.482.064-.96.158-1.43.281.1.103.207.2.32.288.333.287.744.47 1.18.528.458.042.928-.022 1.383.055.209.026.41.1.585.217.109.08.295.192.32.343a.319.319 0 0 1-.08.24 1.089 1.089 0 0 0-.227.537c-.022.253.035.512 0 .765a5.916 5.916 0 0 1-.154.698 1.67 1.67 0 0 1-.368.665c.423.263.695.02.74-.208.044-.227 0-.493.496-.445 1.084-.041 1.846-2.46 1.824-2.953Z" fill="#97C740" style="mix-blend-mode:multiply" opacity=".5"/>
    <path d="M14.518 22.246a4.43 4.43 0 0 0 1.332-.262c.305-.087.618-.147.934-.18.33-.049.652-.138.96-.265.42-.133.847-.24 1.28-.32l-.118-.032c-.816-.147-3.357.445-3.357.445-.482.064-.96.158-1.43.281.1.103.207.2.32.288l.08.045Z" fill="#97C740" style="mix-blend-mode:multiply" opacity=".5"/>
    <path d="M15.331 25.76c-.102.237-.387.685-.64.518-.253-.166-.46-.019-.777.093s-.368-.39-.794-.352c-.426.039-.058.685-.557.759a.825.825 0 0 1-.96-.701c-.093-.445-.128-.538-.64-.32-.512.217-1.001-.442-.243-1.312 1.037-1.168.538-2.535.39-3.258-.147-.723.98-.201.98-.201 1.686.758 2.035.924 2.313 1.404.279.48.426.036.704.352.279.317.128.612-.019.999s-.22 1.13.02 1.37c.24.24.374.316.223.649Z" fill="#68B42E"/>
    <path d="M15.13 25.095c-.24-.24-.167-.98-.02-1.37.148-.39.298-.685.02-.998-.279-.314-.426.128-.705-.352-.278-.48-.64-.64-2.313-1.405 0 0-.723-.32-.934-.093.13.122.259.243.38.378.178.179.323.388.43.617.1.259.183.524.249.794.064.256.163.503.294.732.129.168.22.361.269.567.016.214-.08.512.032.71a.64.64 0 0 0 .38.247c.238.076.526.16.452.467-.058.23-.34.23-.525.233a.883.883 0 0 0-.585.125c-.186.173-.106.554-.19.784a.863.863 0 0 1-.137.234.795.795 0 0 0 .32 0c.5-.074.128-.72.557-.759.429-.038.48.465.794.352.313-.111.518-.259.777-.092.26.166.544-.282.64-.519.167-.32.045-.413-.185-.652Z" fill="#3E9F32"/>
    <g style="mix-blend-mode:multiply" fill="#68B42E">
      <path d="M11.482 21.024s.035.038.096.118c.06.08.144.192.233.32.045.074.093.15.138.237.045.086.1.173.144.269.045.096.09.195.134.297.045.103.087.205.128.32.042.116.074.215.11.32l.092.32c.029.103.051.202.07.298.02.096.039.183.055.266.016.083.028.16.038.227.01.067 0 .128.022.176v.154s0-.055-.032-.15c-.032-.097-.019-.107-.035-.174-.016-.067-.032-.144-.05-.224-.02-.08-.036-.172-.065-.265-.029-.093-.051-.19-.08-.288l-.096-.32c-.038-.103-.074-.208-.112-.32-.038-.112-.08-.208-.125-.32a4.481 4.481 0 0 0-.128-.295l-.13-.272-.129-.24a5.132 5.132 0 0 0-.211-.345 1.466 1.466 0 0 0-.067-.11Z"/>
      <path d="M12.109 22.08h.067c.042 0 .102.035.173.067.078.035.154.074.227.119.038.029.083.05.122.083l.118.093.112.102c.036.032.07.067.1.106.03.034.06.07.086.109.025.03.048.064.067.099l.054.09c0 .028.026.05.032.07l.03.064-.043-.042a.592.592 0 0 0-.044-.064l-.064-.08a.638.638 0 0 0-.077-.093.814.814 0 0 0-.09-.096 1.45 1.45 0 0 0-.099-.099 1.045 1.045 0 0 0-.112-.096 2.76 2.76 0 0 0-.227-.18l-.112-.073-.103-.06-.166-.09-.051-.029Z"/>
    </g>
    <path d="M18.902 15.405s-.55-.599-.05-.848c.498-.25.502-.64.32-.903-.183-.262-.125-.176.124-.451.25-.275-.102-.64-.3-1.027-.2-.387-1.095-1.936-2.173-1.616-.727.32-.96.403-.96 1.104 0 .7-.15 1.577-.576 2.051-.426.474.099 1.053.7 1.629.602.576 3.39 1.44 2.915.06Z" fill="#97C740"/>
    <path d="M19.302 13.203c.25-.275-.102-.64-.3-1.027-.199-.387-1.101-1.936-2.18-1.616-.262.097-.511.23-.739.393.026.045.048.09.068.138.098.256.166.522.201.794.034.331.12.655.256.96.197.334.457.627.765.864a3.13 3.13 0 0 1 1.091 1.843c.026.192.026.387 0 .579.378-.051.595-.256.435-.726 0 0-.55-.599-.05-.848.498-.25.502-.64.32-.903-.183-.262-.116-.176.133-.451Z" fill="#97C740" style="mix-blend-mode:multiply" opacity=".5"/>
    <path d="M16.454 11.155c-.019.27-.076.58.125.794.188.164.39.313.602.445.185.174.317.395.384.64.09.22.214.518.457.608.43.157.663-.288.87-.573.111-.154.238-.296.378-.423-.08-.147-.185-.304-.268-.467-.202-.4-1.101-1.92-2.18-1.629-.188.087-.345.157-.476.224a.538.538 0 0 1 .108.381Z" fill="#97C740" style="mix-blend-mode:multiply" opacity=".5"/>
    <path d="M11.354 6.554a.474.474 0 0 0-.461-.32c-.352.019-.24-.205-.093-.519.147-.313-.538-.518-.851-.112-.314.407-.074.5-.483.592-.41.093-1.35.093-1.037 1.463.26 1.149.15 1.389-.147 1.942a.605.605 0 0 0 .61.89c.32-.074.372.019.5.368s.87.15 1.78-.96c.908-1.11.46-2.752.182-3.344Z" fill="#68B42E"/>
    <path d="M8.64 10.317c.141-.362.248-.736.32-1.117A1.92 1.92 0 0 0 8.842 8a1.453 1.453 0 0 0-.432-.46l.019.101c.259 1.15.15 1.39-.147 1.943a.589.589 0 0 0 .32.851c0-.038.012-.08.038-.118Z" fill="#3E9F32"/>
    <path d="M11.354 6.553a.474.474 0 0 0-.461-.32c-.352.02-.24-.204-.093-.518.115-.25-.288-.429-.62-.288a2.016 2.016 0 0 0-.24.787c-.023.344-.001.689.063 1.027.07.373.121.749.15 1.127.032.288-.024.58-.163.835-.181.26-.404.49-.659.678a4.5 4.5 0 0 1-.733.57.516.516 0 0 0 .295.038c.32-.073.371.02.499.368.128.35.87.15 1.78-.96.908-1.11.46-2.752.182-3.344Z" fill="#3E9F32"/>
    <path d="M10.029 7.495V7.827c0 .1.016.215.032.34l.029.188c0 .064.022.132.035.196.013.064.029.13.041.192.013.06.036.124.052.188s.035.116.05.17c.017.054.036.106.052.154l.045.128.041.099c.023.054.032.086.032.086l-.044-.08c0-.025-.032-.057-.052-.093-.019-.035-.038-.08-.06-.124a1.342 1.342 0 0 1-.064-.15 2.085 2.085 0 0 1-.064-.17c-.02-.061-.042-.125-.055-.19-.013-.063-.035-.13-.048-.194a3.616 3.616 0 0 1-.054-.394v-.346a1.972 1.972 0 0 1 .032-.332Z" fill="#68B42E" style="mix-blend-mode:multiply"/>
    <path d="M11.594 9.536s.48-.58-.298-1.655c-.777-1.075.02-1.772.42-1.753a1.021 1.021 0 0 0 .995-.458c.339-.419.838-.515 1.094-.179.406.528.544.464.918.272a.96.96 0 0 1 1.085.093c.298.259.54.457.189 1.085-.352.627.058.924-.46 1.388-.52.464-.295.352-.48.685-.187.333-.32.279-.74.48-.42.202-.518.445-.685.89-.166.445.608 3.376-.08 3.737-.688.362-.96.42-.691.765.269.346.022.394-.298.467a.405.405 0 0 0-.272.64c.173.272.199.346-.617-.272-.816-.617-2.999-2.505-.08-6.185Z" fill="#97C740"/>
    <path d="M15.808 5.856a.96.96 0 0 0-1.088-.096c-.262.134-.41.205-.614.051a2.53 2.53 0 0 1-.256.509c-.152.19-.285.395-.397.611a3.71 3.71 0 0 0-.163 1.011.86.86 0 0 1-.256.599.406.406 0 0 1-.51-.045 7.17 7.17 0 0 1-1.19-1.319 1.207 1.207 0 0 1-.259-.614c-.166.32-.182.762.218 1.315.777 1.075.297 1.655.297 1.655-2.918 3.68-.732 5.57.08 6.188.813.618.79.544.618.272a.407.407 0 0 1 .272-.64c.32-.073.57-.121.298-.467-.272-.345 0-.397.69-.765.692-.368-.086-3.292.08-3.737.167-.445.276-.685.686-.89.41-.205.553-.147.739-.48.185-.333-.039-.22.48-.685.518-.464.112-.758.46-1.388.35-.63.113-.826-.185-1.085Z" fill="#97C740" style="mix-blend-mode:multiply" opacity=".5"/>
    <path d="M13.843 6.573a.188.188 0 0 0-.064.025.46.46 0 0 0-.137.125c-.057.08-.103.165-.138.256a2.411 2.411 0 0 0-.102.381 5.49 5.49 0 0 0-.058.448c-.013.16-.02.32-.032.506-.013.185-.022.358-.048.54-.012.094-.03.187-.051.279a1.179 1.179 0 0 1-.115.269 1.6 1.6 0 0 1-.42.384 2.93 2.93 0 0 0-.416.336 1.82 1.82 0 0 0-.32.393c-.076.13-.135.268-.176.413-.019.064-.032.131-.044.192-.013.06-.02.122-.026.18-.006.057 0 .108-.016.156s0 .096 0 .138v.246-.557c0-.057 0-.118.02-.182.018-.064.022-.128.04-.199.08-.316.244-.606.474-.838.131-.127.272-.243.423-.346.153-.098.289-.223.4-.368a.963.963 0 0 0 .105-.25c.024-.088.042-.177.055-.268.025-.18.038-.362.051-.538.013-.176.026-.342.045-.502.013-.152.037-.303.07-.451.027-.127.065-.252.115-.371.039-.093.09-.18.154-.256.04-.05.09-.091.147-.122a.16.16 0 0 1 .064-.02Z" fill="#97C740" style="mix-blend-mode:multiply"/>
    <path d="M4.675 21.395s-.835.72-.835 1.386c0 .666.666.054.64.445-.026.39.093 1.165.778.998.684-.166.518.074.739.445.22.371.608.835 1.28.666a.694.694 0 0 0 .32-.864c-.157-.199-.205-.27-.087-.356.119-.086.167-.483.11-.928-.058-.444.38-2.201.866-2.995.487-.793.148-.87-.073-1.11-.22-.24-.167-1.037-.96-.816-.794.22-1.203.573-1.146 1.462.058.89-.78.925-1.632 1.667Z" fill="#68B42E"/>
    <path d="M4.714 21.978a1.453 1.453 0 0 0 1.017.608.757.757 0 0 0 .349-.048.408.408 0 0 0 .208-.55 3.197 3.197 0 0 1-.192-.516.742.742 0 0 1 .189-.64c.253-.275.691-.432.8-.822.109-.39-.1-.88 0-1.312a.909.909 0 0 1 .192-.375c-.688.224-1.037.586-.983 1.411.055.89-.777.925-1.628 1.668-.087.077-.17.159-.247.246.107.102.205.212.295.33Z" fill="#3E9F32"/>
    <path d="M8.413 19.082c-.173-.19-.18-.707-.541-.83.006.071.006.142 0 .212-.022.691-.54 1.28-.944 1.795-.289.319-.517.687-.672 1.088a5.703 5.703 0 0 0-.147 1.776c0 .163.048.416-.119.525a1.566 1.566 0 0 1-.428.157c-.2.058-.403.101-.608.128-.119.02-.24.029-.362.038a.528.528 0 0 0 .64.253c.685-.166.518.074.74.445.22.371.607.835 1.28.665a.694.694 0 0 0 .32-.863c-.158-.199-.206-.27-.087-.356.118-.086.166-.483.109-.928-.058-.445.406-2.201.892-2.995.487-.794.154-.87-.073-1.11Z" fill="#3E9F32"/>
    <path d="M6.266 22.986v-.499c0-.045 0-.09.016-.138.016-.048.022-.195.038-.32s.038-.22.07-.32c.016-.058.03-.118.045-.176.016-.058.035-.118.055-.18.032-.12.08-.24.121-.36.042-.122.103-.234.15-.35.049-.115.113-.22.167-.32.054-.099.118-.201.176-.294.058-.093.118-.18.17-.256.05-.077.102-.15.153-.208l.128-.157.125-.144-.102.144-.116.16a1.145 1.145 0 0 0-.07.103c-.022.038-.048.076-.074.115-.025.038-.108.163-.16.262l-.166.298c-.051.105-.109.214-.157.32a3.951 3.951 0 0 0-.144.349c-.048.115-.09.232-.125.352a1.88 1.88 0 0 0-.057.176l-.048.176c-.029.112-.051.224-.077.32a2.592 2.592 0 0 0-.054.3l-.036.256c-.01.077 0 .144 0 .199-.028.128-.028.192-.028.192Z" fill="#68B42E" style="mix-blend-mode:multiply"/>
    <path d="M2.94 13.174s.804.055.714-.477c-.09-.53-.092-.822.679-.876.771-.055 1.571.163 1.974.73.403.566.826-.513 1.722-.4.896.111.749 1.023 1.648 2.268.899 1.245.912 1.664.73 1.994-.183.33-.66.092-1.39-.11a1.51 1.51 0 0 0-1.299.09c-.441.167-.787.093-1.41-.364-.625-.458-1.463-.752-2.148-.586-.685.166-.915-.202-.842-.826.074-.492.074-.512-.32-.438-.393.074-.585-.163-.512-.528.074-.365.234-.477.455-.477Z" fill="#68B42E"/>
    <path d="M6.279 16a.618.618 0 0 0 .15-.416c0-.077 0-.266-.1-.301-.162-.054-.351 0-.486-.134-.134-.135-.144-.397-.32-.532a1.172 1.172 0 0 0-.81-.217 1.18 1.18 0 0 0-.92.64 3.833 3.833 0 0 1-.225.365c.185.073.39.08.58.019.687-.144 1.513.137 2.13.576ZM9.677 14.42c-.9-1.245-.752-2.16-1.648-2.27-.896-.108-1.309.97-1.722.4-.413-.569-1.206-.787-1.974-.729-.768.058-.771.34-.679.877.058.345-.259.441-.49.47h.023c.682.195 1.264.618 1.888.935a2.61 2.61 0 0 0 1.066.32c.56.028 1.149-.096 1.696.064.771.19 1.442.665 1.875 1.33.142.234.25.486.32.75a.349.349 0 0 0 .38-.16c.177-.324.148-.727-.735-1.988Z" fill="#3E9F32"/>
    <path d="m4.826 13.91.204.023c.181.023.36.056.538.099.118.029.235.065.349.109.13.044.254.103.371.176a.846.846 0 0 0 .406.064l.448-.02c.298-.019.596.005.887.07a2.429 2.429 0 0 1 .704.323c.084.062.164.128.24.2.067.06.121.121.166.169.045.048.077.09.1.115l.035.042-.039-.039c-.025-.025-.057-.064-.105-.108a2.277 2.277 0 0 0-.173-.16 2.252 2.252 0 0 0-.566-.352 2.488 2.488 0 0 0-.378-.128 3.102 3.102 0 0 0-.867-.058h-.452a.9.9 0 0 1-.438-.08 2.36 2.36 0 0 0-.358-.182 3.522 3.522 0 0 0-.34-.093c-.217-.061-.4-.103-.528-.128l-.204-.042Z" fill="#68B42E" style="mix-blend-mode:multiply"/>
    <path d="M19.78 16.429a2.77 2.77 0 0 1 1.833-.8c.49-.02.566-.291 1.446-.64.88-.35 1.834-.528 1.891.118.058.647-.252.96.49.96s1.19.119.995.742c-.137.51.32.352.528.82.208.467.272.78-.137.995-.41.214-.663.352-.704.9-.042.546.156.76-.544 1.033-.701.272-.724.077-1.018-.173-.294-.25-.349-.138-.74.077-.39.214-.88.115-.937-.234-.057-.349-.038-.547-.371-.47-.333.076-.624 0-.995-.468-.272-.294-.547-.236-.624-.64a.81.81 0 0 0-.64-.72c-.394-.134-1.216-.72-.474-1.5Z" fill="#97C740"/>
    <path d="M25.795 18.704c-.877 0-1.545-.496-2.24-.989a5.44 5.44 0 0 0-1.308-.681c-.437-.158-.865-.341-1.28-.548-.255-.127-.5-.27-.736-.428-.17.104-.328.228-.468.37-.742.782.08 1.367.467 1.486a.81.81 0 0 1 .64.72c.077.41.352.352.624.64.372.467.663.547.996.467.333-.08.32.118.37.47.052.352.548.448.939.234.39-.215.448-.32.739-.077.29.243.32.448 1.017.173.698-.275.506-.487.544-1.034.039-.547.295-.685.704-.899a.467.467 0 0 0 .317-.368 2.106 2.106 0 0 1-1.325.464Z" fill="#97C740" style="mix-blend-mode:multiply" opacity=".5"/>
    <g style="mix-blend-mode:multiply" fill="#97C740">
      <path d="M21.088 16.64s.25.058.617.183c.093.028.19.064.295.102.105.038.214.083.32.131.105.048.224.1.342.15l.346.173c.112.064.227.122.32.19.093.066.218.13.32.2.102.071.198.135.285.206.086.07.17.13.24.198.07.067.137.125.195.18.058.053.1.108.14.146l.12.132-.129-.119c-.045-.038-.09-.09-.15-.14l-.202-.167c-.073-.064-.16-.122-.246-.189-.087-.067-.19-.125-.288-.192-.1-.067-.208-.128-.32-.195-.112-.067-.224-.122-.32-.186s-.227-.118-.343-.173l-.32-.153a5.995 5.995 0 0 0-.32-.14l-.288-.12-.438-.16-.176-.057ZM23.43 17.62l.051-.023a1.286 1.286 0 0 1 .356-.102h.496l.115.025a.917.917 0 0 1 .237.09l.054.025h-.122l-.083-.035a.47.47 0 0 0-.099 0H24.208a.771.771 0 0 0-.122 0H23.635c-.05.006-.099.015-.147.026l-.058-.007Z"/>
    </g>
    <path d="M21.088 15.824a3.52 3.52 0 0 1 .557-2.039c.659-1.056 1.657-1.51 2.14-2.332.484-.823.75-1.172 1.6-1.245.852-.074.807.32.75.496-.058.176.13.413.412.457.282.045.675.525.557.836.426.25.41.38.16.748-.25.368 0 .352.131.762.131.41.135.864-.38 1.085-.516.22-.545 0-.733-.16-.19-.16-.397.045-.557.205a2.24 2.24 0 0 1-1.322.483c-.601 0-.483.454-.982.105-.352-.252-.528-.118-.823.116-.294.233-.761.777-1.084.777-.324 0-.413-.118-.426-.294Z" fill="#68B42E"/>
    <path d="M21.34 14.592c.11-.12.23-.227.363-.32.142-.084.295-.148.454-.192.392-.098.758-.28 1.072-.534a1.83 1.83 0 0 0 .704-1.168c.038-.247.02-.477.23-.64.212-.163.602-.218.496-.538-.073-.23-.246-.397-.23-.64-.257.262-.473.56-.64.886-.483.823-1.482 1.28-2.14 2.333a3.655 3.655 0 0 0-.407.89l.099-.077ZM27.277 12.746c.25-.368.265-.5-.16-.75a.439.439 0 0 0 0-.32c-.159.001-.317.014-.474.04a3.69 3.69 0 0 0-1.398.534c-.4.256-.762.563-1.146.835a8.543 8.543 0 0 0-1.075.873c-.358.35-.7.73-1.043 1.104-.231.268-.497.502-.79.698l-.087.054c0 .16.118.288.438.288s.794-.544 1.085-.777c.291-.234.47-.368.823-.115.499.348.38-.09.982-.106a2.24 2.24 0 0 0 1.322-.483c.16-.16.368-.352.556-.205.19.147.221.38.733.16s.528-.672.381-1.085c-.147-.413-.397-.371-.147-.745Z" fill="#3E9F32"/>
    <g style="mix-blend-mode:multiply" fill="#68B42E">
      <path d="M21.568 15.437s.045-.058.128-.154.202-.234.352-.387c.074-.08.157-.164.243-.25.087-.086.186-.18.285-.272.1-.093.205-.186.32-.275.115-.09.218-.189.32-.279a4 4 0 0 1 .342-.259l.17-.124.173-.119.163-.112.163-.1c.106-.063.208-.127.301-.178l.26-.141.207-.1.18-.082-.173.095-.202.113-.25.15c-.092.054-.188.122-.294.189l-.157.105-.163.112-.166.122-.17.125a6.492 6.492 0 0 0-.34.265c-.111.093-.223.18-.32.27-.095.089-.21.185-.32.271-.108.086-.198.176-.287.262-.09.087-.176.164-.253.24-.153.15-.281.276-.371.369l-.14.144Z"/>
      <path d="M23.085 13.975a2.25 2.25 0 0 1 .323-.148c.042-.016.08-.032.125-.044.045-.013.176-.052.272-.07l.14-.026a.68.68 0 0 1 .138-.02h.128a.738.738 0 0 1 .116 0h.176l-.173.023c-.07 0-.15.025-.24.038-.09.013-.176.035-.269.051l-.138.032-.134.032c-.083.023-.166.042-.234.064l-.166.045-.064.023ZM23.975 13.325a.77.77 0 0 1 .038-.157c.015-.052.034-.103.054-.154.023-.057.055-.115.084-.172.028-.058.035-.055.05-.08l.055-.08.058-.068.051-.057c.077-.064.128-.1.128-.1-.03.045-.062.088-.096.128l-.042.064-.044.07c-.02.023-.03.052-.048.078l-.048.08c0 .028-.03.057-.045.083a.478.478 0 0 0-.042.08l-.077.144-.076.14Z"/>
    </g>
    <path d="M22.08 12.377a12.198 12.198 0 0 0-1.053-2.038c-.496-.666-.665-2.38-.393-3.52.32-.8.544-.867.96-.611.416.256.595.611.883.39a.839.839 0 0 1 1.088-.067c.422.304.406.34.406.64s-.083.64.41.883a.96.96 0 0 1 .579.992c0 .474-.157.611-.595.8-.439.189-.41.394-.173.66.237.265.394.665.154.815-.24.15-.288 0-.356.375-.067.374-.78 2.109-1.91.681Z" fill="#97C740"/>
    <path d="M24.365 9.846c.438-.189.595-.32.595-.8a.96.96 0 0 0-.595-1.02c-.493-.237-.41-.596-.41-.884 0-.288 0-.32-.406-.64a.768.768 0 0 0-.813-.099c-.35.7-.567 1.46-.64 2.24-.026.238-.004.478.064.707.07.173.102.784.224.922.122.137.336-.192.416-.02.074.171.124.35.15.535.126.683.03 1.388-.271 2.013l-.039.07c.803.362 1.28-.86 1.35-1.168.068-.374.119-.22.356-.374.236-.154.086-.541-.154-.816-.24-.275-.272-.48.173-.666Z" fill="#97C740" style="mix-blend-mode:multiply" opacity=".5"/>
    <g style="mix-blend-mode:multiply" fill="#97C740">
      <path d="M22.272 7.907s-.035.15-.067.381c-.02.112-.03.246-.039.39v.679c0 .077 0 .147.02.217.019.07.019.141.028.205.01.064.023.128.036.183.012.054.019.108.032.156l.032.116.022.105s0-.038-.038-.099c-.039-.06-.026-.07-.042-.115-.019-.05-.035-.1-.048-.15 0-.058-.032-.119-.045-.186a1.287 1.287 0 0 1-.041-.205c0-.074-.026-.147-.03-.224-.002-.077 0-.154 0-.23V8.672c0-.074.02-.14.03-.208a2.777 2.777 0 0 1 .109-.458l.04-.099Z"/>
      <path d="M21.696 8.32s.029.057.067.144l.141.32a.692.692 0 0 0 .042.083l.035.083.038.074c.009.023.02.046.032.067.026.046.05.093.07.14 0 0-.044-.044-.105-.118a.378.378 0 0 1-.045-.06l-.048-.093c-.032-.051-.057-.109-.086-.167a1.46 1.46 0 0 1-.077-.153 1.353 1.353 0 0 1-.045-.157.773.773 0 0 1-.019-.163ZM22.426 9.232l-.045.096a.771.771 0 0 0-.045.09c0 .016 0 .035-.026.05a.407.407 0 0 0-.025.055l-.02.055a.223.223 0 0 0-.022.05.241.241 0 0 1-.016.052.35.35 0 0 0 0 .048c0 .058-.025.1-.025.1a.775.775 0 0 1 0-.106.415.415 0 0 1 .035-.228c0-.022.019-.038.029-.057a.45.45 0 0 1 .032-.051.473.473 0 0 1 .067-.084.356.356 0 0 1 .06-.07Z"/>
    </g>
    <path d="M16.614 11.565s.375-.774-.207-.96c-.583-.186-.832-.432-.64-1.28.134-.759 0-.922-.119-1.549-.118-.627.176-.742.371-1.056.196-.314.416-.624.864-.522a.98.98 0 0 1 .608.375s.583-1.491 1.207-1.373a.563.563 0 0 1 .416.896c-.163.237-.253.58.268.608.522.029.832.358.832.64 0 .282-.175.4.033.595.207.195.236.343.281.73.03.382.122.757.272 1.11.147.27.074.282-.32.477-.393.195-.32.282-.282.58.039.297-.207.476-.582.758a1.364 1.364 0 0 0-.608 1.104c-.06.563-.253.803-.761.832-.51.029-.596-.403-.698-.832a.915.915 0 0 0-.669-.685c-.278-.09-.352-.224-.265-.448Z" fill="#68B42E"/>
    <path d="M20.8 9.78a3.566 3.566 0 0 1-.285-1.14c-.045-.387-.073-.538-.281-.73-.208-.192-.032-.32-.032-.595 0-.275-.32-.595-.832-.64-.512-.045-.432-.371-.27-.608a.551.551 0 0 0-.169-.806 3.912 3.912 0 0 1-.669 1.245c-.204.3-.553.726-.32 1.09.11.163.209.332.298.506a.893.893 0 0 1 .134.455.447.447 0 0 1-.17.32c-.092.073-.182.09-.226.224-.045.132-.064.27-.058.41a.794.794 0 0 0 .64.767c.214.064.538.11.688.291.15.183-.109.32-.211.375a.876.876 0 0 1-.397.134c-.096 0-.186-.019-.282-.019-.182 0-.195.26-.214.397a6.557 6.557 0 0 0-.051.611c-.024.442.001.885.073 1.322 0 .048 0 .093.023.14h.051c.509-.028.7-.268.762-.832a1.364 1.364 0 0 1 .608-1.103c.374-.282.61-.461.582-.759-.029-.298-.106-.387.282-.58.387-.191.457-.207.326-.476Z" fill="#3E9F32"/>
    <g style="mix-blend-mode:multiply" fill="#68B42E">
      <path d="m17.072 9.625.1.116c.063.073.153.179.252.32l.166.214c.058.074.119.154.18.24l.092.128.087.14a.92.92 0 0 1 .131.49v.167c0 .109-.02.218-.02.32-.002.188.008.376.03.563.012.132.031.264.057.394 0 .048.02.083.029.108.01.026.026.03.026.03a.058.058 0 0 1-.02-.026.72.72 0 0 1-.038-.106 3.291 3.291 0 0 1-.09-.394 4.133 4.133 0 0 1-.048-.566v-.48a1.28 1.28 0 0 0-.016-.16.936.936 0 0 0-.105-.3 3.061 3.061 0 0 0-.083-.135l-.087-.131a7.756 7.756 0 0 1-.32-.464l-.131-.186-.1-.14-.092-.142Z"/>
      <path d="M17.962 9.126v.688c0 .061 0 .132.025.196.026.064.023.134.035.201.013.067 0 .135.026.205.026.07 0 .134 0 .198v.602a.845.845 0 0 1 0 .093s0-.138-.02-.342c0-.103-.015-.221-.025-.35 0-.063 0-.13-.016-.195-.016-.064 0-.13-.029-.198-.028-.067-.019-.138-.032-.205-.012-.067 0-.134-.019-.198s0-.128 0-.189v-.166c.006-.083.015-.165.029-.247a.563.563 0 0 1 .026-.093ZM19.072 9.31v.021l-.032.055-.057.08a.668.668 0 0 1-.077.105c-.03.036-.058.077-.093.119a2.045 2.045 0 0 1-.115.125l-.253.265c-.035.048-.077.093-.109.144a1.232 1.232 0 0 0-.125.227l-.028.077a.865.865 0 0 0-.042.141c0 .045-.02.09-.029.125-.01.035 0 .07 0 .096l-.016.086v-.195a.622.622 0 0 1 0-.128.907.907 0 0 1 .032-.15.6.6 0 0 1 .058-.163c.024-.057.053-.112.086-.164.035-.054.077-.102.115-.153l.131-.138.128-.125.122-.115.106-.112c.029-.035.064-.064.086-.093l.064-.073.048-.058Z"/>
    </g>
    <path d="M16.125 21.574s-1.28 1.341-4.288-.508c-1.482-1.066-1.958-2.685-1.34-3.732.492-.665.96-.601 1.11-.156.448-.416.892.108 1.696.32.678.153.96.739.617 1.216-.201.217.138.233.262.524.125.292-.32.852-.32.852s.448-.08.51.46c.598-.118 1.212.624 1.753 1.024Z" fill="#97C740"/>
    <path d="M14.38 20.54c-.06-.54-.508-.46-.508-.46s.432-.557.32-.851c-.112-.295-.464-.32-.262-.525.339-.477.06-1.062-.618-1.216-.803-.202-1.248-.726-1.696-.32a.43.43 0 0 0-.697-.243.586.586 0 0 1 .067.06c.294.32.224.858.208 1.252-.023.25 0 .503.064.745.075.21.176.408.3.592.224.36.515.671.858.919.176.128.362.237.55.349.19.112.423.281.64.412.19.115.396.2.612.25.17.03.336.083.492.157a.663.663 0 0 1 .32.355 1.878 1.878 0 0 0 1.117-.451c-.563-.39-1.177-1.133-1.766-1.024Z" fill="#97C740" style="mix-blend-mode:multiply" opacity=".5"/>
    <g style="mix-blend-mode:multiply" fill="#97C740">
      <path d="M14.566 21.667s-.07 0-.192-.054c-.121-.055-.294-.1-.496-.173a6.467 6.467 0 0 1-.668-.32 5.553 5.553 0 0 1-.708-.49 4.073 4.073 0 0 1-.32-.297l-.076-.077-.07-.096A2.093 2.093 0 0 1 11.9 20a2.89 2.89 0 0 1-.227-.32c-.036-.051-.061-.105-.093-.16a1.688 1.688 0 0 1-.077-.15c-.048-.1-.08-.196-.112-.279-.032-.083-.051-.16-.067-.22l-.045-.196.058.192.08.215c.035.08.073.172.124.268.026.048.052.1.08.148.03.048.061.105.096.153.071.111.148.218.23.32.046.055.087.106.135.157l.07.077.077.077c.102.102.209.198.32.288.11.093.224.181.343.262a5.455 5.455 0 0 0 .688.422c.109.058.217.112.32.157.198.093.365.163.483.208a.678.678 0 0 0 .182.048Z"/>
      <path d="M13.072 20.957a.618.618 0 0 1-.106-.134.841.841 0 0 1-.083-.154c0-.029-.025-.058-.035-.093a.838.838 0 0 1-.032-.096 1.499 1.499 0 0 1-.032-.198.436.436 0 0 1 0-.093.735.735 0 0 1 .02-.205.418.418 0 0 0 0 .003v.052a.471.471 0 0 0 0 .067 1.117 1.117 0 0 0 0 .17l.018.092c0 .032 0 .061.023.093.014.063.033.125.054.186 0 .025.02.057.032.083.008.025.017.05.029.073.034.054.071.105.112.154ZM11.62 20.16h.034l.087.032.118.048c.047.016.093.035.138.058l.067.032.067.029.118.05.112.065-.124.006-.128-.032a.269.269 0 0 1-.07-.025l-.071-.03-.128-.073a1.104 1.104 0 0 1-.109-.07.653.653 0 0 1-.073-.055l-.039-.035Z"/>
    </g>
    <path d="M17.37 14.618c-.32 0-.458 0-.394-.212.064-.21.083-.521-.47-.62a.96.96 0 0 0-1.043.572c-.199.343-.49.64-.688.538-.199-.102-.797 0-.896.765-.052.687.132 1.37.521 1.94.294.457.72.745.573 1.692-.23 1.126.553 1.136.553 1.136h.049c2.105-.986 2.316-3.926 2.332-4.595.016-.67-.21-1.216-.537-1.216Z" fill="#68B42E"/>
    <path d="M17.37 14.618c-.32 0-.458 0-.394-.212.064-.21.083-.521-.47-.62a1.187 1.187 0 0 0-.205 0 3.12 3.12 0 0 1 .66 1.843 2.678 2.678 0 0 1-.32 1.245c-.228.416-.538.787-.746 1.213-.285.595-.34 1.28-.688 1.859a1.525 1.525 0 0 1-.116.166.568.568 0 0 0 .448.199h.048c2.093-.849 2.304-3.866 2.333-4.535.029-.669-.224-1.158-.55-1.158Z" fill="#3E9F32"/>
    <g style="mix-blend-mode:multiply" fill="#68B42E">
      <path d="M16.442 15.824v.157c0 .1 0 .243-.02.413 0 .086-.019.176-.032.275-.012.1-.022.202-.041.32a6.817 6.817 0 0 1-.224.96c-.029.1-.067.214-.1.32-.031.106-.07.195-.105.288-.035.093-.07.18-.102.26-.032.08-.064.15-.096.21-.032.061-.055.119-.08.164l-.067.14.054-.147c.022-.045.045-.102.07-.166.026-.064.048-.141.08-.218.032-.077.061-.166.09-.259.029-.093.067-.192.096-.291.029-.1.064-.208.093-.32.029-.112.06-.218.083-.32.022-.103.058-.218.08-.32.022-.103.045-.218.064-.32.02-.103.035-.205.054-.301.02-.096.032-.189.042-.272.022-.17.038-.32.048-.41.01-.09.013-.163.013-.163Z"/>
      <path d="M15.7 16.16a.445.445 0 0 1 .04.051 3.27 3.27 0 0 1 .218.371c.042.084.077.173.112.266.036.093.03.096.045.141.016.045.023.093.032.138.01.044 0 .09.023.13.022.042 0 .084 0 .122v.244-.068a.352.352 0 0 0 0-.076v-.096c0-.036 0-.074-.023-.116-.022-.041-.019-.08-.029-.124-.01-.045-.086-.183-.118-.27a.95.95 0 0 0-.048-.134c-.016-.044-.035-.09-.051-.13-.016-.042-.07-.16-.096-.228-.026-.067-.055-.122-.074-.16a.596.596 0 0 0-.032-.06ZM16.675 17.453a3.038 3.038 0 0 1-.608.931l-.109.106-.041.035.032-.048c.019-.029.048-.07.086-.118l.058-.084.064-.09a.995.995 0 0 0 .067-.095l.073-.1.068-.102.067-.096.122-.173.086-.121.035-.045Z"/>
    </g>
    <path d="M5.894 22.522s-.684-.074-2.163-1.63c-1.257-1.126-1.075-1.6-1.017-2.2.073-.686-.592-1.092-.224-1.796s.598-.64.81-.682c.21-.041.383-.576.543-.992a1.002 1.002 0 0 1 1.155-.64 1.024 1.024 0 0 1 .74.775c.057.195.179.16.32.102.14-.057.268.07.342.394.074.323.384.393.678.678.295.285.57.64.346.999-.224.358-.064.576-.384.835s-.371.406-.26.96c.113.553.247.777-.22 1.123-.467.346-.8.522-.634 1.027.167.506.346.813.298.935a.25.25 0 0 1-.33.112Z" fill="#97C740"/>
    <path d="M7.085 16.515c-.295-.284-.605-.358-.679-.678-.073-.32-.195-.448-.342-.394-.147.055-.269.093-.32-.102a1.027 1.027 0 0 0-.71-.765 1.94 1.94 0 0 1 0 .237 6.346 6.346 0 0 1-.365 1.632 7.208 7.208 0 0 0-.509 1.533 3.469 3.469 0 0 0 .298 1.52c.099.262.166.534.25.803.083.25.181.497.294.736.182.39.296.807.339 1.235.166.119.354.203.553.25a.25.25 0 0 0 .32-.112c.048-.122-.137-.432-.297-.935-.16-.502.163-.675.627-1.036.464-.362.32-.58.22-1.124-.098-.544-.073-.69.26-.96.333-.268.186-.48.406-.85.221-.372-.048-.705-.345-.99Z" fill="#97C740" style="mix-blend-mode:multiply" opacity=".5"/>
    <g style="mix-blend-mode:multiply" fill="#97C740">
      <path d="M5.728 22.294s-.06-.073-.154-.211c-.048-.07-.099-.157-.16-.253a4.018 4.018 0 0 1-.188-.342c-.064-.128-.138-.266-.202-.416a10.202 10.202 0 0 1-.352-1.005c-.026-.086-.054-.18-.077-.269-.022-.09-.05-.185-.073-.275l-.068-.278c-.022-.093-.035-.186-.05-.279-.017-.093-.026-.185-.04-.278a4.006 4.006 0 0 1-.025-.269c-.006-.09 0-.18 0-.262v-.493c0-.08 0-.154.023-.224a1.94 1.94 0 0 1 .022-.202c0-.064.02-.128.029-.182.025-.115.041-.215.064-.295.041-.163.067-.256.067-.256l-.045.26c-.016.08-.029.179-.045.294 0 .054 0 .118-.019.182s0 .132-.019.202c-.02.07 0 .144 0 .22v.746c0 .09 0 .18.02.27.018.089.022.182.031.274.026.183.055.372.093.557.07.365.177.723.32 1.066.064.163.138.32.202.467a15.566 15.566 0 0 0 .374.758c.054.103.106.19.147.263.08.144.131.224.131.224l-.006.006Z"/>
      <path d="M4.838 20.285v-.023a.823.823 0 0 0-.032-.077.592.592 0 0 1-.035-.118l-.02-.074v-.275c0-.067 0-.137.023-.211v-.112c0-.035 0-.074.02-.112.019-.039 0-.154.022-.23a1.82 1.82 0 0 1 .035-.23c0-.075.032-.151.048-.222.013-.069.03-.137.051-.204.023-.064.045-.122.064-.18.042-.108.08-.198.106-.262l.042-.096s0 .038-.023.109c-.022.07-.038.16-.067.268 0 .058-.032.119-.054.183-.023.064-.032.131-.052.201l-.057.215c0 .038-.023.073-.032.112a.641.641 0 0 0-.026.112c-.016.077-.032.15-.041.227-.01.077 0 .077 0 .112v.506a.726.726 0 0 0 0 .083v.07c0 .048 0 .09.016.119.006.035.015.07.025.105l-.013.004ZM3.7 16.803s0 .028.022.076.032.116.05.199c.02.083.023.086.033.134l.029.15c.02.112.057.22.108.32l.077.151c.023.05.049.098.077.144.022.046.046.091.074.134.02.041.042.081.067.119l.057.1c.016.031.036.054.048.076l.039.067-.061-.054-.06-.064-.078-.093a1.195 1.195 0 0 1-.076-.115.933.933 0 0 1-.074-.138 2.161 2.161 0 0 1-.07-.15c-.023-.052-.036-.11-.055-.164a1.383 1.383 0 0 0-.051-.163 1.312 1.312 0 0 0-.058-.157c-.019-.05-.038-.099-.05-.147-.014-.048-.023-.093-.033-.134a1.171 1.171 0 0 1-.022-.285l.006-.006Z"/>
    </g>
    <path d="M4.506 9.107a.64.64 0 0 1 .217-.787c.432-.387.903-.131 1.136-.407.234-.275.49-.806.896-.582.407.224.461.387.64.262a1.05 1.05 0 0 1 1.082.237c.32.32.601 1.421-.15 2.493-.753 1.072-.346 2.026-.087 2.56.26.535.208 1.383-1.098 1.28-1.305-.102-1.308-1.331-1.308-1.629 0-.297-.221-.32-.42-.294-.198.025-.457-.026-.457-.42 0-.393-.714.049-.874-.383-.16-.432-.173-.32-.57-.48-.396-.16-.633-1.52.993-1.85Z" fill="#97C740"/>
    <path d="M8.32 10.333c.752-1.072.48-2.163.15-2.493a1.05 1.05 0 0 0-1.081-.237c-.186.125-.243-.038-.64-.262-.253-.14-.445 0-.608.211a1.6 1.6 0 0 1 .205.288c.278.572.414 1.204.393 1.84 0 .96-.397 2.039.042 2.938.26.53.614 1.014.835 1.548.842-.111.848-.8.624-1.28-.24-.527-.66-1.478.08-2.553Z" fill="#97C740" style="mix-blend-mode:multiply" opacity=".5"/>
    <g style="mix-blend-mode:multiply" fill="#97C740">
      <path d="M6.38 8.682v.214c0 .134 0 .32.023.557 0 .118.02.243.032.374.013.131.032.272.051.416.02.144.042.291.074.439l.038.227c.02.073.036.15.055.224.029.153.07.3.109.448.038.147.086.288.128.425.041.138.092.272.134.397l.067.183.07.166c.045.106.084.205.122.291.039.087.077.157.106.221l.093.192-.106-.186-.115-.217a4.847 4.847 0 0 1-.138-.285l-.083-.166c-.022-.058-.048-.119-.07-.18-.052-.124-.106-.256-.148-.393-.041-.138-.096-.282-.134-.429-.038-.147-.083-.298-.115-.451 0-.074-.032-.15-.051-.227l-.039-.228c-.029-.15-.045-.3-.067-.444-.022-.144-.029-.285-.042-.42-.012-.134-.016-.256-.019-.374-.003-.118 0-.224 0-.32V8.89c.02-.132.026-.208.026-.208Z"/>
      <path d="M7.062 11.075a.47.47 0 0 0 0 .051c0 .032-.016.077-.028.135a.67.67 0 0 0 0 .09l-.02.099V12.268s0-.015-.016-.047-.019-.08-.032-.138a.642.642 0 0 1-.016-.195.64.64 0 0 1 0-.112v-.227l.02-.109a.78.78 0 0 1 .028-.102 1.095 1.095 0 0 1 .083-.218.222.222 0 0 1-.019-.045ZM5.494 9.827l.048.042.119.115.166.16.192.185.189.186c.064.058.118.112.166.16l.125.109.045.045s-.08-.045-.195-.122l-.186-.147c-.064-.055-.131-.119-.198-.18a1.736 1.736 0 0 1-.183-.195l-.153-.176c-.083-.09-.135-.182-.135-.182Z"/>
    </g>
    <g style="mix-blend-mode:multiply" fill="#E1CCBB">
      <path d="M16.115 12.26c-.195-1.258-1.164-2.19-2.17-2.08-1.004.108-1.654 1.222-1.465 2.48.189 1.257 1.165 2.188 2.166 2.08 1.002-.11 1.674-1.22 1.47-2.48ZM8.278 20.345c-1.09.439-1.497 1.812-.902 3.066.595 1.254 1.968 1.92 3.062 1.478 1.095-.441 1.498-1.808.903-3.062-.595-1.254-1.965-1.92-3.063-1.482ZM22.957 10.525c-.925-.503-2.141.057-2.723 1.25-.583 1.194-.304 2.56.62 3.063.925.503 2.141-.057 2.72-1.251.58-1.194.304-2.563-.617-3.062ZM17.82 15.552s.532 2.816-2.16 3.913l-.3.605.365 1.83h.029c.32.046 3.52.398 4.528-2.326.083-.224.15-.438.208-.64.672-2.457-.448-3.782-.448-3.782l-2.221.4Z"/>
      <path d="M13.251 9.545c-.566-.428-2.118-.81-2.118-.81a8.352 8.352 0 0 0-1.6 2.017c-.09.182-.166.361-.23.531C8.135 14.349 10.522 16 10.522 16l1.92-.96s0-.093.035-.519c-1.677-3.417.774-4.976.774-4.976Zm-4.038 2.237v.067c0 .023-.026-.038-.022-.06l.022-.007Zm0 .106v.064c0 .022-.035-.035-.032-.058l.032-.006Zm-.02.637s-.006-.007-.006 0h.007Z"/>
    </g>
    <g style="mix-blend-mode:multiply" fill="#E1CCBB">
      <path d="m13.3 18.029-.282-1.555-.679.038-.25.704.346 1.53.595-.048.27-.67ZM8.691 16.32c-.838 1.037-.857 2.768-.857 2.768l.32.5.768-.116h.038l.5-2.512-.145-.486-.624-.154ZM15.526 9.322a.924.924 0 0 0 .301.192h.026c1.437-.787 2.995.019 2.995.019l.32-.682-.026-.17s-.272-.732-1.74-.796c-1.47-.064-1.87.858-1.87.858v.57l-.006.009ZM16.925 22.772l.035.556.458.372 1.523-.407.086-.4-.185-.736s-1.242.048-1.917.615ZM15.155 23.62c-1.52-.689-2.45.258-2.45.258v.624c.07.13.13.267.178.407 1.92-.736 3.172.96 3.172.96l.367-.301.32-.682s-.07-.566-1.587-1.267ZM18.013 10.365l-.147.65.192.435 1.51.125.157-.554-.125-.387-1.587-.269ZM5.3 12.935c-.022.167-.031.336-.03.505l.263.413s1.001.102 1.145.96a.115.115 0 0 1 0 .035 1.885 1.885 0 0 1-.892 1.978v.582l.342.211s1.085-.278 1.251-1.74a3.306 3.306 0 0 0-.073-1.14c-.224-1.008-.95-1.81-2.007-1.804ZM22.022 16.205a5.317 5.317 0 0 0-.374 2.215l.304.508.64-.073.38-1.722-.252-.576-.698-.352ZM25.536 14.909a5.785 5.785 0 0 0-.26-.288 3.707 3.707 0 0 0-.223-.224 2.022 2.022 0 0 0-.887 1.808c.026 1.28 1.223 1.888 1.223 1.888l.265-.17.18-.115s-1.418-1.357-.298-2.899Z"/>
    </g>
    <path d="M20.666 19.456s-.506.144-.355.912c.15.768.32 1.507-.352 2.06-.672.554-.554.593-.439.91.115.316-.02.607-.592.867-.573.259-1.008.755-.672 1.481.336.727 1.056.372 1.315.352.26-.019.59.221.96.407a.752.752 0 0 0 .96-.295c.167-.297.5-.259.925-.259a1.426 1.426 0 0 0 1.28-.537c.39-.5.39-.64.32-1.037-.07-.397.093-.372.519-.832a.961.961 0 0 0-.407-1.501 1.209 1.209 0 0 1-.816-.922c-.112-.37-.26-.39-.611-.425-.352-.035-.46-.26-.666-.64-.204-.381-1.197-.797-1.37-.541Z" fill="#68B42E"/>
    <path d="M24.106 21.984a1.209 1.209 0 0 1-.816-.922c-.112-.37-.26-.39-.612-.425-.352-.035-.46-.26-.665-.64a1.719 1.719 0 0 0-1.11-.64c.088.157.189.306.3.448.31.327.583.687.813 1.075.108.195.15.42.118.64a3.72 3.72 0 0 1-.233.602.995.995 0 0 0-.035.748c.07.18.172.346.24.525a.518.518 0 0 1-.19.682c-.268.134-.62-.144-.873.02a.231.231 0 0 0-.098.311.23.23 0 0 0 .082.088c.055.035.115.064.167.103.099.093.157.222.163.358 0 .038 0 .096-.055.105-.172.045-.236.32-.297.47a1.161 1.161 0 0 0-.1.44c.009.075.009.151 0 .226a.608.608 0 0 1-.153.295.775.775 0 0 0 .726-.365c.167-.297.5-.26.925-.26a1.427 1.427 0 0 0 1.28-.537c.39-.499.39-.64.32-1.037-.07-.396.093-.37.519-.832a.959.959 0 0 0-.416-1.478Z" fill="#3E9F32"/>
    <g style="mix-blend-mode:multiply" fill="#68B42E">
      <path d="M20.666 19.456v.026c.009.024.02.047.032.07 0 .032.035.067.057.109l.045.067a.529.529 0 0 0 .054.07c.092.121.2.229.32.32.163.117.314.25.451.394.17.165.321.346.455.54.07.11.129.227.173.35.05.129.069.268.054.406a.53.53 0 0 1-.067.208.343.343 0 0 1-.06.09l-.036.041-.035.039c-.023.029-.048.054-.07.08l-.062.08-.054.09a.574.574 0 0 0-.042.493c.049.13.122.255.183.39 0 .035.029.067.041.102l.023.054v.051c0 .036 0 .077.026.113a.731.731 0 0 1 0 .118.32.32 0 0 1-.103.211.472.472 0 0 1-.195.115c-.138.046-.28.075-.426.087-.067 0-.134.019-.201.035a1.007 1.007 0 0 0-.19.064.365.365 0 0 0-.143.115.253.253 0 0 0-.038.166c.002.03.009.061.019.09.009.028.023.054.041.077.038.047.082.089.131.125a.958.958 0 0 1 .27.256.32.32 0 0 1 .044.179v.025a.16.16 0 0 1 0 .042v.045l-.02.038a.787.787 0 0 1-.23.221.59.59 0 0 0-.102.096.096.096 0 0 0 0 .112c.045.07.081.145.109.224a.271.271 0 0 1 0 .112.278.278 0 0 1-.045.093.46.46 0 0 1-.134.109c-.042.025-.08.041-.112.057l-.096.042.096-.045c.037-.02.073-.04.108-.064a.387.387 0 0 0 .125-.109.195.195 0 0 0 .039-.086.227.227 0 0 0 0-.102 1.327 1.327 0 0 0-.116-.221.106.106 0 0 1-.015-.07.137.137 0 0 1 .028-.071.55.55 0 0 1 .106-.106.75.75 0 0 0 .214-.21l.02-.036V25.28a.319.319 0 0 0-.045-.157.922.922 0 0 0-.26-.233.718.718 0 0 1-.143-.135.322.322 0 0 1-.052-.092.346.346 0 0 1-.025-.103.285.285 0 0 1 .048-.208c.043-.06.1-.107.166-.137.13-.06.27-.097.413-.11.138-.013.274-.042.406-.086a.462.462 0 0 0 .173-.099.282.282 0 0 0 .08-.17.547.547 0 0 0 0-.102.633.633 0 0 0-.022-.1l.003-.053v-.045c0-.035-.029-.067-.042-.1-.057-.13-.13-.259-.182-.4a.673.673 0 0 1 0-.447c.053-.133.13-.255.224-.362a.904.904 0 0 0 .122-.157.532.532 0 0 0 .06-.182.809.809 0 0 0-.048-.381 1.655 1.655 0 0 0-.163-.34 3.361 3.361 0 0 0-.425-.553 3.474 3.474 0 0 0-.442-.4 1.583 1.583 0 0 1-.32-.32 1.048 1.048 0 0 1-.18-.326l-.018-.026Z"/>
      <path d="M20.995 19.977c.029.055.054.11.077.167.02.054.048.122.073.198l.039.122c0 .045.025.09.038.138.03.099.048.204.074.32 0 .057 0 .115.026.175.01.06.018.122.022.183v.787a1.97 1.97 0 0 1-.023.198l-.028.199c-.02.128-.052.256-.077.378-.026.121-.074.236-.106.345-.032.109-.083.211-.118.32a1.12 1.12 0 0 1-.112.246l-.1.186-.086.163.074-.17.09-.188a.872.872 0 0 0 .044-.122c.02-.041.035-.086.051-.13.041-.1.076-.201.103-.305l.048-.17c.02-.057.035-.116.048-.175.022-.122.054-.247.073-.375 0-.064 0-.128.026-.192v-.198c0-.132.02-.263 0-.394v-.563c0-.06 0-.115-.022-.173-.02-.112-.035-.217-.058-.32-.022-.102-.045-.185-.064-.265-.02-.08-.045-.144-.064-.202a1.538 1.538 0 0 0-.045-.125l-.003-.058Z"/>
      <path d="m20.342 23.36.167-.157.17-.163c.057-.06.124-.122.185-.189l.093-.099.086-.1c.029-.031.051-.063.077-.095.025-.032.041-.061.06-.09l.049-.08a.24.24 0 0 0 .032-.064l.025-.057v.064a.85.85 0 0 1-.109.26 1.805 1.805 0 0 1-.246.314 2.799 2.799 0 0 1-.384.318 1.48 1.48 0 0 1-.137.093l-.068.045ZM20.742 19.479a4.477 4.477 0 0 1 .954.608c.112.086.219.179.32.278.051.051.102.106.147.16l.077.083c.022.029.045.06.07.09l.07.09.065.092.067.096.057.1.058.095.051.106c.02.035.035.067.051.102l.048.106a4.022 4.022 0 0 1 .154.413c.022.067.045.134.06.201l.052.195c.016.061.029.128.042.19.012.06.022.118.032.175.022.112.035.215.044.32.01.106.02.173.026.24v.211s0-.076-.026-.21c0-.065-.019-.145-.035-.234-.016-.09-.035-.195-.06-.32a.438.438 0 0 0-.039-.173c0-.06-.029-.118-.048-.182-.02-.064-.032-.128-.054-.196-.023-.067-.039-.13-.064-.198-.026-.067-.045-.135-.074-.202-.029-.067-.051-.137-.083-.204l-.048-.1c0-.035-.032-.067-.048-.102l-.055-.1-.06-.089-.058-.096-.06-.093-.065-.093-.067-.09-.07-.085-.07-.084a1.755 1.755 0 0 0-.148-.16c-.045-.05-.1-.099-.147-.147-.048-.048-.1-.09-.147-.134a4.747 4.747 0 0 0-.282-.234 4.919 4.919 0 0 0-.454-.32 1.56 1.56 0 0 1-.183-.105Z"/>
      <path d="M22.909 21.959s.093.08.22.207c.061.068.135.141.208.228.074.086.15.182.221.278.07.096.067.102.103.15.035.049.06.103.09.15.028.049.054.1.08.145.025.045.04.093.057.134l.045.115a.85.85 0 0 1 .025.093v.08s0-.025-.032-.073a.819.819 0 0 0-.035-.087c-.02-.035-.035-.07-.054-.112l-.074-.125-.083-.137a6.693 6.693 0 0 0-.198-.288c-.07-.096-.141-.192-.212-.282-.07-.09-.13-.172-.189-.24-.099-.14-.172-.236-.172-.236Z"/>
    </g>
    <path d="M20.666 20.919a4.26 4.26 0 0 1-.08-1.028c0-.054-.061 0-.064.03-.068.264-.09.537-.068.809.075.37.105.746.09 1.123a1.065 1.065 0 0 1-.368.707c-.109.077-.256.09-.368.163a.641.641 0 0 0-.32.455c-.042.243.131.521.147.768 0 .179-.675.473-.79.57-.407.32-.663.707-.493 1.241.032.102.154-.067.14-.131-.114-.621.337-.96.81-1.226.159-.068.3-.17.416-.297a.505.505 0 0 0 .067-.384 2.088 2.088 0 0 0-.105-.416c-.134-.378.211-.407.39-.5a1.373 1.373 0 0 0 .64-1.12c.025-.255.01-.513-.044-.764Z" fill="#68B42E" style="mix-blend-mode:screen"/>
    <g style="mix-blend-mode:screen" fill="#68B42E">
      <path d="M14.922 17.92c-.208-.441-.413-.89-.64-1.325-.266-.53-.346-1.142.156-1.545.026-.02.052-.122 0-.087-.473.266-.499.67-.483 1.181.052.303.16.592.32.855.142.38.317.746.525 1.094.042.09.15-.1.122-.173ZM15.066 18.384c-.036-.041-.096.061-.077.096.15.244.051.544.064.81 0 .109.118-.023.121-.077.062-.28.024-.574-.108-.829Z"/>
    </g>
    <g style="mix-blend-mode:screen" fill="#97C740">
      <path d="M11.52 20.253c-.745-.762-1.203-1.725-.912-2.807.02-.073-.064-.029-.08 0a2.637 2.637 0 0 0 .87 2.983c.068.05.173-.125.122-.176ZM11.811 20.592a.663.663 0 0 0-.124-.106c-.039-.025-.106.084-.061.112.042.027.083.057.121.09.032.026.093-.067.064-.096Z"/>
    </g>
    <g style="mix-blend-mode:screen" fill="#97C740">
      <path d="M4.01 15.226c0-.061-.084.028-.084.06-.02.322-.114.634-.275.912-.182.183-.505.177-.733.285a1.002 1.002 0 0 0-.476.864c-.026.538.505.96.419 1.495-.087.534-.087.88.32 1.238.064.058.144-.125.118-.176-.179-.361-.355-.592-.265-1.02a1.44 1.44 0 0 0 .028-.468 1.837 1.837 0 0 0-.256-.55c-.21-.407-.32-.887.116-1.213.272-.202.659-.102.864-.438.075-.131.122-.276.137-.426a1.57 1.57 0 0 0 .087-.563ZM3.856 20.41a2.557 2.557 0 0 1-.336-.369c-.035-.047-.109.064-.083.106.094.154.218.287.365.39.038.03.099-.092.054-.127Z"/>
    </g>
    <g style="mix-blend-mode:screen" fill="#97C740">
      <path d="M21.152 9.62c-.375-1.06-.611-2.305-.032-3.329.032-.054 0-.109-.051-.051-.322.44-.49.975-.477 1.52.003.362.045.722.125 1.075.038.335.136.66.288.96.048.07.17-.115.147-.176ZM21.264 10.048c0-.025-.032-.045-.045-.07l-.051-.096c-.016-.032-.058 0-.07.019a.106.106 0 0 0-.02.096c.029.058.048.134.109.166.06.032.1-.076.077-.115Z"/>
    </g>
    <path d="m12.304 16.256-.246.7.345 1.53.224-.633-.323-1.597Z" fill="#EF7E8A"/>
    <path d="m12.403 18.486.592-.047.272-.666-.64.08-.224.633Z" fill="#F5ACA2"/>
    <path d="m12.304 16.256.323 1.597.64-.08-.285-1.552-.678.035Z" fill="#F39B99"/>
    <path d="M8.893 19.2h.019l.512-2.509-.144-.49a5.715 5.715 0 0 0-.704 2.6l.317.4Z" fill="#EF7E8A"/>
    <path d="m9.28 16.202-.62-.15c-.842 1.036-.858 2.767-.858 2.767l.774-.019c.024-.91.266-1.8.704-2.598Z" fill="#F39B99"/>
    <path d="m7.802 18.819.32.496.768-.115-.32-.4-.768.019Z" fill="#F5ACA2"/>
    <path d="M18.755 8.96c.102-.187.217-.365.346-.535 0 0-.272-.732-1.741-.793-1.469-.061-1.866.854-1.866.854v.029l.301.394s1.504-.877 2.96.05Z" fill="#F39B99"/>
    <path d="M19.1 8.432a4.228 4.228 0 0 0-.345.528l.058.32.32-.678-.032-.17ZM15.494 8.521v.541c.086.085.189.15.301.192v-.339l-.3-.394Z" fill="#F5ACA2"/>
    <path d="m18.813 9.28-.058-.32c-1.456-.934-2.96-.051-2.96-.051v.34h.026c1.437-.772 2.992.031 2.992.031Z" fill="#EF7E8A"/>
    <path d="m16.89 22.515.53.554a6.138 6.138 0 0 1 1.56-.432l-.183-.736s-1.223.048-1.907.614Z" fill="#F39B99"/>
    <path d="m16.89 22.515.025.554.458.37.048-.37-.531-.554Z" fill="#F5ACA2"/>
    <path d="m17.42 23.069-.047.371 1.507-.4.086-.4a6.143 6.143 0 0 0-1.545.429Z" fill="#EF7E8A"/>
    <path d="M15.12 23.36c-1.517-.691-2.451.259-2.451.259l.214.56a1.975 1.975 0 0 1 1.92-.026c1.123.528 1.28 1.133 1.28 1.133l.624-.646s-.067-.586-1.587-1.28Z" fill="#F39B99"/>
    <path d="M14.8 24.157a1.974 1.974 0 0 0-1.92.026l-.038.457c1.92-.733 3.168.96 3.168.96l.086-.32s-.173-.595-1.296-1.123Z" fill="#EF7E8A"/>
    <path d="M12.669 23.623v.62c.068.128.126.26.172.397l.042-.467-.214-.55ZM16.096 25.29l-.087.326.372-.3.326-.686-.611.66Z" fill="#F5ACA2"/>
    <path d="m19.565 10.374-1.584-.265-.148.65 1.63.204.102-.588Z" fill="#F39B99"/>
    <path d="m17.834 10.758.192.436 1.51.124-.074-.355-1.628-.205Z" fill="#EF7E8A"/>
    <path d="m19.565 10.374-.103.59.074.354.154-.553-.125-.39Z" fill="#F5ACA2"/>
    <path d="m5.238 13.168.26.413s1.004.106 1.148.96a1.392 1.392 0 0 0-1.408-1.373Z" fill="#EF7E8A"/>
    <path d="m5.757 16.566.016.583.345.214-.019-.393-.342-.404Z" fill="#F5ACA2"/>
    <path d="M5.267 12.678a3.128 3.128 0 0 0-.029.49 1.392 1.392 0 0 1 1.415 1.414 1.89 1.89 0 0 1-.893 1.988l.34.39s1.42-1.066 1.196-2.487c-.256-.998-.976-1.801-2.029-1.795Z" fill="#F39B99"/>
    <path d="m6.1 16.96.018.394s1.082-.282 1.248-1.744a3.2 3.2 0 0 0-.07-1.136c.224 1.43-1.197 2.486-1.197 2.486Z" fill="#EF7E8A"/>
    <path d="m21.613 18.16.307.512.65-.077-.17-.41-.787-.025Z" fill="#F5ACA2"/>
    <path d="m22.57 18.595.383-1.718-.265-.576a9.217 9.217 0 0 0-.288 1.885l.17.41Z" fill="#EF7E8A"/>
    <path d="m21.613 18.16.787.026c.03-.637.127-1.269.288-1.885l-.697-.352a5.263 5.263 0 0 0-.378 2.21Z" fill="#F39B99"/>
    <path d="M25.504 14.653a13.351 13.351 0 0 0-.26-.291c-.262.397-1.036 1.837.375 3.305l.18-.115s-1.418-1.36-.295-2.899Z" fill="#EF7E8A"/>
    <path d="M25.245 14.362a5.519 5.519 0 0 0-.224-.224 2.026 2.026 0 0 0-.887 1.81c.026 1.28 1.223 1.886 1.223 1.886l.262-.167c-1.41-1.469-.636-2.909-.374-3.305Z" fill="#F39B99"/>
    <path d="M16.077 11.965c.195 1.257-.458 2.368-1.463 2.476-1.004.11-1.97-.819-2.166-2.076-.195-1.258.46-2.372 1.462-2.48 1.002-.11 1.972.819 2.167 2.08Z" fill="#E83426"/>
    <path d="M15.85 11.98c.179 1.162-.387 2.18-1.28 2.276-.893.096-1.735-.765-1.92-1.92-.186-1.155.387-2.18 1.264-2.275.877-.096 1.766.761 1.936 1.92Z" fill="#EE523B"/>
    <path d="M14.278 11.334s.093-.89.25-.909c.157-.019.96.772.98 1.844.019 1.072-.461 1.635-.64 1.69-.18.054-.385-.717-.385-.717s-.035.751-.21.755c-.177.003-1.44-.544-1.364-2.24.054-.97 1.2-2.432 1.37-.423Z" fill="#CA2C21"/>
    <path d="M14.035 13.12s-.112.176-.195.144.275-.31.195-.144ZM14.976 12.931s.15.083.125.144c-.026.06-.256-.205-.125-.144ZM14.835 12.448s.192.035.189.109c-.003.073-.355-.135-.189-.109ZM14.845 11.92s.192.039.188.112c-.003.074-.355-.134-.188-.112ZM14.8 11.383s.096-.157.17-.132c.073.026-.25.27-.17.132ZM13.76 12.237s-.211-.042-.208-.122c.003-.08.378.144.208.122ZM13.728 11.776s-.266-.096-.243-.195c.022-.1.473.26.243.195ZM13.834 11.366s-.32-.21-.282-.32c.038-.108.554.474.282.32ZM13.888 12.733s-.192.096-.246.029c-.055-.068.406-.125.246-.03Z" fill="#FFBE60"/>
    <path d="M12.666 11.863a2.303 2.303 0 0 1 .774-1.623c.045-.032 0-.045-.042-.022a2.199 2.199 0 0 0-.867 1.686c.013.055.131 0 .135-.041ZM12.688 12.195a.638.638 0 0 1-.022-.112c0-.038-.096 0-.087.036a.401.401 0 0 0 .032.121c.016.029.093-.013.077-.045Z" fill="#fff"/>
    <path d="M11.306 21.53c.595 1.254.192 2.627-.906 3.065-1.098.438-2.464-.224-3.06-1.482-.594-1.257-.191-2.627.903-3.062 1.095-.435 2.464.224 3.063 1.478Z" fill="#E83426"/>
    <path d="M11.053 21.62c.547 1.157.217 2.405-.74 2.79-.956.384-2.179-.244-2.729-1.402-.55-1.159-.224-2.406.736-2.79.96-.384 2.182.262 2.733 1.401Z" fill="#EE523B"/>
    <path d="M9.091 21.44s-.163-.96 0-1.027c.163-.068 1.28.502 1.651 1.6.372 1.097-.025 1.856-.224 1.98-.198.125-.64-.64-.64-.64s.186.8 0 .861c-.185.061-1.782-.109-2.201-1.92-.227-.995.624-2.896 1.414-.854Z" fill="#CA2C21"/>
    <path d="M9.347 23.389s-.07.218-.173.214c-.102-.003.218-.403.173-.214ZM10.355 22.9s.192.038.183.105c-.01.067-.352-.131-.183-.106ZM10.051 22.435s.227-.022.243.055c.016.076-.438-.03-.243-.055ZM9.92 21.881s.227-.022.243.055c.016.077-.454-.029-.243-.055ZM9.693 21.331s.06-.195.15-.189c.09.007-.192.355-.15.189ZM8.762 22.563s-.253.026-.272-.057c-.02-.083.486.029.272.057ZM8.605 22.08s-.32 0-.32-.128.598.128.32.128ZM8.602 21.626s-.413-.122-.416-.247c-.004-.125.774.33.416.247ZM9.072 23.04s-.189.163-.272.112c-.083-.051.422-.262.272-.112Z" fill="#FFBE60"/>
    <path d="M7.434 22.522a2.445 2.445 0 0 1 .403-1.95c.038-.047-.026-.044-.055 0a2.339 2.339 0 0 0-.47 2.049c.016.038.131-.054.122-.1ZM7.562 22.864a.743.743 0 0 1-.058-.112c-.022-.038-.112.035-.09.064.02.042.043.082.07.119.026.025.103-.045.078-.07Z" fill="#fff"/>
    <path d="M23.54 13.293c-.583 1.19-1.802 1.75-2.724 1.251-.921-.499-1.2-1.872-.62-3.065.578-1.194 1.8-1.75 2.723-1.239.921.512 1.2 1.86.62 3.053Z" fill="#E83426"/>
    <path d="M23.331 13.171c-.534 1.098-1.622 1.635-2.429 1.197-.806-.438-1.027-1.683-.492-2.784.534-1.1 1.625-1.632 2.431-1.197.807.435 1.028 1.687.49 2.784Z" fill="#EE523B"/>
    <path d="M22.375 11.686s.608-.707.748-.64c.141.067.352 1.22-.256 2.157-.608.938-1.36 1.123-1.558 1.06-.199-.065.1-.823.1-.823s-.478.62-.64.521c-.164-.099-.91-1.321.16-2.72.646-.803 2.492-1.372 1.446.445Z" fill="#CA2C21"/>
    <path d="M21.12 13.06s-.198.086-.253 0c-.054-.087.403-.084.253 0ZM22.023 13.466s.076.16.022.195c-.055.035-.1-.326-.023-.195ZM22.189 12.966s.14.148.096.209c-.045.06-.224-.327-.096-.209ZM22.509 12.522s.14.147.096.208c-.045.06-.224-.327-.096-.208ZM22.79 12.035s.176-.077.221 0c.045.077-.361.074-.22 0ZM21.382 12.141s-.157-.163-.109-.23c.049-.068.25.358.11.23ZM21.638 11.734s-.166-.237-.086-.32c.08-.083.246.519.086.32ZM21.974 11.45s-.14-.365-.05-.442c.089-.077.185.742.05.442ZM21.21 12.65s-.221-.032-.23-.122c-.01-.09.422.134.23.122Z" fill="#FFBE60"/>
    <path d="M20.682 11.181a2.397 2.397 0 0 1 1.632-.915c.06 0 .019-.048-.023-.048a2.282 2.282 0 0 0-1.74.931c-.03.051.102.051.13.032ZM20.502 11.478a.64.64 0 0 1 .048-.105c0-.039-.086-.058-.096-.026a.717.717 0 0 0-.044.125c-.004.048.09.048.092.006Z" fill="#fff"/>
    <path d="m20.013 14.854-2.24.404s.531 2.816-2.157 3.913l.493 1.792s3.446.355 4.342-2.326c.669-2.46-.438-3.783-.438-3.783Z" fill="#F2D038"/>
    <path d="m15.626 19.171-.295.605.365 1.827h.029l.394-.64-.493-1.792Z" fill="#E39042"/>
    <path d="m16.119 20.963-.394.64c.32.045 3.52.397 4.528-2.326.083-.221.154-.439.208-.64-.896 2.681-4.342 2.326-4.342 2.326Z" fill="#6C8424"/>
    <g style="mix-blend-mode:screen" fill="#F2D038">
      <path d="M20.413 16.288a1.734 1.734 0 0 0-.477-1.159c-.064-.054-.166.132-.128.19.467.68.477 1.689.352 2.48-.125.79-.64 1.4-1.152 2.018-.074.09-.07.301.077.183a3.972 3.972 0 0 0 1.305-2.279c.081-.473.089-.957.023-1.433ZM18.685 20.16c-.103 0-.173.105-.272.125-.1.019-.135.166-.055.175a.474.474 0 0 0 .32-.143c.039-.023.1-.157.007-.157Z"/>
    </g>
    <path d="M13.213 9.251c-.567-.429-2.119-.81-2.119-.81s-.684.535-1.6 2.016a6.615 6.615 0 0 0-.227.532c-.211.697-.355 2.224 1.28 4.259l1.888-.999c-1.673-3.44.778-4.998.778-4.998Z" fill="#F2D038"/>
    <path d="M9.258 10.989a3.965 3.965 0 0 0 1.225 4.723l.058-.464c-1.639-2.035-1.495-3.562-1.283-4.26Z" fill="#6C8424"/>
    <path d="m12.429 14.25-1.888.998-.058.464 1.92-.96c.018-.167.027-.335.026-.503Z" fill="#E39042"/>
    <g style="mix-blend-mode:screen" fill="#F2D038">
      <path d="M11.02 8.74a4.79 4.79 0 0 1-.46.54 4.048 4.048 0 0 0-.464.672 4.8 4.8 0 0 0-.563 1.35c-.192.858-.109 2.042.451 2.778.102.134.282-.18.227-.288a4.109 4.109 0 0 1-.403-2.592c.113-.452.295-.884.54-1.28.218-.394.56-.704.762-1.104.045-.08-.015-.176-.09-.077ZM10.493 14.361a.912.912 0 0 0-.157-.176c-.035-.025-.093.03-.109.052s-.073.121-.035.166c.039.045.042.06.061.096a.268.268 0 0 0 .08.1c.042.028.1-.026.122-.055.022-.029.073-.144.038-.183Z"/>
    </g>
    <path d="M21.1 10.24c-.028 0-.057.07-.025.07s.045-.07.026-.07ZM7.962 9.136a.051.051 0 0 0-.058-.022h-.048c-.022.029-.051.093 0 .121 0 0 .022.032.038.032a.093.093 0 0 0 .074-.064v-.019a.083.083 0 0 0-.006-.048ZM12.365 7.248a.058.058 0 0 0-.058-.022h-.022a.042.042 0 0 0-.023 0c-.025.028-.054.092 0 .121 0 .016.023.032.039.032a.093.093 0 0 0 .073-.064.029.029 0 0 0 0-.019.075.075 0 0 0-.01-.048ZM14.189 8.586a.067.067 0 0 0-.06-.026h-.02l-.026.016c-.025.029-.05.093 0 .122 0 .016.02.032.035.032a.087.087 0 0 0 .074-.064v-.02a.097.097 0 0 0-.003-.06ZM14.81 7.155a.06.06 0 0 0-.058-.022h-.026a.042.042 0 0 0-.022 0c-.026.029-.054.093 0 .121 0 .016.02.032.035.032a.087.087 0 0 0 .074-.06v-.02a.096.096 0 0 0-.003-.05ZM12.48 7.654c-.045 0-.093.112-.042.112s.087-.112.042-.112ZM10.614 8.064c-.029 0-.064.077-.029.077.036 0 .064-.077.03-.077ZM11.085 11.52h-.042a.049.049 0 0 0-.035.02.132.132 0 0 0-.048.16c.032.057.106.031.14 0 .036-.033.04-.135-.015-.18ZM16.874 10.483a.06.06 0 0 0-.023 0c-.035 0-.064.042-.07.067a.106.106 0 0 0 0 .093c.035.051.093-.06.093-.086v-.074ZM17.6 8.17a.033.033 0 0 0 0-.026.064.064 0 0 0-.086.025c-.026.03-.048.084 0 .116a.096.096 0 0 0 .083.019c.003-.023.048-.1.003-.135ZM21.165 8.464h-.026c-.035 0-.06.051-.067.073a.24.24 0 0 0 0 .048v.032a.08.08 0 0 0 .102-.048c.026-.032.036-.086-.01-.105ZM21.59 7.386c-.047-.045-.108.019-.124.064s0 .115.05.105a.119.119 0 0 0 .046-.028c.041-.03.07-.1.028-.141ZM23.654 9.024v-.016c0-.022-.025-.022-.041 0-.042.029-.077.109-.023.14.055.033.064-.031.077-.066a.07.07 0 0 0-.013-.058ZM23.149 9.753c-.026.016-.07.09-.035.11.019.031.06-.026.064-.042.019-.026.019-.096-.03-.068ZM26.06 13.3a.064.064 0 0 0-.029-.06.064.064 0 0 0-.047-.02h-.032a.16.16 0 0 0-.042.114.09.09 0 0 0 .01.106.093.093 0 0 0 .045.026c.035 0 .067-.039.083-.064a.169.169 0 0 0 .022-.1l-.01-.003ZM23.408 14.525a.067.067 0 0 0-.064 0h-.029c-.029 0-.051.038-.06.057-.01.02 0 .09.041.096a.106.106 0 0 0 .102-.041c.016-.042.039-.087.01-.112ZM26.096 15.318c-.051 0-.106.128-.048.128.058 0 .102-.128.048-.128ZM25.357 15.715c-.023 0-.051 0-.064.032 0 .02-.032.052 0 .064.032.013.07 0 .086-.038.016-.038-.003-.048-.022-.058ZM17.994 13.894a.111.111 0 0 0 .015-.125.022.022 0 0 0 0-.022.093.093 0 0 0-.047-.029h-.042a.064.064 0 0 0-.051 0c-.052.035-.093.125-.045.18a.077.077 0 0 0 .086.05.083.083 0 0 0 .042-.028.162.162 0 0 0 .041-.026ZM16.717 15.162v-.026c0-.026-.032-.026-.055 0-.06 0-.105.07-.108.125a.083.083 0 0 0 0 .048.061.061 0 0 0 .016.045.067.067 0 0 0 .07.006.128.128 0 0 0 .077-.198ZM15.626 15.34a.123.123 0 0 0-.1-.077.12.12 0 0 0-.115.052.165.165 0 0 0-.035.134c.004.016.012.03.023.042a.045.045 0 0 0 .032.026c.019.02.045.031.073.032.087 0 .154-.132.122-.208ZM19.245 16.64c-.087 0-.144.096-.15.166a.122.122 0 0 0 .111.122.128.128 0 0 0 .096-.054.095.095 0 0 0 0-.032.115.115 0 0 0 0-.058c.055-.09.004-.144-.057-.144ZM19.357 18.093a.051.051 0 0 0-.039 0c-.038 0-.067.064-.07.09v.034a.03.03 0 0 0 0 .03c0 .04.029.073.077.066a.142.142 0 0 0 .083-.121.11.11 0 0 0-.051-.1ZM16.813 19.731a.078.078 0 0 0 0-.038.035.035 0 0 0-.026-.035.02.02 0 0 0-.013-.005.02.02 0 0 0-.012.005h-.058a.119.119 0 0 0-.045.07.093.093 0 0 0 .032.093H16.733a.057.057 0 0 0 .035 0 .131.131 0 0 0 .045-.09ZM25.67 18.535a.056.056 0 0 0 0-.023.093.093 0 0 0 0-.051.14.14 0 0 0-.109-.06.2.2 0 0 0-.2.137.198.198 0 0 0-.008.086.119.119 0 0 0 .074.096.185.185 0 0 0 .215-.096c.01.013.047-.064.028-.09ZM23.776 19.373c0-.016 0-.026-.02-.029h-.041a.128.128 0 0 0-.05.064v.058h.04a.093.093 0 0 0 .071-.093ZM7.395 12.57v-.02a.073.073 0 0 0-.035-.07h-.029a.107.107 0 0 0-.08.045.14.14 0 0 0-.035.131.074.074 0 0 0 .067.051.067.067 0 0 0 .048 0s.023 0 .029-.019a.134.134 0 0 0 .035-.118ZM11.542 14.288a.067.067 0 0 0-.077-.026c-.025 0-.05.023-.063.045a.106.106 0 0 0 0 .122.07.07 0 0 0 .105 0c.013-.03.061-.093.035-.141ZM5.555 16a.102.102 0 0 0-.09.023.154.154 0 0 0-.092.096.157.157 0 0 0 .02.15c.01.021.027.039.047.051a.086.086 0 0 0 .102-.032.209.209 0 0 0 .042-.051c.051-.074.058-.214-.029-.237ZM5.51 17.719a.085.085 0 0 0-.038-.02.054.054 0 0 0-.064 0 .195.195 0 0 0-.051.103c0 .025 0 .064.019.083a.086.086 0 0 0 .083 0c.051-.022.106-.122.051-.166ZM6.688 18.9a.096.096 0 0 0-.147 0 .138.138 0 0 0-.045.153.083.083 0 0 0 .045.067.116.116 0 0 0 .153-.055.153.153 0 0 0-.006-.166ZM5.513 20.397c-.044 0-.092.032-.118.064a.118.118 0 0 0-.022.038.197.197 0 0 0-.052.127.156.156 0 0 0 .116.149c.105.025.182-.087.204-.173a.192.192 0 0 0-.128-.205ZM6.822 22.963a.141.141 0 0 0-.179.15.093.093 0 0 0 .08.08.134.134 0 0 0 .141-.073c.022-.051.022-.135-.042-.157ZM6.611 23.981c-.022 0-.051 0-.067.042a.067.067 0 0 0-.035.025c-.026.035-.048.112 0 .138.048.025.092-.02.118-.058a.102.102 0 0 0-.016-.147ZM6.934 24.94c-.028 0-.057.075-.025.075s.06-.074.025-.074ZM12.032 25.238a.08.08 0 0 0-.048-.038.08.08 0 0 0-.105 0h-.039a.16.16 0 1 0 .112.291.187.187 0 0 0 .101-.182.187.187 0 0 0-.02-.07ZM13.383 25.418a.029.029 0 0 0-.023-.032h-.022c-.045 0-.07.06-.074.093a.069.069 0 0 0 0 .025.058.058 0 0 0 0 .026c0 .041.023.08.07.083.049.003.077-.064.077-.1a.11.11 0 0 0-.028-.095ZM19.283 25.28a.122.122 0 0 0-.157-.06l-.035.031a.166.166 0 0 0-.048.058.156.156 0 0 0 0 .131c.016.045.045.058.077.048a.064.064 0 0 0 .093 0 .348.348 0 0 0 .057-.073.096.096 0 0 0 .013-.135ZM20.06 24.32a.045.045 0 0 0-.06 0h-.029c-.038 0-.067.058-.067.086v.023a.18.18 0 0 0 0 .057.08.08 0 0 0 .077.086h.022c.032 0 .067-.038.077-.08a.098.098 0 0 0 .026-.04.09.09 0 0 0-.045-.132ZM22.72 23.863a.123.123 0 0 0-.1.022.177.177 0 0 0-.044.038.123.123 0 0 0-.035.036.226.226 0 0 0-.035.073.118.118 0 0 0 0 .087.039.039 0 0 0 0 .025.148.148 0 0 0 .125.122c.096 0 .166-.11.185-.19.02-.08-.003-.191-.096-.213ZM9.792 19.318h-.02c.02-.022.033-.06 0-.07-.031-.01-.105.038-.12.093-.017.054.021.13.085.108.064-.022.1-.102.055-.13ZM11.216 18.202c-.054 0-.109.13-.051.13.057 0 .109-.13.051-.13Z" fill="#FFFBDC"/>
    <path d="M10.502 19.226c.244.099.132.233.279.429.147.195.217.22.681.17.464-.052.39.08.756.217.364.137.53-.042.53-.042a.46.46 0 0 0 .151-.233c.045-.157.295-.026.285-.35-.01-.322-.022-.553-.451-.64a1.815 1.815 0 0 0-.618.023c-.125.023-.112-.06-.246-.256a.419.419 0 0 0-.58-.099c-.233.118-.259.176-.45.096-.193-.08-.733-.016-.813.349 0 .157.214.233.476.336Z" fill="#FFE1C0"/>
    <path d="M11.331 20.214c.202.058.32-.035.583.285a.339.339 0 0 0 .515.083c.16-.16.27-.361.32-.582 0 0-.167.182-.531.042-.365-.141-.295-.27-.756-.218-.396.042-.505.032-.62-.096a.688.688 0 0 0 .49.486Z" fill="#F3751E"/>
    <path d="M11.082 20.506c.214.224.64.14.777.384a.377.377 0 0 1-.067.396l.055-.041c.591-.49.582-.663.582-.663a.34.34 0 0 1-.515-.083c-.25-.32-.381-.227-.583-.285a.72.72 0 0 1-.358-.23c.022.176-.055.352.109.521Z" fill="#FFE7D2"/>
    <path d="M10.56 19.632a.404.404 0 0 0 .32.15v-.054a.836.836 0 0 1-.06-.073c-.148-.196-.036-.32-.28-.43-.242-.108-.476-.178-.476-.32a.147.147 0 0 0-.077.068.56.56 0 0 0-.032.198c.119.298.407.263.605.461Z" fill="#FFE2CF"/>
    <path d="M10.832 21.651c.354.003.697-.127.96-.364a.378.378 0 0 0 .067-.397c-.13-.243-.563-.16-.777-.384-.164-.17-.087-.359-.11-.522a.64.64 0 0 1-.114-.201.403.403 0 0 1-.32-.15c-.19-.2-.477-.164-.64-.462.004.515.113 1.024.32 1.495.396.96.614.985.614.985Z" fill="#F3751E"/>
    <path d="M9.92 20.074c-.039.15-.295.288-.295.582 0 .295.32.451.448.675.128.224 0 .468-.24.583.64-.039.96-.183.986-.263 0 0-.218-.025-.602-.985a4.843 4.843 0 0 1-.288-1.043c-.144.217.042.307-.01.45Z" fill="#FFE7D2"/>
    <path d="M9.942 19.606a1.417 1.417 0 0 1 0-.64.693.693 0 0 0-.525.138c.103.07.196.152.276.246.066.1.15.188.25.256Z" fill="#FFE2CF"/>
    <path d="M9.69 21.92h.156c.247-.115.4-.32.24-.582-.16-.263-.445-.384-.448-.676-.003-.29.256-.432.295-.582.038-.15-.148-.24 0-.451a.94.94 0 0 1-.244-.25 1.365 1.365 0 0 0-.275-.246.524.524 0 0 0-.118.131A3.305 3.305 0 0 0 8.7 20.41c-.276.806-.135 1.184-.135 1.184a1.487 1.487 0 0 0 1.123.326Z" fill="#F3751E"/>
    <path d="M8.576 21.571s-.14-.377.134-1.184a3.37 3.37 0 0 1 .125-.32.494.494 0 0 1-.17.084c-.185.048-.438.105-.499.38-.06.276.042.567-.217.656-.176.064-.474-.15-.477-.153.1.103.206.198.32.285.7.486.784.252.784.252Z" fill="#FFE7D2"/>
    <path d="M8.797 19.594a.371.371 0 0 0 .086.355 2.75 2.75 0 0 1 .423-.707.903.903 0 0 0-.564-.15c.007.166.106.275.055.502Z" fill="#FFE2CF"/>
    <path d="M7.949 21.178c.26-.09.154-.381.218-.656s.32-.32.499-.381a.492.492 0 0 0 .17-.083c.015-.039.031-.077.047-.11a.371.371 0 0 1-.086-.354c.051-.228-.048-.32-.054-.503h-.068a1.818 1.818 0 0 0-.752.467 2.192 2.192 0 0 0-.745.922s-.02.208.294.531c.003.016.3.23.477.167Z" fill="#F3751E"/>
    <path d="M7.178 20.48a2.06 2.06 0 0 1 .64-.835.205.205 0 0 1-.138-.061c-.112-.115-.25-.055-.32.06-.147.218-.246.32-.464.244-.154-.055-.246-.266-.291-.413a1.28 1.28 0 0 0 .573 1.005Z" fill="#FFE7D2"/>
    <path d="M8.083 19.127a.445.445 0 0 0-.17.45c.209-.215.467-.375.753-.467a1.244 1.244 0 0 0-.4-.55c-.112.167.054.387-.183.567Z" fill="#FFE2CF"/>
    <path d="M6.89 19.888c.217.077.32-.026.464-.243.076-.116.214-.176.32-.061a.204.204 0 0 0 .144.073l.09-.08a.445.445 0 0 1 .169-.45c.227-.18.07-.4.182-.57a1.062 1.062 0 0 0-.224-.173 1.846 1.846 0 0 0-.73.32c-.258.129-.489.306-.68.521a.765.765 0 0 0-.033.256c.051.141.144.359.298.407Z" fill="#F3751E"/>
    <path d="M12.54 19.587v-.045a.456.456 0 0 1-.018-.05.645.645 0 0 1-.03-.065c0-.019-.025-.045-.04-.067a.393.393 0 0 0-.058-.07l-.07-.061h-.043l-.054-.029-.045-.016h-.23l-.077.026a.555.555 0 0 0-.109.057l-.038.026.032-.035a.87.87 0 0 1 .102-.074.35.35 0 0 1 .08-.032.3.3 0 0 1 .096-.02h.154c.018.005.035.012.051.02a.216.216 0 0 1 .048.022h.048c.014.01.027.02.039.032l.035.039a.435.435 0 0 1 .093.153.46.46 0 0 1 .035.19Z" fill="#E5B48F"/>
    <path d="m11.782 19.37-.019-.045a.466.466 0 0 0-.08-.1.251.251 0 0 0-.067-.048.366.366 0 0 0-.09-.028h-.156a.149.149 0 0 1-.055-.03.613.613 0 0 1-.073-.089v-.022l-.042-.045a.115.115 0 0 0-.032-.035.195.195 0 0 0-.144-.067h-.179l.048-.016a.48.48 0 0 1 .134 0c.066-.002.13.02.183.06a.237.237 0 0 1 .038.042.067.067 0 0 1 .016.022v.02c.017.03.038.056.064.08a.15.15 0 0 0 .09.028H11.52a.32.32 0 0 1 .166.1c.03.034.052.073.068.115a.22.22 0 0 1 .028.057Z" fill="#E5B48F"/>
    <path d="M10.832 21.651c.354.003.697-.127.96-.364l.054-.042c.592-.49.583-.662.583-.662.16-.16.27-.362.32-.583 0 0-.167.183-.532.042-.364-.141-.294-.269-.755-.218-.396.042-.505.032-.62-.096a.836.836 0 0 1-.061-.073c-.148-.196-.036-.32-.279-.43-.243-.108-.477-.178-.477-.32a.147.147 0 0 0-.076.068c-.052.09-.1.733.281 1.693.381.96.602.985.602.985Zm-.026-.78c-.176-.32-.188-1.066.205-.938.154.048.224.115.403.035.244-.112.413-.096.519.026.085.085.2.134.32.137.502.084.172.397.083.452 0 0-.023.201-.438.534-.416.333-.778.323-1.092-.246Z" fill="#EA9357" style="mix-blend-mode:multiply" opacity=".6"/>
    <path d="M9.69 21.92h.156c.64-.038.96-.182.986-.262 0 0-.218-.026-.602-.986a4.841 4.841 0 0 1-.288-1.043 1.488 1.488 0 0 1 0-.64.64.64 0 0 0-.64.269c-.271.339-.474.728-.595 1.145-.275.807-.134 1.184-.134 1.184a1.488 1.488 0 0 0 1.117.333Zm-.64-.768c.019-.752.838-1.818.93-.995.11.937.663 1.213.609 1.488-.055.275-1.562.473-1.54-.493Z" fill="#EA9357" style="mix-blend-mode:multiply" opacity=".6"/>
    <path d="M8.576 21.571s-.14-.377.135-1.184a3.37 3.37 0 0 1 .124-.32c.112-.295.27-.571.47-.816a.87.87 0 0 0-.64-.14 1.818 1.818 0 0 0-.751.467c-.322.229-.577.54-.736.902 0 0-.02.208.294.531.1.103.206.199.32.285.7.509.784.275.784.275Zm-.774-.32c-.298-.272-.09-.979.32-1.26.595-.416.825-.279.704 0-.2.414-.315.865-.336 1.324-.007.336-.368.221-.688-.076v.012Z" fill="#EA9357" style="mix-blend-mode:multiply" opacity=".6"/>
    <path d="M7.178 20.48a2.06 2.06 0 0 1 .64-.835l.099-.09c.208-.215.466-.376.752-.467a1.497 1.497 0 0 0-.64-.717 1.846 1.846 0 0 0-.73.32c-.258.129-.49.306-.682.522a.765.765 0 0 0-.032.256 1.28 1.28 0 0 0 .593 1.01Zm-.282-1.123c.403-.51 1.475-.272 1.024.083-.28.237-.522.514-.72.822-.131.253-.71-.384-.304-.893v-.012Z" fill="#EA9357" style="mix-blend-mode:multiply" opacity=".6"/>
    <path d="M10.832 21.651a.962.962 0 0 0 .368-.048c-.49.112-1.02-.908-1.018-1.481 0-.752.397-.976.464-.695.051.224.167.27.167.27l-.032-.042c-.148-.196-.036-.32-.279-.43-.243-.108-.477-.178-.477-.32a.147.147 0 0 0-.076.068c-.052.09-.1.733.281 1.693.381.96.602.985.602.985Z" fill="#E0A075" style="mix-blend-mode:multiply" opacity=".7"/>
    <path d="M8.813 20.358c.32-.934.685-1.078.9-.982.103.052.185.14.23.246a1.488 1.488 0 0 1 0-.64.64.64 0 0 0-.64.27 3.305 3.305 0 0 0-.596 1.145c-.275.806-.134 1.184-.134 1.184.112.103.244.182.387.233-.192-.143-.47-.524-.147-1.456Z" fill="#E0A075" style="mix-blend-mode:multiply" opacity=".7"/>
    <path d="M8 19.613c.496-.397 1.062-.368 1.091-.077.062-.104.133-.202.211-.294a.87.87 0 0 0-.64-.141 1.818 1.818 0 0 0-.752.467 2.192 2.192 0 0 0-.733.912.582.582 0 0 0 .125.32c-.073-.17.112-.714.698-1.187Z" fill="#E0A075" style="mix-blend-mode:multiply" opacity=".7"/>
    <path d="M8.26 18.925a.32.32 0 0 1 .098.32.96.96 0 0 1 .32-.147 1.452 1.452 0 0 0-.64-.717 1.846 1.846 0 0 0-.73.32c-.257.129-.489.306-.68.521a.764.764 0 0 0-.033.256c0 .066.008.132.023.196.019-.733 1.34-1.095 1.641-.75Z" fill="#E0A075" style="mix-blend-mode:multiply" opacity=".7"/>
    <path d="M11.462 19.84c.461-.051.39.08.756.217.364.138.53-.041.53-.041a.46.46 0 0 0 .151-.234c.045-.157.295-.025.285-.349-.01-.323-.022-.553-.451-.64a1.815 1.815 0 0 0-.618.023c-.125.022-.112-.061-.246-.256a.419.419 0 0 0-.58-.1c-.233.119-.259.177-.45.097-.193-.08-.733-.016-.813.348 0 .141.22.218.476.32.256.103.132.234.279.43.147.194.217.22.681.185Zm1.136-1.008c.32.025.487.125.532.422.044.298-.276.291-.375.106a.585.585 0 0 0-.544-.32c-.265-.016.003-.25.387-.224v.016Zm-1.76-.208c.148.083.208.102.343 0a.455.455 0 0 1 .761.17c.052.102.052.265-.044.143-.096-.121-.292-.284-.48-.204a.64.64 0 0 1-.51.067c-.172-.096-.22-.272-.07-.192v.016Zm-.102.669c-.038-.24-.096-.093-.467-.253s0-.407.185-.368c.186.038.292.281.34.265a.368.368 0 0 1 .32 0 .49.49 0 0 1 .156.288c.023.061.15-.048.32.032s.224.34.215.221a.286.286 0 0 1 .355-.278.496.496 0 0 1 .384.445c.106-.263.32-.196.32-.02.026.548-.611.407-.896.154-.285-.253-.39-.22-.506-.176-.467.18-.688-.083-.726-.326v.016Z" fill="#E5B48F" style="mix-blend-mode:multiply" opacity=".4"/>
    <path d="M12.48 19.59a.43.43 0 0 0-.32-.358c-.214-.032-.342.32-.176.243a.365.365 0 0 1 .451.106c.045.077.045.07.045.01ZM13.12 19.258c0-.157-.15-.538-.74-.368-.111.032-.054.07.106.067a.601.601 0 0 1 .448.272c.09.15.186.192.186.029ZM11.856 18.669a.397.397 0 0 0-.538-.131c-.118.083-.054.179.061.121a.566.566 0 0 1 .483.106c.087.077.093.029-.006-.096ZM10.278 18.704a.287.287 0 0 1 .384.17c.026.057.035.13-.025.044a.39.39 0 0 0-.34-.144c-.108.03-.086-.041-.019-.07ZM11.22 19.223c0-.145-.08-.32-.346-.282-.141.016-.15.176-.026.125a.288.288 0 0 1 .371.157ZM11.335 19.28a.32.32 0 0 1 .438.215c0 .048-.045.073-.106 0-.06-.074-.198-.256-.332-.215Z" fill="#FFE1C0" style="mix-blend-mode:screen" opacity=".5"/>
    <path d="M6.63 19.22c.192-.216.424-.393.682-.522.217-.159.466-.268.73-.32a.199.199 0 0 0 0-.183c-.032-.08-.701-1.309-.781-1.42-.08-.113-.128-.116-.128-.116a1.109 1.109 0 0 1-.237.074c-.144.025-.237.032-.237.032-.248.42-.376.898-.371 1.385.003.647.131 1.101.342 1.07Z" fill="#E55110"/>
    <path d="M6.63 19.22a2.27 2.27 0 0 1 .682-.522c.217-.159.466-.268.73-.32a.198.198 0 0 0 0-.183c0-.02-.058-.125-.132-.262a.359.359 0 0 1-.07.425 1.02 1.02 0 0 1-.566.227c-.64.026-.57-1.577-.365-1.69.109-.057.227.183.227.183-.051-.195.016-.32.176-.118.133.16.256.33.368.505-.18-.32-.355-.64-.394-.684-.076-.112-.128-.115-.128-.115a1.104 1.104 0 0 1-.236.073c-.144.026-.237.032-.237.032-.248.42-.376.899-.371 1.386-.023.64.105 1.094.316 1.062Z" fill="#E0A075" style="mix-blend-mode:multiply" opacity=".8"/>
    <path d="m7.555 18.509-.157-.42.228.391.073-.041-.243-.64.32.563a.376.376 0 0 0 .08-.083L7.68 17.9l.234.32a.145.145 0 0 0 0-.035l-.733-1.28c.008.125.03.25.064.371 0 0-.122-.166-.221-.272-.1-.106.16.896.438 1.507.004-.003.023.023.093-.003Z" fill="#E55110" style="mix-blend-mode:screen" opacity=".7"/>
    <path d="M7.146 16.666a7.81 7.81 0 0 0 .108-1.197 3.482 3.482 0 0 0-.32-1.245l-.13.038.028.423a3.206 3.206 0 0 0-.186-.368l-.128.048-.022-.087-.192.122-.032-.106-.093.055c-.016.302.01.604.077.9 0 0-.157-.257-.25-.4a.659.659 0 0 0-.163.082c.123.401.271.793.445 1.175.097.23.226.446.384.64 0 0 .093 0 .237-.032.08-.008.16-.024.237-.048Z" fill="#E55110"/>
    <path d="m6.854 14.243-.06.02.029.422c.14.38.235.777.281 1.18a4.394 4.394 0 0 0-.25-1.622ZM6.576 14.34l-.067.025c.151.466.258.945.32 1.43a4.8 4.8 0 0 0-.253-1.456ZM6.365 14.365l-.061.035c.158.418.289.845.39 1.28a6.33 6.33 0 0 0-.33-1.315ZM6.205 14.342c.026.563.17 1.115.422 1.62 0 0-.505-.42-.448-1.6l.026-.02Z" fill="#E0A075" style="mix-blend-mode:multiply"/>
    <path d="M6.909 16.74c.081-.016.16-.041.237-.074 0 0 .044-.24.073-.557 0 .121-.057.438-.179.518-.122.08-.64-.278-1.146-1.718l-.05.032c.122.4.27.793.444 1.174.097.23.226.446.384.64 0 0 .093.01.237-.016Z" fill="#E0A075" style="mix-blend-mode:multiply" opacity=".9"/>
    <path d="M6.256 14.4a5.93 5.93 0 0 0 .464 1.62c.32.524.426.489.477.146.05-.426.033-.858-.051-1.28a7.09 7.09 0 0 1-.032 1.223 4.24 4.24 0 0 0-.32-1.383s.25 1.117.17 1.514a2.333 2.333 0 0 1-.177-.704c-.01.155-.008.31.007.464a5.44 5.44 0 0 1-.538-1.6Z" fill="#E55110" style="mix-blend-mode:screen" opacity=".7"/>
    <path d="M6.63 19.22c.13-.154.287-.284.461-.385a.617.617 0 0 1-.656-.62 2.09 2.09 0 0 1 .416-1.466c-.06.011-.119.018-.179.022-.248.42-.376.899-.371 1.386-.01.64.118 1.094.33 1.062Z" fill="#E0A075" style="mix-blend-mode:multiply" opacity=".8"/>
    <path d="M11.2 12.362c-.16.204-.26.064-.49.153-.23.09-.269.147-.345.608-.077.461-.183.352-.416.67-.234.316-.103.524-.103.524.041.085.106.156.186.205.14.086-.051.294.26.368.31.073.537.128.722-.266.083-.19.132-.394.144-.601 0-.125.09-.093.32-.167.23-.073.298-.275.25-.531-.048-.256-.1-.294.032-.46.131-.167.211-.702-.115-.878-.125-.038-.266.154-.445.375Z" fill="#FFE1C0"/>
    <path d="M10.035 12.893c-.109.18-.054.32-.429.483a.339.339 0 0 0-.22.474c.111.196.275.358.473.467 0 0-.128-.211.103-.525.23-.313.339-.211.415-.669.064-.393.106-.496.26-.57a.699.699 0 0 0-.602.34Z" fill="#F3751E"/>
    <path d="M9.824 12.573c-.272.147-.32.585-.58.64a.37.37 0 0 1-.364-.17.563.563 0 0 0 .029.064c.32.704.476.74.476.74a.34.34 0 0 1 .215-.47c.374-.155.32-.305.429-.484a.746.746 0 0 1 .32-.285c-.157-.022-.32-.147-.525-.035Z" fill="#FFE7D2"/>
    <path d="M10.81 12.297a.396.396 0 0 0-.228.256h.055a.547.547 0 0 1 .086-.038c.23-.09.32.051.49-.154.17-.204.298-.412.438-.374a.138.138 0 0 0-.048-.093.538.538 0 0 0-.182-.083c-.326.07-.371.349-.611.486Z" fill="#FFE2CF"/>
    <path d="M8.787 12.025c-.099.34-.065.705.093 1.021a.372.372 0 0 0 .365.17c.269-.058.32-.496.579-.64.205-.112.368 0 .531.035a.579.579 0 0 1 .227-.054.397.397 0 0 1 .228-.256c.24-.128.284-.416.61-.487a3.763 3.763 0 0 0-1.522-.099c-1.028.106-1.11.31-1.11.31Z" fill="#F3751E"/>
    <path d="M10.56 11.584c-.138-.08-.199-.361-.483-.438-.285-.077-.519.172-.768.246-.25.074-.451-.118-.5-.387-.137.64-.08.96 0 1.02 0 0 .084-.204 1.111-.32.36-.042.724-.042 1.085 0-.186-.185-.327-.047-.445-.12Z" fill="#FFE7D2"/>
    <path d="M10.998 11.719c.213.012.42.072.605.176a.684.684 0 0 0 0-.544 1.13 1.13 0 0 1-.32.198c-.103.041-.2.098-.285.17Z" fill="#FFE2CF"/>
    <path d="M8.835 10.854c0 .052-.022.1-.035.15.048.27.214.474.5.388.284-.086.486-.32.767-.246.282.073.346.374.493.438.147.064.269-.077.432.131.096-.075.204-.132.32-.17.117-.047.225-.114.32-.198a.606.606 0 0 0-.112-.147 3.353 3.353 0 0 0-.94-.883c-.705-.483-1.108-.448-1.108-.448a1.491 1.491 0 0 0-.637.985Z" fill="#F3751E"/>
    <path d="M9.472 9.875s.403-.035 1.107.448c.102.07.198.141.282.208a.441.441 0 0 1-.036-.185c0-.195.017-.451-.23-.586-.246-.134-.557-.109-.576-.384 0-.185.275-.416.278-.419-.127.073-.249.156-.364.246-.653.528-.461.672-.461.672Z" fill="#FFE7D2"/>
    <path d="M11.318 10.62a.371.371 0 0 0-.364 0c.216.165.407.36.566.58a.912.912 0 0 0 .298-.502c-.164-.036-.298.031-.5-.077Z" fill="#FFE2CF"/>
    <path d="M10.02 9.376c.018.275.32.25.575.384.256.134.234.39.23.586a.441.441 0 0 0 .036.185l.093.074a.371.371 0 0 1 .364 0c.205.109.336.041.5.083a1.84 1.84 0 0 0-.246-.918 2.22 2.22 0 0 0-.689-.96s-.198-.074-.592.14c.003.01-.285.24-.272.426Z" fill="#F3751E"/>
    <path d="M10.88 8.816c.283.223.503.515.64.848a.208.208 0 0 1 .106-.118c.144-.077.121-.224.032-.32-.17-.199-.244-.32-.11-.51a.621.621 0 0 1 .477-.169 1.142 1.142 0 0 0-.48-.019c-.247.02-.481.121-.665.288Z" fill="#FFE7D2"/>
    <path d="M11.959 10.058a.445.445 0 0 0-.388-.285c.16.26.252.556.27.86.231-.02.453-.105.64-.246-.158-.147-.407-.064-.522-.33Z" fill="#FFE2CF"/>
    <path d="M11.549 8.704c-.135.189-.061.32.109.509.09.109.112.256-.032.32a.208.208 0 0 0-.106.118l.051.11a.445.445 0 0 1 .387.284c.116.266.365.176.5.32.082-.047.16-.103.23-.166a1.874 1.874 0 0 0-.109-.79 2.216 2.216 0 0 0-.32-.798.734.734 0 0 0-.237-.099.62.62 0 0 0-.473.192Z" fill="#F3751E"/>
    <path d="M10.314 14.227h.169l.077-.022.083-.036a.666.666 0 0 0 .077-.054h.02v-.02a.165.165 0 0 0 .031-.034l.03-.039.025-.045v-.022a.24.24 0 0 0 0-.045.43.43 0 0 0 .054-.15.58.58 0 0 0-.029-.199v-.044l.026.041a.699.699 0 0 1 .041.119.642.642 0 0 1 0 .083v.099a.214.214 0 0 1 0 .048v.026s0 .028-.025.044l-.032.045a.41.41 0 0 1-.035.042h-.02l-.019.016a.144.144 0 0 1-.045.032l-.041.025-.093.032h-.083a.563.563 0 0 1-.211.058Z" fill="#E5B48F"/>
    <path d="M10.726 13.555h.051a.352.352 0 0 0 .116-.048.267.267 0 0 0 .067-.05.458.458 0 0 0 .051-.078l.023-.044.019-.048v-.052a.121.121 0 0 1 .041-.048.496.496 0 0 1 .106-.044h.048a.102.102 0 0 0 .042-.023.205.205 0 0 0 .067-.06.24.24 0 0 0 .041-.074.552.552 0 0 0 .023-.067.177.177 0 0 0 0-.055.36.36 0 0 1-.02.131.285.285 0 0 1-.105.16l-.051.026H11.194a.643.643 0 0 0-.093.042.137.137 0 0 0-.052.076l-.022.052-.025.044a.336.336 0 0 1-.269.166l-.007-.006Z" fill="#E5B48F"/>
    <path d="M8.787 12.026c-.099.34-.065.704.093 1.02a.563.563 0 0 0 .029.064c.32.704.477.74.477.74.111.196.275.358.473.467 0 0-.128-.211.103-.525.23-.314.339-.211.416-.669.064-.393.105-.496.259-.57a.55.55 0 0 1 .086-.038c.23-.09.32.051.49-.153.17-.205.297-.413.438-.375a.137.137 0 0 0-.048-.093c-.073-.073-.675-.29-1.705-.182-1.03.109-1.11.314-1.11.314Zm.759.185c.361-.083 1.078.106.85.448-.089.135-.175.186-.143.381.041.262-.02.422-.163.49a.47.47 0 0 0-.224.278c-.215.46-.426.06-.458-.038 0 0-.186-.08-.397-.57-.211-.49-.109-.842.535-.989Z" fill="#EA9357" style="mix-blend-mode:multiply" opacity=".6"/>
    <path d="M8.835 10.854c0 .052-.022.1-.035.15-.138.64-.08.96 0 1.021 0 0 .083-.204 1.11-.32.36-.042.725-.042 1.085 0 .218.013.43.074.621.18a.64.64 0 0 0-.096-.685 3.354 3.354 0 0 0-.94-.883c-.705-.483-1.108-.448-1.108-.448a1.492 1.492 0 0 0-.637.985Zm.915-.41c.717.218 1.524 1.28.708 1.165-.935-.15-1.348.32-1.6.183-.253-.138-.036-1.632.892-1.347Z" fill="#EA9357" style="mix-blend-mode:multiply" opacity=".6"/>
    <path d="M9.472 9.875s.403-.035 1.107.448c.103.07.199.141.282.208.255.185.478.411.66.67a.883.883 0 0 0 .32-.574 1.84 1.84 0 0 0-.247-.848 2.22 2.22 0 0 0-.688-.96s-.199-.073-.592.141c-.128.073-.25.156-.365.247-.669.524-.477.668-.477.668Zm.531-.659c.34-.211.96.18 1.13.64.24.685.045.87-.173.682a3.486 3.486 0 0 0-1.184-.682c-.355-.093-.147-.41.227-.64Z" fill="#EA9357" style="mix-blend-mode:multiply" opacity=".6"/>
    <path d="M10.88 8.816c.283.223.503.515.64.848l.058.122c.155.257.245.548.262.848.325-.04.629-.184.864-.413a1.874 1.874 0 0 0-.109-.79 2.216 2.216 0 0 0-.32-.797.734.734 0 0 0-.237-.1 1.143 1.143 0 0 0-.48-.019c-.253.021-.492.127-.678.301Zm1.155.032c.384.528-.134 1.495-.355.96a3.815 3.815 0 0 0-.598-.915c-.202-.186.582-.573.963-.045h-.01Z" fill="#EA9357" style="mix-blend-mode:multiply" opacity=".6"/>
    <path d="M8.787 12.026a.922.922 0 0 0-.051.364c.025-.499 1.149-.736 1.7-.579.726.208.834.64.543.64-.23 0-.32.09-.32.09a.297.297 0 0 1 .048-.02c.23-.089.32.052.49-.153.17-.205.297-.413.438-.374a.137.137 0 0 0-.048-.093c-.073-.074-.675-.291-1.706-.183-1.03.11-1.094.308-1.094.308Z" fill="#E0A075" style="mix-blend-mode:multiply" opacity=".7"/>
    <path d="M10.58 10.429c.809.563.854.96.7 1.13a.483.483 0 0 1-.297.156c.217.012.43.074.62.18a.64.64 0 0 0-.083-.695 3.356 3.356 0 0 0-.94-.883c-.705-.483-1.108-.448-1.108-.448a1.092 1.092 0 0 0-.32.32c.173-.16.615-.323 1.427.24Z" fill="#E0A075" style="mix-blend-mode:multiply" opacity=".7"/>
    <path d="M11.52 9.85c.25.582.07 1.123-.217 1.072.078.087.151.18.217.278a.884.884 0 0 0 .32-.573 1.84 1.84 0 0 0-.246-.848 2.22 2.22 0 0 0-.688-.96.589.589 0 0 0-.35.035c.187-.025.66.301.964.995Z" fill="#E0A075" style="mix-blend-mode:multiply" opacity=".7"/>
    <path d="M12.106 10.282a.32.32 0 0 1-.32 0c.04.112.059.232.054.352.326-.038.63-.183.864-.413a1.87 1.87 0 0 0-.109-.79 2.212 2.212 0 0 0-.32-.797.732.732 0 0 0-.237-.1.857.857 0 0 0-.198-.032c.691.215.682 1.581.266 1.78Z" fill="#E0A075" style="mix-blend-mode:multiply" opacity=".7"/>
    <path d="M10.378 13.12c-.077.458-.183.352-.416.669-.234.316-.103.524-.103.524.041.085.105.156.186.205.14.087-.051.295.259.368.31.074.538.128.723-.265a1.76 1.76 0 0 0 .144-.602c0-.125.09-.093.32-.166.23-.074.298-.275.25-.531-.048-.256-.1-.295.032-.461.131-.167.211-.701-.115-.877-.141-.039-.272.153-.439.374-.166.221-.259.064-.49.154-.23.09-.275.15-.351.608Zm.662 1.366c-.112.32-.25.435-.547.397-.298-.038-.208-.342 0-.387a.582.582 0 0 0 .454-.439c.067-.252.224.07.093.432v-.003Zm.675-1.641c-.118.121-.153.172-.083.336a.454.454 0 0 1-.368.688c-.112.022-.272-.023-.128-.083.144-.061.355-.205.32-.41a.64.64 0 0 1 .074-.506c.121-.144.31-.144.185-.022v-.003Zm-.614-.276c.243.026.115-.067.368-.38.253-.314.393.102.304.275-.09.173-.349.205-.346.256a.364.364 0 0 1-.099.3.48.48 0 0 1-.32.074c-.06 0 0 .16-.118.32-.119.16-.388.122-.272.144a.286.286 0 0 1 .166.4.497.497 0 0 1-.528.25c.22.17.096.365-.074.32-.534-.122-.224-.698.093-.902.317-.205.32-.32.32-.442-.054-.496.263-.64.506-.611v-.004Z" fill="#E5B48F" style="mix-blend-mode:multiply" opacity=".4"/>
    <path d="M10.333 14.153a.423.423 0 0 0 .432-.22c.09-.199-.208-.413-.186-.234a.362.362 0 0 1-.224.403c-.086.032-.086.048-.022.051ZM10.477 14.864c.157.025.56 0 .557-.615 0-.115-.052-.07-.096.084a.596.596 0 0 1-.378.361c-.176.051-.243.141-.083.17ZM11.382 13.814a.397.397 0 0 0 .272-.483c-.044-.134-.156-.1-.134.029a.567.567 0 0 1-.23.435c-.09.06-.055.08.092.02ZM11.776 12.288a.288.288 0 0 1-.269.32c-.06 0-.134 0-.032-.038a.4.4 0 0 0 .228-.288c0-.122.06-.07.073.006ZM11.02 13.05c.135.054.32 0 .366-.253.022-.141-.128-.196-.112-.061a.286.286 0 0 1-.253.313ZM10.934 13.146a.318.318 0 0 1-.185.34.32.32 0 0 1-.135.027c-.045 0-.06-.063.035-.102.097-.038.292-.125.285-.265Z" fill="#FFE1C0" style="mix-blend-mode:screen" opacity=".5"/>
    <path d="M12.262 8.64c.158.242.267.513.32.797.093.252.13.522.11.79a.182.182 0 0 0 .169.058c.086 0 1.45-.32 1.577-.368.128-.048.148-.09.148-.09a1.074 1.074 0 0 1 0-.25c.006-.08.017-.16.032-.24a2.689 2.689 0 0 0-1.232-.729c-.624-.189-1.098-.189-1.123.032Z" fill="#E55110"/>
    <path d="M12.262 8.64c.158.242.267.513.32.797.093.252.13.522.11.79a.182.182 0 0 0 .169.058c.022 0 .134-.023.288-.055a.355.355 0 0 1-.387-.185.982.982 0 0 1-.068-.605c.144-.611 1.674-.122 1.722.106.029.121-.234.17-.234.17.202 0 .301.102.068.2a4.277 4.277 0 0 1-.573.193c.352-.083.7-.17.761-.192.128-.042.148-.09.148-.09a1.074 1.074 0 0 1 0-.25c.006-.08.017-.16.032-.24a2.689 2.689 0 0 0-1.232-.729c-.624-.189-1.098-.189-1.123.032Z" fill="#E0A075" style="mix-blend-mode:multiply" opacity=".8"/>
    <path d="m12.694 9.715.448-.038-.435.115c.004.028.01.056.02.083l.671-.067-.64.17c.023.044.042.076.058.102l.429-.083-.362.144h.032l1.424-.362a1.631 1.631 0 0 0-.378-.038s.196-.074.32-.141c.125-.067-.905-.086-1.568.016.01.013-.019.022-.019.1Z" fill="#E55110" style="mix-blend-mode:screen" opacity=".7"/>
    <path d="M14.582 9.82c.364.167.74.308 1.124.42.423.078.857.078 1.28 0v-.134l-.413-.087c.136-.017.27-.044.403-.08v-.134h.09l-.077-.208h.109l-.026-.103a3.322 3.322 0 0 0-.886-.17s.288-.08.45-.13a.787.787 0 0 0-.034-.183c-.42.01-.84.05-1.255.115-.251.03-.498.093-.732.19-.015.079-.026.159-.033.24a1.073 1.073 0 0 0 0 .265Z" fill="#E55110"/>
    <path d="M16.992 10.192v-.064l-.413-.086a5.202 5.202 0 0 1-1.216-.048 4.402 4.402 0 0 0 1.63.198ZM16.976 9.898v-.07a8 8 0 0 1-1.462-.084c.477.125.97.177 1.462.154ZM17.008 9.686l-.026-.067c-.443.038-.89.048-1.334.029.45.06.907.073 1.36.038ZM17.075 9.54a4.122 4.122 0 0 0-1.673-.033s.537-.37 1.664 0l.01.032Z" fill="#E0A075" style="mix-blend-mode:multiply"/>
    <path d="M14.576 9.571c-.01.083-.01.167 0 .25 0 0 .22.106.515.22-.112-.047-.403-.175-.448-.32-.045-.143.439-.537 1.965-.64 0 0 0-.047-.02-.06-.42.01-.838.05-1.254.115-.251.03-.498.093-.732.189a2.288 2.288 0 0 0-.026.246Z" fill="#E0A075" style="mix-blend-mode:multiply" opacity=".9"/>
    <path d="M17.008 9.571c-.56-.08-1.13-.08-1.69 0-.598.16-.598.285-.278.429.4.165.825.266 1.258.298a7.079 7.079 0 0 1-1.168-.359c.468.096.95.112 1.423.048 0 0-1.145-.064-1.504-.246.242-.03.487-.023.727.022a3.09 3.09 0 0 0-.454-.102 5.597 5.597 0 0 1 1.686-.09Z" fill="#E55110" style="mix-blend-mode:screen" opacity=".7"/>
    <path d="M12.262 8.64c.112.168.195.353.247.547a.616.616 0 0 1 .774-.464c.518.092.983.377 1.3.797 0-.112.025-.182.025-.182a2.689 2.689 0 0 0-1.232-.73c-.614-.189-1.088-.189-1.114.032Z" fill="#E0A075" style="mix-blend-mode:multiply" opacity=".8"/>
    <path d="M16.534 14.72c.25-.067.244.106.48.173.237.067.304.041.64-.275.336-.317.362-.173.736-.282.375-.109.397-.358.397-.358a.472.472 0 0 0-.022-.276c-.058-.153.217-.201.016-.45-.202-.25-.352-.426-.74-.225a1.92 1.92 0 0 0-.476.39c-.087.093-.125.023-.349-.054a.415.415 0 0 0-.522.272c-.115.234-.099.298-.32.352-.22.055-.572.413-.416.749.087.112.308.042.576-.016Z" fill="#FFE1C0"/>
    <path d="M17.789 14.992c.198-.077.246-.23.64-.125a.34.34 0 0 0 .451-.246 1.215 1.215 0 0 0-.096-.66s-.022.247-.397.359c-.374.112-.397-.039-.736.281-.288.272-.38.32-.55.298a.691.691 0 0 0 .688.093Z" fill="#F3751E"/>
    <path d="M17.766 15.36c.32.048.602-.278.852-.163a.374.374 0 0 1 .188.288c.176-.75.064-.877.064-.877a.34.34 0 0 1-.46.246c-.39-.105-.439.048-.64.125a.73.73 0 0 1-.426.032c.138.131.192.327.422.349Z" fill="#FFE7D2"/>
    <path d="M16.816 14.999a.403.403 0 0 0 .336-.068l-.045-.032-.093-.022c-.236-.067-.23-.24-.48-.173-.25.067-.49.144-.576.032a.144.144 0 0 0-.019.103c.02.064.05.124.093.176.307.14.515-.061.784-.016Z" fill="#FFE2CF"/>
    <path d="M18.262 16.435c.285-.21.48-.522.544-.87a.374.374 0 0 0-.188-.355c-.25-.116-.544.21-.852.163-.23-.035-.284-.23-.403-.349a.587.587 0 0 1-.211-.093.405.405 0 0 1-.336.067c-.269-.044-.477.157-.784.016a3.77 3.77 0 0 0 1.155.986c.887.55 1.075.435 1.075.435Z" fill="#F3751E"/>
    <path d="M16.592 15.725c.058.144-.06.406.119.64.179.233.518.176.764.269.247.092.285.367.16.61.496-.425.64-.72.64-.806 0 0-.188.116-1.075-.422a4.68 4.68 0 0 1-.88-.656c0 .26.215.227.272.365Z" fill="#FFE7D2"/>
    <path d="M16.32 15.36a1.432 1.432 0 0 1-.378-.509.692.692 0 0 0-.336.429c.124-.009.248 0 .368.026.112.037.229.055.346.054Z" fill="#FFE2CF"/>
    <path d="m17.517 17.341.118-.1c.125-.242.115-.508-.16-.61-.275-.103-.589-.036-.765-.27-.176-.233-.06-.492-.118-.64-.058-.146-.272-.102-.272-.36a1.052 1.052 0 0 1-.346-.055 1.314 1.314 0 0 0-.368-.026.501.501 0 0 0 0 .173c-.014.437.06.872.218 1.28.269.81.608 1.027.608 1.027a1.508 1.508 0 0 0 1.085-.419Z" fill="#F3751E"/>
    <path d="M16.416 17.738s-.34-.218-.608-1.027c-.042-.119-.074-.23-.102-.32a.464.464 0 0 1-.08.17c-.122.153-.288.348-.173.604.115.256.377.422.227.64-.102.154-.47.163-.474.163.146.022.294.03.442.023.841-.02.768-.253.768-.253Z" fill="#FFE7D2"/>
    <path d="M15.395 16.026a.365.365 0 0 0 .285.23 2.706 2.706 0 0 1-.09-.816.919.919 0 0 0-.544.22c.106.129.253.154.35.366Z" fill="#FFE2CF"/>
    <path d="M15.68 17.805c.15-.234-.109-.4-.227-.64-.119-.24.05-.451.173-.605a.466.466 0 0 0 .08-.17c0-.041-.02-.08-.026-.118a.364.364 0 0 1-.285-.23c-.096-.212-.243-.237-.349-.365l-.044.048a1.856 1.856 0 0 0-.32.825 2.22 2.22 0 0 0-.039 1.19s.112.177.557.244c.01-.016.378-.026.48-.18Z" fill="#F3751E"/>
    <path d="M14.65 17.725a2.089 2.089 0 0 1 0-1.06.211.211 0 0 1-.157.033c-.16-.03-.234.105-.224.246 0 .26 0 .403-.224.47a.64.64 0 0 1-.474-.134c.103.125.229.228.372.304.214.122.462.171.707.14Z" fill="#FFE7D2"/>
    <path d="M14.547 16.086a.445.445 0 0 0 .138.464c.038-.297.148-.58.32-.825a1.237 1.237 0 0 0-.656-.186c.013.189.269.269.198.547Z" fill="#FFE2CF"/>
    <path d="M14.054 17.415c.221-.068.237-.212.224-.47 0-.142.064-.276.224-.247.055.01.111-.001.157-.032 0-.039 0-.077.026-.115a.445.445 0 0 1-.138-.464c.07-.279-.186-.359-.202-.564a1.022 1.022 0 0 0-.281 0c-.178.2-.312.436-.39.692-.132.257-.21.537-.234.825.03.081.074.157.128.224a.641.641 0 0 0 .486.15Z" fill="#F3751E"/>
    <path d="m18.374 13.76-.035-.029-.045-.029-.054-.035-.077-.029-.086-.022a.45.45 0 0 0-.093 0H17.926a.224.224 0 0 0-.044 0h-.049l-.044.02h-.02l-.038.028a.446.446 0 0 0-.109.128.55.55 0 0 0-.05.112l-.017.045a.257.257 0 0 1 0-.048.571.571 0 0 1 .08-.195.346.346 0 0 1 .064-.074l.042-.032h.022l.048-.022h.051a.275.275 0 0 1 .055 0H18.07a.392.392 0 0 1 .093.028.43.43 0 0 1 .077.039.46.46 0 0 1 .134.115ZM17.639 14.045l-.039-.022a.347.347 0 0 0-.125-.032.242.242 0 0 0-.083 0 .229.229 0 0 0-.086.028l-.048.023-.042.025H17.165a.103.103 0 0 1-.06 0 .322.322 0 0 1-.113-.025l-.032.038h-.07a.3.3 0 0 0-.167.042l-.057.041c-.02 0-.032.03-.045.039l-.035.035.029-.042a.537.537 0 0 1 .096-.093.29.29 0 0 1 .182-.06h.106c.032.011.065.019.099.022.032.001.064-.01.09-.029l.047-.025.045-.026a.319.319 0 0 1 .189-.02.335.335 0 0 1 .125.049l.044.032Z" fill="#E5B48F"/>
    <path d="M18.262 16.435c.285-.21.48-.522.544-.87a.685.685 0 0 1 0-.068c.176-.748.064-.876.064-.876a1.216 1.216 0 0 0-.096-.66s-.022.247-.396.359c-.375.112-.397-.039-.736.281-.288.272-.381.32-.55.298l-.094-.022c-.236-.068-.23-.24-.48-.173-.25.067-.49.144-.576.032a.144.144 0 0 0-.019.102c0 .103.362.64 1.248 1.175.887.534 1.091.422 1.091.422Zm-.492-.605c-.337-.153-.797-.736-.407-.87.154-.055.25-.042.346-.218.125-.233.268-.32.425-.291a.486.486 0 0 0 .346-.086c.448-.237.378.208.34.32 0 0 .102.176-.03.69-.13.516-.419.727-1.02.455Z" fill="#EA9357" style="mix-blend-mode:multiply" opacity=".6"/>
    <path d="m17.517 17.341.118-.1c.496-.425.64-.72.64-.806 0 0-.189.116-1.075-.422a4.681 4.681 0 0 1-.88-.653 1.452 1.452 0 0 1-.387-.518.656.656 0 0 0-.35.601c-.014.437.06.873.219 1.28.268.81.608 1.028.608 1.028a1.508 1.508 0 0 0 1.107-.41Zm-.976-.227c-.442-.608-.432-1.952.14-1.354.64.682 1.258.567 1.383.82.125.252-.957 1.321-1.523.534Z" fill="#EA9357" style="mix-blend-mode:multiply" opacity=".6"/>
    <path d="M16.416 17.738s-.34-.218-.608-1.027c-.042-.119-.074-.23-.102-.32a2.88 2.88 0 0 1-.116-.935.87.87 0 0 0-.588.269 1.856 1.856 0 0 0-.32.825 2.22 2.22 0 0 0-.039 1.19s.112.177.557.244c.146.022.294.03.442.022.848-.035.774-.268.774-.268Zm-.82.201c-.4-.035-.662-.726-.514-1.187.22-.694.49-.723.55-.441.092.45.272.88.531 1.26.227.285-.131.41-.566.368Z" fill="#EA9357" style="mix-blend-mode:multiply" opacity=".6"/>
    <path d="M14.65 17.725a2.091 2.091 0 0 1 0-1.06c0-.041 0-.086.028-.13.039-.298.149-.581.32-.826-.278-.16-.6-.226-.918-.19-.178.2-.312.436-.39.692a2.209 2.209 0 0 0-.25.829c.03.08.074.156.128.224.102.125.228.228.371.304.213.128.463.183.71.157Zm-.89-.727c0-.64 1.011-1.107.867-.553a3.738 3.738 0 0 0-.074 1.09c.026.273-.822.116-.793-.537Z" fill="#EA9357" style="mix-blend-mode:multiply" opacity=".6"/>
    <path d="M18.262 16.435a.96.96 0 0 0 .263-.259c-.32.384-1.36-.105-1.706-.566-.451-.602-.275-1.018-.051-.832.224.185.298.112.298.112h-.052c-.236-.068-.23-.24-.48-.173-.25.067-.49.144-.576.032a.144.144 0 0 0-.019.102c0 .103.362.64 1.248 1.175.887.534 1.075.41 1.075.41Z" fill="#E0A075" style="mix-blend-mode:multiply" opacity=".7"/>
    <path d="M15.872 16.64c-.32-.937-.106-1.28.121-1.325a.502.502 0 0 1 .327.045 1.452 1.452 0 0 1-.387-.518.656.656 0 0 0-.35.601c-.014.437.06.873.219 1.28.268.81.608 1.028.608 1.028.15.014.303-.003.448-.048-.218 0-.682-.138-.986-1.063Z" fill="#E0A075" style="mix-blend-mode:multiply" opacity=".7"/>
    <path d="M14.778 16.525c.153-.615.62-.938.822-.723a2.14 2.14 0 0 1 0-.362.871.871 0 0 0-.589.269 1.857 1.857 0 0 0-.32.825c-.12.386-.134.798-.038 1.19.079.09.182.154.297.183-.179-.105-.355-.653-.172-1.382Z" fill="#E0A075" style="mix-blend-mode:multiply" opacity=".7"/>
    <path d="M14.566 15.82a.32.32 0 0 1 .272.2.983.983 0 0 1 .164-.32 1.462 1.462 0 0 0-.922-.18c-.178.2-.312.435-.39.691a2.21 2.21 0 0 0-.25.83.83.83 0 0 0 .128.223c.042.051.088.1.138.144-.426-.595.41-1.68.86-1.587Z" fill="#E0A075" style="mix-blend-mode:multiply" opacity=".7"/>
    <path d="M17.658 14.601c.339-.32.361-.172.736-.281.374-.109.396-.359.396-.359a.472.472 0 0 0-.022-.275c-.058-.153.218-.201.016-.45-.202-.25-.352-.427-.74-.225a1.92 1.92 0 0 0-.476.39c-.086.093-.125.023-.349-.054a.416.416 0 0 0-.521.272c-.116.234-.1.298-.32.352-.221.054-.576.429-.42.765.087.112.32.041.576-.032.256-.074.244.105.48.173.237.067.304.041.644-.276Zm.297-1.481c.275-.18.464-.195.679.016.214.211-.045.4-.234.32a.591.591 0 0 0-.64.074c-.198.14-.128-.208.195-.41Zm-1.53.9c.17-.027.228-.046.27-.215a.454.454 0 0 1 .71-.32c.102.05.201.182.048.144-.154-.039-.403-.051-.506.125-.102.176-.185.32-.365.361-.179.042-.323-.08-.156-.106v.01Zm.32.591c-.175-.166-.13-.016-.521.083-.39.1-.256-.32-.077-.406.18-.087.403.048.429 0a.388.388 0 0 1 .26-.183c.118.009.231.057.32.138.05.032.089-.131.284-.18.195-.047.38.135.304.049a.286.286 0 0 1 .109-.42.49.49 0 0 1 .57.122c-.074-.272.143-.348.255-.214.35.42-.243.691-.62.662-.378-.029-.445.061-.512.167-.266.419-.621.342-.797.172l-.003.01Z" fill="#E5B48F" style="mix-blend-mode:multiply" opacity=".4"/>
    <path d="M18.317 13.805a.425.425 0 0 0-.477-.083c-.192.105-.083.454 0 .3a.359.359 0 0 1 .422-.188c.096.025.103.013.055-.03ZM18.63 13.152c-.108-.115-.444-.336-.813.154-.07.093 0 .09.125 0a.602.602 0 0 1 .522-.055c.17.052.278.02.166-.099ZM17.28 13.44a.403.403 0 0 0-.509.224c-.044.134.064.176.122.058a.573.573 0 0 1 .448-.208c.112.01.09-.032-.06-.074ZM16.038 14.422a.289.289 0 0 1 .41-.096c.054.032.106.083 0 .051a.384.384 0 0 0-.355.093c-.067.087-.093.02-.055-.048ZM17.1 14.269c-.073-.125-.252-.202-.444-.016-.102.096 0 .23.054.115a.288.288 0 0 1 .39-.099ZM17.229 14.243a.319.319 0 0 1 .48-.096c.025.042 0 .09-.09.06-.09-.028-.31-.076-.39.036Z" fill="#FFE1C0" style="mix-blend-mode:screen" opacity=".5"/>
    <path d="M13.44 17.04c.022-.289.1-.57.23-.829.085-.258.225-.493.41-.691a.193.193 0 0 0-.1-.15c-.089-.045-1.366-.618-1.5-.65-.134-.032-.173 0-.173 0a.962.962 0 0 1-.144.201c-.053.06-.11.117-.17.17.058.484.246.943.545 1.328.38.49.755.774.902.62Z" fill="#E55110"/>
    <path d="M13.466 17.165c.022-.287.099-.568.227-.826a1.92 1.92 0 0 1 .387-.694.195.195 0 0 0-.1-.15c-.018 0-.12-.064-.265-.128a.348.348 0 0 1 .202.38.986.986 0 0 1-.32.522c-.477.403-1.399-.909-1.303-1.123.055-.112.292 0 .292 0-.16-.125-.18-.263.067-.202.196.053.388.118.576.195-.32-.147-.662-.288-.726-.32-.129-.041-.173 0-.173 0-.04.074-.088.143-.144.205-.1.106-.17.17-.17.17.057.483.245.94.544 1.324.378.519.752.8.906.647Z" fill="#E0A075" style="mix-blend-mode:multiply" opacity=".8"/>
    <path d="m13.76 15.917-.387-.237.419.176.032-.08-.576-.352.608.246a.569.569 0 0 0 0-.115l-.378-.195.375.102a.077.077 0 0 0 0-.029l-1.373-.576c.083.097.176.184.278.26a2.662 2.662 0 0 0-.339-.077c-.1-.016.669.614 1.26.931 0-.003.03.006.08-.054Z" fill="#E55110" style="mix-blend-mode:screen" opacity=".7"/>
    <path d="M12.31 14.694a7.931 7.931 0 0 0-.64-1.02 3.496 3.496 0 0 0-1.014-.79l-.08.108.275.32a3.04 3.04 0 0 0-.365-.192l-.073.112-.07-.054-.065.214-.092-.06-.042.095c.171.251.376.477.608.672 0 0-.278-.112-.442-.17a.725.725 0 0 0-.08.164c.34.247.696.47 1.066.669.219.129.455.227.7.29.06-.053.117-.11.17-.169a.955.955 0 0 0 .144-.188Z" fill="#E55110"/>
    <path d="m10.614 12.94-.035.052.275.32c.343.218.66.476.941.768a4.44 4.44 0 0 0-1.18-1.14ZM10.451 13.184l-.038.06c.4.286.773.607 1.113.96a4.86 4.86 0 0 0-1.075-1.02ZM10.297 13.335l-.019.07c.376.237.736.498 1.079.78a6.235 6.235 0 0 0-1.06-.85ZM10.157 13.411c.362.433.81.786 1.315 1.037 0 0-.656-.029-1.328-1.008l.013-.029Z" fill="#E0A075" style="mix-blend-mode:multiply"/>
    <path d="M12.16 14.896a.962.962 0 0 0 .144-.202s-.112-.217-.275-.49c.06.106.214.385.17.522-.046.138-.68.164-1.96-.675l-.022.055c.34.247.696.47 1.066.668.219.13.455.228.7.292.063-.054.121-.11.177-.17Z" fill="#E0A075" style="mix-blend-mode:multiply" opacity=".9"/>
    <path d="M10.24 13.44c.4.399.855.74 1.35 1.011.557.237.64.134.468-.17a4.065 4.065 0 0 0-.823-1.001c.266.31.505.641.714.992a4.23 4.23 0 0 0-1.104-.896s.873.742 1.05 1.104a2.275 2.275 0 0 1-.567-.455c.091.126.192.245.3.356a5.53 5.53 0 0 1-1.388-.941Z" fill="#E55110" style="mix-blend-mode:screen" opacity=".7"/>
    <path d="M13.44 17.04c.013-.201.058-.4.135-.586a.614.614 0 0 1-.896-.099 2.077 2.077 0 0 1-.554-1.418l-.131.129c.057.483.245.943.544 1.327.38.516.755.8.902.647Z" fill="#E0A075" style="mix-blend-mode:multiply" opacity=".8"/>
  </g>
  <defs>
    <clipPath id="a">
      <path fill="#fff" d="M0 0h32v32H0z"/>
    </clipPath>
  </defs>
</svg>
