<svg width="32" height="32" fill="none" xmlns="http://www.w3.org/2000/svg">
  <g clip-path="url(#a)">
    <path d="M32 16a16 16 0 1 1-32 0 16 16 0 0 1 32 0Z" fill="#F4F4F4"/>
    <path d="M16 1.088a14.915 14.915 0 0 1 5.805 28.653 14.917 14.917 0 0 1-11.61-27.482A14.826 14.826 0 0 1 16 1.088Zm0-.371a15.283 15.283 0 1 0 0 30.566A15.283 15.283 0 0 0 16 .717Z" fill="#006EC3"/>
    <path d="M16 1.6a14.4 14.4 0 0 1 5.603 27.661 14.4 14.4 0 0 1-11.2-26.525A14.317 14.317 0 0 1 16 1.6Zm0-.147a14.54 14.54 0 1 0 13.435 8.982A14.538 14.538 0 0 0 16 1.46v-.007Z" fill="#006EC3"/>
    <path d="M26.992 16a10.992 10.992 0 1 1-21.984 0 10.992 10.992 0 0 1 21.984 0Z" fill="#DADADA"/>
    <path d="M26.81 16.054a10.757 10.757 0 1 1-21.515.007 10.757 10.757 0 0 1 21.514-.007Z" fill="#F4F4F4"/>
    <path d="M27.629 16.24c-.42-.144-.903.13-1.229.365-.43.32-.827.684-1.18 1.087-.362.388-.782.701-1.169 1.06a6.782 6.782 0 0 1-.566.544.301.301 0 0 1-.176-.074c-.163-.14-.032-.608 0-.774.103-.284.133-.589.086-.887-.211-.697-1.184 0-1.51.247-.327.246-.586.665-.96.69-.375.026-.509-.425-.519-.729 0-.502.247-.96.42-1.424.27-.767.634-1.5 1.081-2.179.207-.243.366-.523.467-.825a.786.786 0 0 0-.617-.99c-.426-.083-.896.285-1.175.551-.303.31-.554.668-.742 1.06-.198.394-.375.799-.531 1.212-.077.189-.157.375-.243.56a4.349 4.349 0 0 0-.205.64.572.572 0 0 1-.39.4c-.32.077-.32-.445-.32-.611.06-.463.166-.919.32-1.36.118-.41.243-.816.393-1.213.15-.397.336-.79.49-1.2.128-.32.582-1.6-.061-1.706-.643-.105-1.146.8-1.482 1.226-.512.7-.953 1.451-1.315 2.24a7.027 7.027 0 0 1-.438.752l-.106.147a9.432 9.432 0 0 1-.32.39c-.06.071-.125.132-.192.196.06-.058 0 0-.06.026l-.055-.02a.183.183 0 0 0-.039-.05.713.713 0 0 1-.105-.247 2.24 2.24 0 0 1 .09-1.175c.14-.35.239-.717.294-1.09 0-.219.121-.548 0-.747-.17-.32-1.306 1.62-1.402 1.796-.55 1.02-1.062 2.05-1.894 2.88-.125.125-.378.384-.57.396-.368.026-.477-.524-.496-.78a3.728 3.728 0 0 1 .147-1.159c.26-.828.59-1.633.983-2.406.313-.707.787-1.315 1.107-1.99.173-.346.394-1.117-.115-1.28a1.05 1.05 0 0 0-.826.24 3.487 3.487 0 0 0-.806.742 9.036 9.036 0 0 0-1.171 2.013c-.445.941-.807 1.92-1.082 2.925-.1.364-.08.752-.186 1.116-.048.154-.29.64-.496.586-.259-.083-.067-.749-.035-.925.071-.36.192-.71.359-1.037.092-.182.796-1.11.585-1.312-.211-.201-.96.23-1.091.378-.502.5-.934 1.424-1.347 1.994-.247.339-.666.831-1.127.547-.46-.285-.483-1.056-.342-1.508.24-.764.992-1.216 1.622-1.635.442-.29 1.575-.864 1.6-1.494.026-.63-.96-.17-1.219-.029a6.249 6.249 0 0 0-1.965 1.898c-.473.675-.896 1.504-.832 2.352.045.604.432 1.34 1.146 1.216.813-.144 1.312-1.188 1.693-1.815.239-.41.504-.806.793-1.184.125-.16.42-.588.64-.608.468-.045-.265 1.008-.361 1.175-.359.601-1.101 1.6-.903 2.352.167.62.855.374 1.2.06.522-.473.692-1.196.836-1.859.364-1.686.64-3.424 1.766-4.8.173-.21.72-.976 1.056-.813.336.164-.163.717-.288.887-.313.452-.593.925-.838 1.418a9.58 9.58 0 0 0-1.06 2.748c-.134.71-.32 2.01.464 2.432.73.39 1.37-.477 1.767-.953.521-.64.816-1.434 1.206-2.154-.25.704-.291 1.546.183 2.154.297.384.883.284 1.28.137.434-.211.81-.527 1.094-.918.554-.669.794-1.517 1.03-2.336.11-.387.212-.774.34-1.155.14-.4.333-.777.576-1.123.094-.151.213-.286.352-.397.297-.224.384.134.396.345a3.223 3.223 0 0 1-.348 1.3c-.326.798-.6 1.617-.82 2.45-.087.36-.152.724-.195 1.092a.679.679 0 0 0 .288.697c.451.279.989-.262 1.28-.563.418-.459.77-.973 1.047-1.53.08-.153.108-.32.201-.48.093-.16.32-.29.349.017-.017.21-.068.415-.15.608a6.087 6.087 0 0 1-.27.96c-.154.403-.286.814-.396 1.232-.15.56-.5 1.561.32 1.82.371.122.768-.124 1.072-.32.192-.115.384-.233.57-.361.094-.067.194-.127.297-.18 0 .052-.029.1-.038.142a2.929 2.929 0 0 0-.067.495c-.045.287.005.58.14.836.34.518 1.021.25 1.44 0 1.085-.64 1.764-1.847 2.88-2.487.164-.083.119.362.192.42.58.45 1.402-1.05.503-1.357Z" fill="#EBEAEA" style="mix-blend-mode:multiply"/>
    <path d="M26.608 18.269a.99.99 0 0 0-.346.525.337.337 0 0 0 .08.281l.042.029a.173.173 0 0 0 .14.054.93.93 0 0 0 .522-.185l.077-.07a1.2 1.2 0 0 0 .042-.036.777.777 0 0 0 .14-.224.378.378 0 0 0-.089-.422.435.435 0 0 0-.608.048ZM26.026 19.478a.269.269 0 0 0-.061 0 .29.29 0 0 0-.176.058.376.376 0 0 0-.144.23.215.215 0 0 0 0 .064v.052c.01.023.03.043.054.054.015.01.03.02.048.026a.285.285 0 0 0 .3-.087.32.32 0 0 0 .078-.233.185.185 0 0 0-.055-.116.112.112 0 0 0-.044-.048Z" fill="#EBEAEA" style="mix-blend-mode:multiply"/>
    <path opacity=".6" d="M27.478 16.176c-.419-.144-.902.128-1.232.362-.429.321-.825.686-1.18 1.088-.359.39-.778.7-1.168 1.062a6.34 6.34 0 0 1-.567.544.32.32 0 0 1-.176-.074c-.163-.144-.032-.608 0-.774.1-.284.13-.589.083-.886-.21-.701-1.18 0-1.507.246-.326.246-.589.662-.979.688-.39.026-.506-.426-.515-.726 0-.506.246-.96.419-1.424.27-.769.632-1.502 1.078-2.183.208-.243.368-.523.47-.825a.787.787 0 0 0-.62-.986c-.426-.086-.896.282-1.174.55-.3.31-.55.667-.736 1.056-.205.394-.365.804-.532 1.213-.076.189-.156.378-.243.563a4.765 4.765 0 0 0-.205.64.566.566 0 0 1-.39.397c-.32.08-.32-.441-.32-.611.058-.462.165-.917.32-1.357.122-.41.243-.816.394-1.216.15-.4.358-.79.512-1.193.124-.32.579-1.6-.061-1.71-.64-.108-1.155.8-1.491 1.22-.51.701-.95 1.452-1.312 2.24-.093.18-.19.355-.292.525-.048.08-.099.153-.15.23 0 0-.118.167-.102.147-.106.132-.212.263-.32.39-.061.068-.128.132-.196.196.061-.058 0-.016-.06.026l-.052-.02a.19.19 0 0 0-.041-.05.666.666 0 0 1-.103-.25 2.211 2.211 0 0 1 .087-1.172c.14-.35.239-.717.294-1.09.016-.218.125-.548.016-.75-.17-.32-1.305 1.623-1.398 1.796-.55 1.02-1.066 2.054-1.895 2.88-.128.124-.38.384-.57.396-.367.026-.476-.524-.498-.784-.016-.393.03-.785.134-1.164.26-.828.59-1.633.982-2.407.301-.691.775-1.302 1.11-1.977.174-.343.391-1.117-.114-1.28a1.06 1.06 0 0 0-.826.24 3.642 3.642 0 0 0-.81.742 9.02 9.02 0 0 0-1.168 2.013 18.456 18.456 0 0 0-1.084 2.925c-.096.368-.077.755-.186 1.116-.048.154-.291.64-.493.59-.262-.084-.07-.75-.035-.926.075-.365.205-.716.384-1.043.093-.182.794-1.113.582-1.315-.21-.202-1.078.534-1.222.678-.502.503-.816 1.127-1.229 1.693-.25.343-.665.835-1.13.55-.463-.284-.495-1.043-.348-1.5.24-.765.989-1.22 1.619-1.635.442-.295 1.574-.868 1.6-1.498.026-.63-.96-.17-1.222-.026a6.236 6.236 0 0 0-1.965 1.895c-.47.678-.896 1.504-.832 2.355.045.605.435 1.34 1.149 1.213.81-.144 1.308-1.187 1.69-1.811.239-.412.504-.809.793-1.188.128-.156.422-.588.64-.608.47-.041-.263 1.008-.362 1.175-.358.605-1.1 1.6-.899 2.352.163.624.851.374 1.197.06.525-.473.691-1.196.835-1.855.368-1.69.64-3.424 1.77-4.8.17-.212.716-.96 1.056-.81.339.15-.167.717-.292.886-.312.453-.592.927-.838 1.418a9.651 9.651 0 0 0-1.03 2.752c-.135.71-.32 2.01.464 2.432.707.38 1.353-.474 1.74-.96.519-.64.816-1.434 1.207-2.154-.253.708-.295 1.546.179 2.154.3.387.886.288 1.28.14a2.987 2.987 0 0 0 1.094-.911c.554-.669.794-1.52 1.03-2.336.113-.387.215-.775.343-1.159.14-.398.332-.776.573-1.123.094-.153.213-.29.352-.403.294-.227.38.134.394.346a3.199 3.199 0 0 1-.35 1.296c-.322.799-.594 1.617-.815 2.45-.09.36-.156.726-.195 1.095a.669.669 0 0 0 .284.698c.455.275.99-.266 1.28-.563.419-.46.772-.974 1.05-1.53.077-.154.109-.32.202-.48.092-.16.32-.291.345 0a2.006 2.006 0 0 1-.131.592 5.883 5.883 0 0 1-.272.96c-.163.404-.302.818-.416 1.238-.15.56-.5 1.559.3 1.821.372.122.772-.128 1.076-.32.192-.112.384-.233.566-.358.095-.066.194-.124.298-.173 0 .051-.029.102-.038.14-.04.165-.063.332-.07.5-.044.287.006.58.143.835.765 1.171 2.503-.854 3.008-1.411.264-.294.565-.553.896-.768.08-.051.247-.211.41-.32.166-.083.121.358.195.42.608.476 1.434-1.025.534-1.332Z" fill="#A96A26"/>
    <path opacity=".4" d="M27.066 18.154a.441.441 0 0 0-.608.048c-.169.133-.29.317-.346.525a.32.32 0 0 0 .08.281l.042.032a.157.157 0 0 0 .14.052.928.928 0 0 0 .506-.186l.077-.067c-.061.057-.048.045.045-.039a.66.66 0 0 0 .137-.22.381.381 0 0 0-.073-.426ZM25.936 19.453a.112.112 0 0 0-.064-.038.252.252 0 0 0-.058 0 .285.285 0 0 0-.176.06.35.35 0 0 0-.144.23.13.13 0 0 0 0 .062.353.353 0 0 0 0 .054.14.14 0 0 0 .052.054c.014.012.03.02.047.026a.288.288 0 0 0 .301-.09.32.32 0 0 0 .08-.23.205.205 0 0 0-.038-.128Z" fill="#A96A26"/>
    <g style="mix-blend-mode:screen">
      <path d="M8.557 12.208a3.737 3.737 0 0 0-1.517.694 5.883 5.883 0 0 0-1.21 1.386c-.028.045.023.067.055.035.182-.186.336-.4.518-.589.203-.213.416-.415.64-.605a7.259 7.259 0 0 1 1.501-.892s.032-.036.013-.03ZM5.894 17.479a.86.86 0 0 1-.64-.346 1.225 1.225 0 0 1-.262-.742H4.97c-.045.537.256 1.228.89 1.164.05.004.086-.07.034-.076ZM8.938 17.545c-.186.128-.522.281-.73.118 0 0-.026 0-.02.02a.32.32 0 0 0 .372.172.838.838 0 0 0 .42-.256c.028-.035 0-.083-.042-.054ZM15.158 15.727c-.96-.05.119-2.49.144-2.966 0-.016-.022 0-.022 0-.119.368-.26.728-.426 1.078-.119.295-.207.602-.262.916-.045.348-.016 1.177.554 1.024.019-.004.048-.052.012-.052ZM16.474 15.68a2.668 2.668 0 0 1-.701.665c-.045.039-.029.11.032.07.313-.153.561-.414.698-.735h-.03ZM21.741 12.48c-.426-.173-.778.064-1.104.32v.032c.226-.147.489-.227.758-.23.32.015.493.441.464.7 0 .039.042.03.055 0 .134-.23.14-.7-.173-.822ZM21.66 13.715c-.028.044-.06.083-.089.128-.029.044 0 .07.023.07a.073.073 0 0 0 .073-.064v-.134c0-.045 0-.01-.006 0ZM23.6 19.399c-.32.121-.685.259-.922-.084-.175-.256-.13-.64-.147-.96-.064.416-.195.817.093 1.175.288.358.746.134 1.018-.067.038-.013.038-.09-.042-.064ZM26.906 18.269a.138.138 0 0 0-.135-.096.432.432 0 0 0-.281.157c-.061.064-.176.208-.112.304a.198.198 0 0 0 .041.102c.067.087.202 0 .266-.035a.643.643 0 0 0 .106-.102l.044-.061c-.029.05.026-.035.026-.035a.247.247 0 0 0 .045-.234ZM25.738 19.459a.086.086 0 0 0-.064.045c0 .022-.026.064 0 .083.038.035.083 0 .102-.045.02-.045.016-.096-.038-.083ZM27.43 16.73a.182.182 0 0 0-.22 0 .361.361 0 0 0-.173.246.16.16 0 0 0 .029.14l.057.036a.134.134 0 0 0 .131 0 .384.384 0 0 0 .167-.16.237.237 0 0 0 .01-.262Z" fill="#fff" style="mix-blend-mode:screen" opacity=".4"/>
    </g>
    <path opacity=".4" d="M7.274 13.315c-.077 0-.15.15-.058.15.093 0 .144-.15.058-.15ZM7.907 12.91c-.057 0-.112.108-.041.108.07 0 .108-.109.041-.109ZM5.86 14.454c-.03 0-.062.064-.023.064.038 0 .064-.064.022-.064ZM5.44 15.424c-.02-.016-.045 0-.054.019v.016c-.02.029 0 .05.038.032 0 0 .042-.048.016-.067ZM6.614 17.261c-.048-.045-.112.029-.121.074a.042.042 0 0 0 .031.044.041.041 0 0 0 .02 0c.054 0 .118-.073.07-.118ZM6.1 17.424c-.023 0-.046.048 0 .048.044 0 .031-.048 0-.048ZM9.18 17.299c-.034 0-.07.07-.025.07.045 0 .07-.07.026-.07ZM9.456 16.26a.083.083 0 0 0-.051.047c0 .039.019.061.054.048a.077.077 0 0 0 .048-.08c-.006-.029-.032-.029-.051-.016ZM13.21 10.746a.045.045 0 0 0 .054-.02c.074-.09-.128-.032-.054.02ZM13.149 10.064a.042.042 0 0 0-.045.016.028.028 0 0 0 0 .032c.016.035.06 0 .07-.022.01-.023-.01-.02-.025-.026ZM11.651 17.459c-.057 0-.115.118-.041.118.073 0 .118-.118.041-.118ZM11.005 17.45c-.042 0-.087.082-.029.082.058 0 .083-.083.029-.083ZM16.458 15.251c-.023-.019-.058 0-.074.016h-.016c0 .016-.032.055 0 .077s.058 0 .077 0v-.016a.054.054 0 0 0 .022-.057.055.055 0 0 0-.01-.02ZM15.36 16.368c-.054 0-.109.109-.038.109.07 0 .115-.109.038-.109ZM14.48 16.17c-.042 0-.08.08-.029.08.051 0 .077-.08.03-.08ZM14.493 15.734c-.039 0-.074.07-.026.07s.07-.07.026-.07ZM14.63 16.8a.03.03 0 0 0-.017-.006.03.03 0 0 0-.018.006c-.02.022-.02.07.02.06.038-.009.054-.044.015-.06ZM18.035 11.664c-.032 0-.06.064-.022.064s.064-.064.022-.064ZM17.721 12.27c-.015-.043-.09 0-.08.044a.045.045 0 0 0 .039.038c.041.003.08-.07.041-.083ZM19.626 15.6a.022.022 0 0 0-.023-.019c-.032-.022-.067-.022-.057.058h.022c.08.041.08-.007.058-.039ZM19.127 15.571c-.055 0-.11.11-.039.11.07 0 .112-.11.038-.11ZM20.845 13.523c-.042 0-.08.077-.029.077.051 0 .077-.077.029-.077ZM21.376 13.098c-.054 0-.102.102-.038.102s.102-.102.038-.102ZM21.216 14.429c-.045 0-.086.086-.032.086.054 0 .086-.086.032-.086ZM21.418 18.439c-.048 0-.093.08-.048.096.044.016.102 0 .092-.055a.042.042 0 0 0-.027-.04.042.042 0 0 0-.017-.001ZM20.822 18.56c-.019-.016-.048 0-.064 0 0 .016-.028.048 0 .064.03.016.048 0 .068 0 .006-.01.01-.021.01-.033a.052.052 0 0 0-.014-.031ZM22.842 18.56c-.048 0-.096.096-.036.096.061 0 .093-.096.036-.096ZM23.162 19.334c-.026 0-.048.045-.02.045.03 0 .048-.045.02-.045ZM25.088 18.06c-.042 0-.087.087-.032.087.054 0 .086-.086.032-.086ZM24.503 18.56c-.036 0-.07.07-.026.07.045 0 .07-.07.026-.07ZM26.131 17.126c-.05 0-.102.102-.038.102s.102-.102.038-.102ZM26.707 16.47c0 .029.035 0 .035 0 0-.035-.035-.022-.035 0ZM26.58 18.88c0 .028.054 0 .057-.02.022-.076-.077-.048-.058.02ZM27.029 18.534s-.026.025 0 .025c.025 0 .018-.025 0-.025ZM25.789 19.561c-.051 0-.103.103-.035.103.067 0 .099-.103.035-.103ZM9.862 14.918h-.038c0 .022 0 .054.026.048.025-.006.035-.026.012-.048ZM10.041 13.82c-.041 0-.086.087-.028.087.057 0 .083-.087.028-.087ZM7.747 15.616c0-.032-.054 0-.064.022-.01.023 0 .03 0 .036 0 .006.029 0 .042 0a.03.03 0 0 0 .04-.042.031.031 0 0 0-.018-.016ZM5.466 16.896c-.045 0-.087.09-.03.09.058 0 .084-.09.03-.09ZM5.206 16.464c-.06 0-.118.118-.041.118.077 0 .115-.118.041-.118Z" fill="#7B4E19"/>
    <path d="M16.272 12.29c-.32-.278-.582-1.228-.64-3.48a9.15 9.15 0 0 1 1.28-4.529 8.5 8.5 0 0 0-1.478 5.76c.085.837.224 1.668.416 2.487.14.464.233.37.72.905.163.166.275.376.32.605.121-.104.222-.23.297-.371a4.122 4.122 0 0 0-.915-1.376Z" fill="#8E785A"/>
    <path d="M15.875 12.525c-.191-.82-.33-1.65-.416-2.486a8.5 8.5 0 0 1 1.479-5.76c.167-.3.356-.589.566-.861.253-.32-.512-.698-1.069-.375-.557.324-1.558 1.488-2.534 4.855-.96 4.438 1.113 6.787 1.113 6.787.436-.038 1.367-.186 1.92-.64a1.187 1.187 0 0 0-.32-.605c-.505-.544-.598-.451-.739-.915Z" fill="#B6A68A"/>
    <path d="M15.648 8.464c-.703.5-1.374 1.045-2.006 1.632-.017.98.138 1.954.457 2.88.19-.7.492-1.364.893-1.968.199-.293.443-.552.723-.768-.035-.403-.06-.874-.07-1.42-.003-.126 0-.24.003-.356Z" fill="#9E8D71" style="mix-blend-mode:multiply"/>
    <path d="M11.997 13.664c-.186-.37-.301-.998.07-2 .23-.614.378-.867.493-1.158-.934 1.386-1.28 2.81-1.05 4.016.092.108.204.197.33.262.131-.339.282-.877.157-1.12Z" fill="#A78D6A"/>
    <path d="M22.56 5.09c-.144-.345-.253-.297-.762-.175-.508.121-4.899 1.107-7.718 3.869a9.694 9.694 0 0 0-1.504 1.721c-.115.291-.262.544-.493 1.159-.371 1.001-.256 1.628-.07 2 .125.243-.026.78-.144 1.12.816.379 1.688.625 2.582.73a1.174 1.174 0 0 0-.486-.64c-.49-.302-.301-.302-.256-.606.045-.304-.163-.464-.349-.998-.186-.534.115-.858.234-1.162a.985.985 0 0 1 .32-.464c.118-.115.118-.208.374-.694s.96-1.162 1.67-1.814c.71-.653 2.052-1.655 2.948-1.642 1.03-.545 2.1-1.01 3.2-1.392.614-.192.595-.608.454-1.011Z" fill="#D6C3A2"/>
    <path d="M15.945 9.133c-.72.64-1.417 1.325-1.67 1.815-.253.49-.256.579-.374.694a.986.986 0 0 0-.32.464c-.119.32-.42.64-.234 1.162.186.521.397.697.349.998-.048.3-.234.32.256.605.232.15.405.376.486.64.493.1 1.003.09 1.492-.032 0 0-1.818-.32-1.92-2.106-.045-.893.607-3.005 3.69-5.171.405-.266.806-.502 1.196-.714-.9-.01-2.256 1.034-2.95 1.645ZM13.517 10.771a2.347 2.347 0 0 0-.282.148v-.263l.244-.14s.025-.045 0-.036c-.084.042-.167.083-.247.131 0-.118 0-.233.02-.348h-.033c0 .118-.019.236-.025.355l-.119.08c0-.125.026-.25.042-.375 0-.022-.026 0-.029 0-.02.128-.041.263-.057.4a1.767 1.767 0 0 0-.167.144v.016a1.31 1.31 0 0 1 .15-.121c0 .093-.019.185-.022.281l-.166.129v.025c0-.02.102-.077.153-.112.001.147.019.292.052.435 0 .023.038 0 .038-.022a2.916 2.916 0 0 1 0-.41l.134-.083v.294c0 .023.036 0 .036-.022v-.297l.278-.16s.022-.058 0-.049Zm-.458.26v-.276a.954.954 0 0 1 .122-.076v.262l-.122.09Z" fill="#A78D6A"/>
    <path d="M13.325 14.854c-.352 0-.733-.246-1.066-.364a2.662 2.662 0 0 0-.787-.212c0 .083.022.163.038.243.092.109.204.198.33.263.816.38 1.688.626 2.582.73.493.1 1.003.09 1.492-.032a2.748 2.748 0 0 1-1.066-.484c-.493.103-.915-.134-1.523-.144Z" fill="#D6C3A2" style="mix-blend-mode:multiply"/>
    <path d="M16.528 8.14a.36.36 0 0 0-.067.04v-.231l.064-.029s.032-.051 0-.042l-.067.036.019-.148c0-.028-.032 0-.035 0-.003 0-.016.103-.023.154l-.057.032v-.227c0-.02-.03 0-.03.019 0 .077 0 .154-.018.227l-.125.077s-.026.045 0 .032l.122-.07c0 .09 0 .179-.02.268a.16.16 0 0 1-.07.036s-.035.041 0 .035a.166.166 0 0 0 .1-.029 2.21 2.21 0 0 0 0 .291c0 .026.037 0 .037-.025v-.298l.064-.048c-.003.05-.003.1 0 .15 0 .023.036 0 .036-.022V8.21l.064-.041c.022-.007.032-.045.006-.03Zm-.131.084a.169.169 0 0 0-.038.032V8l.054-.029a1.949 1.949 0 0 0 0 .237l-.016.016Z" fill="#A78D6A"/>
    <path d="M16 7.478c-.518.3-1.006.651-1.456 1.047-.208.182-.42.377-.614.573a9.397 9.397 0 0 1-.685.697c0 .016 0 0 0 0 .429-.328.835-.685 1.216-1.069.49-.406 1.004-.783 1.54-1.13.06-.034.105-.172 0-.118ZM21.795 4.931c-.423.098-.84.217-1.251.359-.457.147-.905.318-1.344.512-.437.168-.865.362-1.28.579-.205.109-.416.198-.615.32-.092.06-.188.115-.284.179-.09.079-.192.143-.301.192-.02 0-.06.067-.02.067a.931.931 0 0 0 .32-.118c.238-.122.477-.237.718-.352.433-.22.879-.417 1.334-.59.445-.16.867-.351 1.325-.476.467-.081.92-.23 1.344-.441.048-.02.204-.26.054-.23Z" fill="#D6C3A2" style="mix-blend-mode:screen"/>
    <path d="M16.46 13.879c-.258.166-.55.276-.854.32-.279.003-.55.09-.78.25.115.166.188.252.188.252.436-.038 1.367-.186 1.92-.64.122-.104.223-.23.298-.371-.058-.125-.118-.237-.173-.34-.168.209-.37.388-.598.529Z" fill="#9E8D71" style="mix-blend-mode:multiply"/>
    <path d="M20.614 22.08a2.16 2.16 0 0 1 1.146-.64c.41-.074.723-.061.928-.41.074-.125.16-.278.247-.419.09-.458.146-.922.166-1.389.093-1.347.278-1.766-.32-2.3-.673-.512-1.3-1.081-1.872-1.703-.32-.42-.726-1.6-.912-1.85a.797.797 0 0 0-1.018-.198c-.46.161-.943.243-1.43.24a1.124 1.124 0 0 0-.707.298c-.112.128-.211.32-.439.368a9.29 9.29 0 0 1-1.244.32c-.452.054-.48 1.017-.48 1.017 1.884.055 2.32 3.312 3.225 4.544.602.82.96 2.307 1.13 3.2.195-.168.42-.3.662-.387.374-.123.696-.366.918-.691Z" fill="#6D2213"/>
    <path d="M19.82 21.508c-.102-.506-.476-.912-.786-1.306-.624-.784-1.421-1.446-1.648-2.467-.173-.778-.058-1.866-.91-2.263-.553-.256-1.183-.236-1.76-.412-.022.124-.037.25-.044.377 1.885.055 2.32 3.312 3.226 4.544.601.82.96 2.307 1.13 3.2.195-.168.42-.3.662-.387h.028c.106-.42.14-.855.103-1.286Z" fill="#601D0B" style="mix-blend-mode:multiply" opacity=".5"/>
    <path d="M22.688 21.047c-.205.348-.518.32-.928.41a2.16 2.16 0 0 0-1.146.64c-.22.333-.546.583-.925.71a2.113 2.113 0 0 0-.662.387c.086.457.125.762.125.762.202-.122.417-.223.64-.301.278-.087.262-.061.387-.218.124-.214.272-.414.442-.595.306-.192.638-.34.985-.442.29-.088.555-.243.775-.45.271-.402.46-.854.553-1.329-.086.147-.172.3-.246.426Z" fill="#4C1206"/>
    <g style="mix-blend-mode:multiply" opacity=".5" fill="#4C1206">
      <path d="M19.885 22.72c-.04.303-.06.607-.064.912.237-.07.227-.058.345-.205.068-.083.132-.201.208-.32v-.761c-.133.159-.3.287-.49.374ZM21.76 21.456a1.76 1.76 0 0 0-.288.077c0 .233-.035.585-.083.96l.218-.077a2.8 2.8 0 0 0 .473-.224c0-.282.023-.576.035-.794l-.355.058Z"/>
    </g>
    <path d="M12.406 23.45c.535.1.535.173.621.413.087.24.077.393.23.294.1-.051.154.023.381.167a2.018 2.018 0 0 0 1.837-.055c.784-.438 1.408-.787 1.843-.57-.022-.339.077-.38.32-.412.244-.032.752-.352.733-.525.013-.238.078-.47.189-.682.1-.297.165-.605.195-.918.055-.362-.227-.589-.38-.886a9.627 9.627 0 0 0-.807-1.255c-.355-.46-.589-.745-.608-1.34-.022-.391 0-.64-.029-.922a2.634 2.634 0 0 0-.32-1.104c-.278-.375-.62-.202-1.04-.266-.419-.064-1.219-.361-1.6-.291-.38.07-1.238-.15-2.15-.675 0 0-.48-.192-.55.144a1.6 1.6 0 0 1-.41.841c-.285.359-.218.384-.051.845.017.152.001.306-.045.451a8.674 8.674 0 0 1-.541 1.088.797.797 0 0 0 .109 1.088c.272.22.475.513.585.845.208.736.37 1.484.487 2.24.022.144.041.272.06.387.074.196.375.944.941 1.098Z" fill="#944620"/>
    <path d="M19.52 21.366c-.32-.448-.774-1.3-1.315-1.827-.541-.528-.787-1.037-1.082-1.94a6.457 6.457 0 0 1-.208-.844c.02.291 0 .531.029.922.035.595.269.873.618 1.324.3.397.57.816.806 1.255.154.297.435.524.38.886-.026.319-.09.634-.188.938a1.653 1.653 0 0 0-.186.697c.02.173-.492.49-.732.525-.24.035-.34.074-.32.413-.436-.218-1.06.131-1.844.57a2.018 2.018 0 0 1-1.836.054c-.228-.144-.282-.218-.381-.166-.154.099-.141-.052-.23-.295-.09-.243-.087-.32-.622-.413-.556-.153-.867-.902-.94-1.107.035.508.232.992.563 1.38.512.64.557.508.867 1.145.31.637.186.774.992.803.807.029 1.453-.122 1.997-.077s1.162.234 1.658-.109c.496-.342.742-.665 1.19-.867.448-.201.64-.265.573-.54a3.219 3.219 0 0 1 .054-1.453c.157-.541.477-.823.157-1.274Z" fill="#6F270E"/>
    <path d="M16.797 24.157c-.003.166.032.33.102.48.115.24.215.518.279.467.064-.051.025-.24-.128-.608-.154-.368-.24-.58-.253-.34Z" fill="#6F2910" style="mix-blend-mode:multiply" opacity=".5"/>
    <g style="mix-blend-mode:multiply" opacity=".5" fill="#6F2910">
      <path d="M13.146 24.176c-.045-.038-.061-.157-.119-.32-.057-.163-.08-.262-.29-.32.08.429.213 1.14.32 1.7.111.252.175.364.476.415l-.38-1.436a.099.099 0 0 1-.007-.039ZM15.927 25.469c.086.038-.215-.816-.368-1.248l-.084.048h-.022c.112.417.27.82.474 1.2ZM14.08 24.8c.027.298.092.592.192.874h.128c-.131-.394-.278-.906-.32-.874ZM16.23 24.96c.08.02-.108-.614-.214-.988l-.163.083c.093.304.291.905.377.905ZM19.338 22.694a7.424 7.424 0 0 1-.365-1.254 1.599 1.599 0 0 0-.22-.458.565.565 0 0 1 0 .164c-.03.195-.049.355-.08.508l.598 1.412c.014-.125.036-.25.067-.372ZM14.598 25.014c-.041.035.112.41.208.64h.119c-.087-.23-.275-.678-.327-.64ZM17.635 23.287c-.217.028-.32.067-.32.32l.515 1.673c.213-.186.435-.362.666-.525l-.486-1.6a1.19 1.19 0 0 1-.375.131Z"/>
    </g>
    <path d="M14.038 16.979a1.053 1.053 0 0 0-.64-.32c-.259-.026-.873.029-.624-.435.1-.166.158-.352.173-.544 0-.138-.08-.103-.16-.039s-.237.17-.285.32a1.093 1.093 0 0 0 0 .32c0 .03.045.173-.044.154a.794.794 0 0 1-.176-.109c-.087-.054-.19-.067-.276-.121a1.422 1.422 0 0 0-.32-.122c-.124-.045-.176-.093-.32-.064a1.007 1.007 0 0 0-.32.125c-.05.025-.08.137 0 .096l.061-.029c.092.033.18.074.266.122.114.034.232.051.352.05.227.026.442.115.62.257.09.067-.179.573-.207.685a.93.93 0 0 0 .13.572c.023.048.103-.041.094-.08-.01-.038-.032-.144-.052-.214a.81.81 0 0 1 .032-.176 2.74 2.74 0 0 1 .119-.32c0-.029 0-.022-.032 0 .042-.099.09-.195.144-.288.035-.058.077-.157.17-.112.076.04.16.063.246.067.205.016.32-.032.509.109.13.102.283.174.444.211.058.013.138-.073.096-.115ZM15.418 20.224a1.49 1.49 0 0 0-.24.029.595.595 0 0 1-.32-.087 2.14 2.14 0 0 0-.57-.195c-.186-.029-.39.016-.505-.166-.055-.084.044-.292.064-.4a.715.715 0 0 0 0-.234c-.02-.112-.132-.32-.272-.189a.687.687 0 0 0-.17.538.342.342 0 0 0-.122-.09 1.334 1.334 0 0 0-.422-.019 1.6 1.6 0 0 1-1.043-.173 2.893 2.893 0 0 0-.618-.358 1.948 1.948 0 0 0-.62-.195c-.026 0-.055.038-.055.06 0 .023.02.023.035 0 .072.095.16.176.262.237.11.087.199.192.32.272.122.08.221 0 .32.042.141.045.253.118.397.153.153.01.3.066.42.16.076.076.163.14.259.19.25.105.52.153.79.14-.025.074-.057.144-.077.22-.048.18-.09.36-.121.542a.895.895 0 0 0 .14.78c.039.048.11-.057.119-.086a.745.745 0 0 0 0-.278c0-.144-.026-.279-.026-.423 0-.144.106-.275.15-.435.023-.08.03-.17.049-.256.17.016.331.079.467.182.115.1.198.234.365.247.166.013.268-.15.464-.096.16.085.329.154.502.208.122 0 .429.09.49-.074.06-.163-.355-.25-.432-.246Zm-2.195.64c.001.061.008.122.019.182v.077a.9.9 0 0 1-.02-.243v-.016ZM16.483 17.638c-.029-.135-.237 0-.211-.22 0-.145-.042-.206.038-.375.03-.064.02-.24-.086-.24a.045.045 0 0 0-.029.016c-.22.153-.086.432-.192.64-.102-.08-.281-.042-.403-.084-.122-.041-.262-.175-.4-.124h-.022c0 .134.028.176.153.236.058.03.669.24.576.372a.256.256 0 0 0-.029.29c.039.068.096.12.131.186.036.068.045.132.113.183h.032l.019.045c0 .019.035 0 .035-.023-.038-.252-.208-.71.182-.748.093.006.112-.08.093-.154ZM18.358 21.29c-.115-.039-.23-.036-.342-.08a2.633 2.633 0 0 1-.416-.23 1.962 1.962 0 0 0-.38-.148c-.164-.064-.32 0-.474-.058-.03 0-.077.055-.045.068h.016a.96.96 0 0 0 .112.428.048.048 0 0 0 .054 0c.115-.038.042-.195.275-.13.352.092.79.32 1.162.194.026.016.07-.035.038-.044Z" fill="#6C260C"/>
    <path d="M16.144 23.008c-.253-.163-.416-.233-.413-.572.01-.275.061-.546.154-.804.041-.121.099-.32.019-.438-.112-.166-.192.32-.195.32-.02.272-.045.54-.083.81-.026.166-.02.32-.276.367a.695.695 0 0 1-.486-.115c-.32-.201-.688-.547-1.1-.38-.138.054-.266.137-.41.044a.57.57 0 0 1-.173-.256.08.08 0 0 0-.135-.045c-.099.084 0 .113-.262.157a.842.842 0 0 1-.48-.147 2.945 2.945 0 0 0-.538-.3h-.019c-.032 0-.083.066-.048.076-.064.15.029.294.16.41.08.07.237-.026.32-.02.165.024.317.101.432.221.038.028.079.05.122.068.137.067.195.118.176.281a.673.673 0 0 0 .029.32c.048.112.243-.054.284-.09.106-.09.048-.22 0-.32-.048-.099.052-.086.106-.06.105.024.212.038.32.041.168.012.336.034.502.064.068 0 .141 0 .212.035.07.036.179.135.246.215.067.08.115.131.234.118.118-.012.592-.227.528.103-.03.16.064.284.022.457 0 .045.048 0 .06 0 .068-.115.126-.281.298-.265.093 0 .18.022.272.022a.285.285 0 0 0 .256-.118c.042-.077-.076-.167-.134-.199Z" fill="#6C260C"/>
    <path d="M12.707 16.64c-.32-.108-.64-.236-.989-.32a4.976 4.976 0 0 0-.64-.185h-.019c-.05.025-.08.137 0 .096l.061-.029c.092.033.18.074.266.122.114.034.232.051.352.05.227.026.442.115.62.257.09.067-.179.573-.208.685-.019.2.027.4.132.572.022.048.102-.041.092-.08-.01-.038-.032-.144-.05-.214a.815.815 0 0 1 .031-.176c.033-.109.073-.216.119-.32 0-.029 0-.022-.032 0 .042-.099.09-.195.144-.288.035-.058.076-.157.17-.112.076.04.16.063.246.067h.118l-.413-.125ZM14.01 17.024a1.147 1.147 0 0 0-.41-.122l-.086-.02c.128.102.278.173.438.209.029 0 .064-.02.08-.051l-.022-.016ZM14.864 20.33a8.054 8.054 0 0 1-.822-.17 5.742 5.742 0 0 1-.602-.253c-.483-.195-.995-.281-1.482-.454a9.422 9.422 0 0 0-1.155-.473l.035.028c.11.087.199.192.32.272.122.08.221 0 .32.042.141.045.253.118.397.154.153.01.3.065.42.16.076.075.163.139.259.188.25.106.52.154.79.141-.026.074-.058.144-.077.22-.048.18-.09.36-.121.542a.897.897 0 0 0 .14.78c.039.048.11-.057.119-.086a.745.745 0 0 0 0-.278c0-.144-.026-.279-.026-.423 0-.144.106-.275.15-.435.023-.08.03-.17.049-.256.17.016.331.079.467.183.115.099.198.233.365.246.166.013.268-.15.464-.096.156.075.319.136.486.182.118 0 .403.08.48-.054-.336-.058-.66-.102-.976-.16Zm-1.642.55c.002.062.008.123.02.183v.077a.9.9 0 0 1-.02-.26ZM16.26 17.846l-.41-.166a6.815 6.815 0 0 1-.64-.269c.034.045.08.08.134.1.058.028.669.24.576.37a.256.256 0 0 0-.029.292c.039.067.096.118.132.185.035.067.044.131.111.183h.032l.02.044c0 .02.035 0 .035-.022-.045-.227-.176-.595.038-.717ZM17.639 21.293c-.183-.064-.372-.102-.557-.163-.116-.038-.227-.118-.343-.163a.746.746 0 0 0 .1.32.048.048 0 0 0 .054 0c.115-.039.041-.195.275-.131s.445.156.678.204l-.207-.067Z" fill="#6C260C" style="mix-blend-mode:multiply" opacity=".5"/>
    <path d="M11.702 21.94c.038.079.093.149.16.204.08.07.237-.025.32-.019h.036a2.232 2.232 0 0 0-.516-.186Z" fill="#6C260C"/>
    <path d="m15.542 23.008-.204-.023a.15.15 0 0 1 .025.144c-.029.16.064.285.023.458 0 .045.048 0 .06 0 .068-.115.125-.282.298-.266.093 0 .18.023.272.023a.286.286 0 0 0 .256-.119.087.087 0 0 0 0-.099l-.73-.118ZM14.938 22.915c-.199-.054-.365-.186-.557-.256-.483-.182-1.002-.16-1.498-.3a4.707 4.707 0 0 1-.412-.126l.14.112c.038.028.079.05.122.068.137.067.195.118.176.281a.67.67 0 0 0 .029.32c.048.112.243-.054.284-.09.106-.089.049-.22 0-.32-.047-.099.052-.086.106-.06.105.024.212.038.32.041.169.012.336.034.502.064.068 0 .141 0 .212.036.07.035.179.134.246.214.067.08.115.131.234.118.057 0 .182-.05.294-.07a1.369 1.369 0 0 1-.198-.032Z" fill="#6C260C" style="mix-blend-mode:multiply" opacity=".5"/>
    <path d="M22.1 19.795a.96.96 0 0 0-.698-.07c-.167.044-.34.059-.512.045-.215 0-.468 0-.59-.215a2.296 2.296 0 0 1-.185-.377c-.019-.052 0-.25-.077-.282a.125.125 0 0 0-.09 0h-.015c-.1.096 0 .253.051.342.051.09.346.522.026.448a.771.771 0 0 0-.458.03 1.06 1.06 0 0 1-.672.124c-.042 0-.25 0-.208.093.083.208.765 0 .896-.023.224-.032.515-.115.7.058.186.173.055.384.126.55.044.106.227.224.281.055a.41.41 0 0 0-.038-.282c-.029-.073-.058-.144-.08-.217-.023-.074.17-.077.211-.077.202-.007.402-.035.598-.083.23-.054.467-.069.701-.045.013 0 .07-.064.032-.074ZM21.811 17.308c-.07-.06-.265-.064-.355-.08a1.668 1.668 0 0 0-.576.045c-.41.09-.793-.067-1.197.096-.263.105-.55.133-.828.08a3.698 3.698 0 0 0-.64-.016c-.26 0-.43 0-.535-.275a5.52 5.52 0 0 1-.176-.595c0-.02-.029 0-.029.016 0 0-.019.032 0 .041a1.523 1.523 0 0 1-.02.298.615.615 0 0 0-.025.304c.039.195-.153.342-.25.496 0 0 0 .048.017.035a1.91 1.91 0 0 1 .3-.083c.145-.026.186.217.212.3.024.154.069.302.134.442.016.026.061-.022.058-.044a4.204 4.204 0 0 1-.067-.496c-.023-.32.454-.199.605-.199.384 0 .758-.073 1.142-.08.385.022.77.004 1.152-.054.182-.042.355-.106.54-.132.186-.025.32 0 .477 0 .03-.006.093-.067.061-.099ZM20.131 15.504c-.032-.22-.269-.265-.457-.214-.276.07-.378-.067-.522-.275l-.291-.416s-.045.022-.048.032a.461.461 0 0 0 0 .32c.019.064.3.345.032.32a.47.47 0 0 0-.285.064c-.262.147-.384.035-.618-.074a.48.48 0 0 0-.358-.022c-.112.041-.24.13-.355 0a.288.288 0 0 0-.157-.119.551.551 0 0 0-.64.106v.016a.186.186 0 0 1 .064-.042c.3-.067.195.381.477.413.024.006.05.006.073 0a.445.445 0 0 1 .42-.022c.116.079.236.152.361.217.25.096.374-.368.64-.275.118.058.247.09.378.096.208 0 .272.208.355.352.016.032.054-.022.058-.042.015-.192 0-.47.288-.403.11.032.216.073.32.122.099.022.294-.007.265-.154Z" fill="#601D0B" style="mix-blend-mode:multiply" opacity=".5"/>
    <path d="M20.534 19.818a3.848 3.848 0 0 0-.505-.026c-.167 0-.32.039-.496.064-.286.063-.578.09-.87.084.102.192.761 0 .892-.032.224-.032.515-.116.701.057.186.173.054.384.125.55.045.106.227.225.281.055a.41.41 0 0 0-.038-.282c-.029-.073-.058-.144-.08-.217-.022-.074.17-.077.211-.077.202-.007.402-.035.599-.083.23-.053.466-.069.7-.045a.041.041 0 0 0 .026 0c-.506-.08-1.034-.026-1.546-.048ZM21.802 17.303c-.247 0-.49.05-.736.07-.506.035-1.012.035-1.517.064h-.103c-.099.018-.2.026-.3.026l-.32.028-.596.03a2.582 2.582 0 0 0-.976.2c.085-.029.172-.052.26-.07.144-.025.185.218.21.301.024.153.07.302.135.442.016.025.061-.023.058-.045a4.206 4.206 0 0 1-.067-.496c-.023-.32.454-.198.604-.198.384 0 .759-.074 1.143-.08.385.021.77.003 1.152-.055.182-.041.355-.105.54-.131.186-.026.32 0 .477 0 .03 0 .093-.064.061-.096l-.025.01ZM20.102 15.414a2.24 2.24 0 0 0-.505-.054c-.432 0-.864.112-1.296.14-.23 0-.445-.031-.672-.038a1.1 1.1 0 0 1-.51-.08 1.2 1.2 0 0 0-.45-.153h-.03c.142.076.116.374.343.4.024.006.05.006.074 0a.445.445 0 0 1 .42-.023c.115.08.236.152.36.218.25.096.375-.368.64-.275.119.057.247.09.378.096.208 0 .272.207.355.351.017.033.055-.022.058-.041.016-.192 0-.47.288-.403.11.032.217.072.32.121.102.036.294 0 .269-.153a.295.295 0 0 0-.042-.106Z" fill="#601D0B" style="mix-blend-mode:multiply" opacity=".5"/>
    <path d="M12.902 18.24c0-.035-.025-.138-.076-.09a.134.134 0 0 0-.03.167c.003.01.009.018.017.024a.042.042 0 0 0 .029.008.06.06 0 0 0 .038-.032.112.112 0 0 0 .022-.077ZM12.413 18.56c0-.02-.03-.03-.045-.035a.055.055 0 0 0-.07.028.106.106 0 0 0 0 .077.074.074 0 0 0 .047.058c.039.019.07-.023.08-.058a.109.109 0 0 0-.012-.07ZM11.878 18.208a.132.132 0 0 0-.083-.06c-.035 0-.096.022-.083.067.013.044.051.048.08.06a.07.07 0 0 0 .093-.031s.01-.039-.007-.036ZM11.395 17.357a.038.038 0 0 0-.041 0 .093.093 0 0 0-.036.096.038.038 0 0 0 .032.029c.02 0 .036 0 .048-.023a.07.07 0 0 0 .014-.08.07.07 0 0 0-.017-.022ZM11.302 16.893s-.022-.02-.032-.026c0 0 0-.016-.022-.02-.022-.002-.029 0-.035.02a.093.093 0 0 0 0 .029c0 .023.01.046.025.064.02.029.048.045.077 0a.1.1 0 0 0-.013-.067ZM15.242 18.95a.276.276 0 0 0-.023-.045.09.09 0 0 0-.057.03.122.122 0 0 0 0 .089.144.144 0 0 0 .025.048.03.03 0 0 0 .01.008.03.03 0 0 0 .025 0 .03.03 0 0 0 .01-.008.077.077 0 0 0 .035-.03c.01-.022-.01-.06-.025-.092ZM16.038 19.238a.02.02 0 0 0 0-.022L16 19.2a.052.052 0 0 0-.022-.022c-.026 0-.048.022-.058.044a.08.08 0 0 0 .026.116c.028.016.057 0 .08-.023a.07.07 0 0 0 .012-.077ZM16.992 19.088a.113.113 0 0 0-.054-.048.08.08 0 0 0-.061.035.224.224 0 0 0 0 .045c0 .045.035.147.093.128a.07.07 0 0 0 .073-.058.164.164 0 0 0-.05-.102ZM17.187 19.98a.23.23 0 0 0 0-.034.063.063 0 0 0-.025-.032.068.068 0 0 0-.026-.02.048.048 0 0 0-.045.03.084.084 0 0 0 .04.11.082.082 0 0 0 .043.008s.03 0 .036-.023c0 0-.023-.032-.023-.038ZM14.307 16.32a.138.138 0 0 0-.025-.087c-.023-.032-.052-.022-.074 0a.16.16 0 0 0-.032.061.166.166 0 0 0 0 .112.04.04 0 0 0 .028.028.042.042 0 0 0 .039-.009.067.067 0 0 0 .058-.054.12.12 0 0 0 .006-.051ZM15.056 16.451a.045.045 0 0 0-.026-.022s0-.016-.028-.016a.065.065 0 0 0-.042.045.048.048 0 0 0 .044.068c.01 0 .021-.004.03-.01a.064.064 0 0 0 .022-.064ZM15.171 16.108h-.035a.074.074 0 0 0-.06.061.102.102 0 0 0 .063.109.071.071 0 0 0 .06 0 .09.09 0 0 0 .03-.074.118.118 0 0 0-.058-.096ZM14.269 16.858a.026.026 0 0 0-.026 0 .033.033 0 0 0-.025 0 .058.058 0 0 0 0 .067c0 .02.025.038.048.029a.058.058 0 0 0 .027-.047.057.057 0 0 0-.024-.05ZM13.61 15.571H13.568c-.045 0-.022.087 0 .116.023.028.026.038.048.038a.057.057 0 0 0 .051-.042.103.103 0 0 0-.057-.112ZM12.016 15.399a.097.097 0 0 0-.054-.051s-.03 0-.032.019a.05.05 0 0 0-.022.067.064.064 0 0 0 .035.035.048.048 0 0 0 .05 0 .076.076 0 0 0 .033-.05.084.084 0 0 0-.01-.02ZM11.974 20a.05.05 0 0 0-.035 0 .06.06 0 0 0-.051 0c-.064.022-.048.102 0 .14.007.01.015.02.026.026h.025a.057.057 0 0 0 .058-.041.118.118 0 0 0-.023-.125ZM12.211 20.515a.07.07 0 0 0-.029-.025.038.038 0 0 0-.048 0c-.045.022-.041.08-.025.118a.063.063 0 0 0 .04.046.063.063 0 0 0 .059-.007c.045-.045.029-.093.003-.131ZM12.752 20.96c0-.026-.029-.058-.054-.045-.026.013-.048.074-.039.109.009.016.022.03.039.038h.05a.074.074 0 0 0 .004-.102ZM14.128 21.318a.102.102 0 0 0-.131-.02.166.166 0 0 0 0 .273.1.1 0 0 0 .111-.006.098.098 0 0 0 .026-.03.275.275 0 0 0 0-.047v-.023h.023a.138.138 0 0 0-.029-.147ZM14.768 21.213a.05.05 0 0 0-.03-.032.051.051 0 0 0-.044.003.112.112 0 0 0-.05.109.042.042 0 0 0 .044.042.07.07 0 0 0 .064 0 .085.085 0 0 0 .033-.058.087.087 0 0 0-.017-.064ZM15.11 21.536c-.025-.022-.063-.058-.099-.058a.117.117 0 0 0-.086.036c-.058.06 0 .137.051.166a.092.092 0 0 0 .098-.016.092.092 0 0 0 .027-.096s.016-.026.01-.032ZM16.87 22.464c0-.023-.035-.068-.06-.064-.036 0-.068.038-.077.067-.01.029.022.067.044.09a.065.065 0 0 0 .079-.001.064.064 0 0 0 .017-.022.058.058 0 0 0-.003-.07ZM14.333 23.286a.032.032 0 0 0-.037-.008.032.032 0 0 0-.011.008c-.026.026-.016.055 0 .08a.042.042 0 0 0 0 .02l.025.025c.026.022.061 0 .064-.035a.095.095 0 0 0-.041-.09ZM15.712 14.832c0-.026-.058-.029-.08-.023a.109.109 0 0 0-.058.132c.023.048.09.022.119 0 .029-.023.06-.08.019-.11ZM16.771 14.419a.052.052 0 0 0-.035.016.074.074 0 0 0-.022.022.19.19 0 0 0 0 .039.051.051 0 0 0 0 .038.054.054 0 0 0 .054 0 .082.082 0 0 0 .051-.058.057.057 0 0 0-.048-.057ZM18.137 14.4a.233.233 0 0 0-.028-.039.032.032 0 0 0-.039-.016.042.042 0 0 0-.044.026.11.11 0 0 0 0 .115s.025.035.047.032a.073.073 0 0 0 .061-.045.088.088 0 0 0 .003-.073ZM17.891 14.72a.032.032 0 0 0-.045 0 .072.072 0 0 0-.019.054.03.03 0 0 0 .014.017.028.028 0 0 0 .021.003.052.052 0 0 0 .032-.03.05.05 0 0 0-.003-.044ZM18.832 14.198l-.02-.028c0-.026-.038-.039-.06 0a.093.093 0 0 0 0 .086c0 .029.032.064.064.054a.044.044 0 0 0 .032-.035.074.074 0 0 0-.016-.077ZM19.949 14.467s-.029-.022-.045 0a.1.1 0 0 0-.048.054c-.02.08.09.192.157.112s-.023-.137-.064-.166ZM20.518 15.894v-.016c-.019-.023-.044-.14-.096-.109-.05.032-.038.093-.025.14.013.049.07.12.121.052a.07.07 0 0 0 0-.067ZM20.547 16.358s.016 0 0-.022a.093.093 0 0 0-.057 0 .08.08 0 0 0-.064.057.067.067 0 0 0 .006.071.068.068 0 0 0 .067.025.09.09 0 0 0 .055-.105l-.007-.026ZM19.318 16.96a.039.039 0 0 0-.054 0 .09.09 0 0 0-.034.038c-.008.016-.01.034-.008.051 0 .032.023.058.058.055a.092.092 0 0 0 .077-.074.074.074 0 0 0-.039-.07ZM18.608 16.74a.102.102 0 0 0-.074-.074.09.09 0 0 0-.09.07.087.087 0 0 0 .042.106.075.075 0 0 0 .07-.005.076.076 0 0 0 .036-.059.038.038 0 0 0 .016-.038ZM21.322 16.512a.122.122 0 0 0 0-.067.119.119 0 0 0-.09-.061.051.051 0 0 0-.058.022.144.144 0 0 0 0 .199.098.098 0 0 0 .096.017.1.1 0 0 0 .064-.072.067.067 0 0 0-.012-.038ZM21.312 18.333a.073.073 0 0 0 0-.026c0-.035-.058-.025-.074 0a.15.15 0 0 0-.019.122c0 .035.042.083.086.067.045-.016.039-.109.007-.163ZM21.799 18.56a.15.15 0 0 0-.032-.032.044.044 0 0 0-.052 0 .115.115 0 0 0-.029.108c.004.014.01.026.02.036h.019c.01.002.021.002.032 0 0 0 .045-.02.048-.032a.105.105 0 0 0-.006-.08ZM20.336 18.647c0-.029-.045-.055-.077-.016a.172.172 0 0 0-.019.144c0 .06.086.099.125.035a.128.128 0 0 0-.029-.163ZM19.728 18.374c0-.035-.045-.105-.087-.09-.041.017-.054.068-.057.113a.154.154 0 0 0 .045.134c.048.045.108-.02.112-.067a.111.111 0 0 0-.013-.09ZM19.02 18.88a.185.185 0 0 0-.025-.057v-.017c-.035-.05-.083 0-.09.045-.006.045 0 .135.074.112a.076.076 0 0 0 .042-.083ZM20.298 21.21a.085.085 0 0 0-.02-.039c-.028-.035-.067 0-.08.029a.126.126 0 0 0 0 .077.062.062 0 0 0 .04.037.06.06 0 0 0 .071-.029.06.06 0 0 0-.015-.076h.004ZM20.736 21.484a.07.07 0 0 0-.041.039.167.167 0 0 0 0 .163c0 .029.054.022.076 0a.118.118 0 0 0 .052-.093c-.004-.035-.023-.125-.087-.109ZM21.789 20.518a.1.1 0 0 0-.039.131c.03.058.106.032.125-.022.058-.06-.029-.147-.086-.109Z" fill="#050505"/>
    <path d="M10.88 16.483a3.62 3.62 0 0 1-.109-.172 1.16 1.16 0 0 1-.042.348c.068.032.16.084.26.138.179.1-.026-.198-.11-.314ZM10.358 18.518a1.524 1.524 0 0 1-.32-.32.64.64 0 0 0 .068.362c.24.093.304 0 .252-.042Z" fill="#6C260C"/>
    <path d="m15.405 5.399-.163.208-.116-.237a.053.053 0 0 1 0-.023c0-.019 0-.025-.022 0L15.04 5.2s-.025 0-.022.02c.003.019.048.102.073.156-.048.06-.092.123-.13.189a.983.983 0 0 1-.055-.154c0-.016-.026 0-.026.016a.691.691 0 0 0 .051.19c-.067.124-.112.252-.17.383 0 .016 0 0 .023 0 .048-.099.086-.201.134-.32l.03-.051c.034.078.075.153.12.224-.04.083-.076.17-.12.253 0 .022 0 .022.022 0 .044-.074.08-.15.118-.23a.235.235 0 0 0 .029.041c0 .02.041 0 .035-.029l-.035-.067c.033-.062.072-.12.115-.176.026.051.055.1.083.147.03.048.039 0 .032-.025l-.086-.16c.06-.074.118-.148.17-.221.01.003-.013-.003-.026.013Zm-.272.361a.404.404 0 0 0-.042.061c-.038-.074-.083-.147-.121-.224.038-.064.083-.128.128-.189l.115.24-.08.112Z" fill="#8E785A"/>
    <g style="mix-blend-mode:screen" fill="#944620">
      <path d="M12.26 22.896c-.122-.349-.28-.841-.433-1.174a4.476 4.476 0 0 1-.32-1.207 3.447 3.447 0 0 0-.358-1.09c-.18-.32-.448-.615-.614-.96a1 1 0 0 1 .32-1.162.71.71 0 0 0 .297-.64c-.054-.432-.413-.74-.14-1.19.134-.225.32-.391.32-.67 0-.032-.049 0-.052.026-.041.349-.371.509-.464.829-.058.336-.002.682.16.982.154.442-.282.595-.477.912a1.244 1.244 0 0 0-.157.916c.15.342.343.665.573.96.211.373.35.784.407 1.21.048.374.134.742.256 1.1.153.384.349.75.582 1.091.051.064.118.125.1.067ZM14.467 24a2.559 2.559 0 0 1-1.117-.39 3.27 3.27 0 0 0-.908-.64c-.023 0 .048.045.07.057.32.183.49.544.758.775.328.235.728.348 1.13.32.042.019.131-.093.067-.122Z"/>
    </g>
    <path d="M18.685 12.87s-.71-1.836.06-3.068c-.387.211-.755 1.347-.342 2.656.157.445.295.512.282.413Z" fill="#0B480C"/>
    <path d="M18.656 12.845s.026-.826.57-.995a.64.64 0 0 0-.57.995ZM18.54 12.723a1.872 1.872 0 0 0-.889-.464c.23-.172.82.138.89.464ZM18.403 12.458a3.328 3.328 0 0 0-.86-1.05c.358.016.921.752.86 1.05Z" fill="#4B8B2D"/>
    <path d="M18.442 12.179s.057-.618.604-.698c-.358-.131-.85.109-.604.698Z" fill="#68B42E"/>
    <path d="M18.368 11.44a.67.67 0 0 1 .912-.477c-.503-.281-1.063-.16-.912.477ZM18.275 11.715a1.9 1.9 0 0 0-.614-.576c.26-.064.665.38.614.576Z" fill="#4B8B2D"/>
    <path d="M18.323 11.06a1.674 1.674 0 0 1 1.015-.791c.243-.029-.91-.349-1.015.79Z" fill="#4B8B2D"/>
    <path d="M18.24 11.254a1.363 1.363 0 0 0-.723-.665c.24-.116.797.31.723.665Z" fill="#68B42E"/>
    <path d="M18.304 10.825a2.384 2.384 0 0 1-.384-1.088c0-.153-.272.378.368 1.194a.708.708 0 0 1 .016-.106Z" fill="#4B8B2D"/>
    <path d="M18.326 10.701a2.902 2.902 0 0 1-.05-.934.768.768 0 0 0 .05.934Z" fill="#68B42E"/>
    <path d="M18.448 11.964s.125-.473.534-.499c-.259-.06-.496.189-.534.5ZM18.413 10.842a1.141 1.141 0 0 1 .86-.602.942.942 0 0 0-.86.602ZM17.718 11.158c.213.112.393.278.522.48a1.018 1.018 0 0 0-.521-.48Z" fill="#ABDB91"/>
    <path d="M10.806 24.093s-.163-1.86-2.006-1.987c1.12-.183 2.26.764 2.006 1.987Z" fill="#D2A677"/>
    <path d="M10.669 23.427a2.784 2.784 0 0 0-1.36-.531c.528-.154 1.363.144 1.36.53Z" fill="#7FA95F"/>
    <path d="M10.746 23.722a1.043 1.043 0 0 0-1.207.15c.42-.63 1.226-.585 1.207-.15Z" fill="#4B8B2D"/>
    <path d="M10.346 22.839a2.93 2.93 0 0 0-1.386-.183c.298-.233 1.248-.188 1.386.183Z" fill="#68B42E"/>
    <path d="M10.422 22.963s-.614-1.197-1.056-1.421c.554.163 1.194 1.133 1.056 1.42Z" fill="#4B8B2D"/>
    <path d="M10.608 23.04a2.18 2.18 0 0 0-.368-1.226 1.52 1.52 0 0 1 .547 1.63 2.24 2.24 0 0 0-.179-.404Z" fill="#68B42E"/>
    <path d="M10.816 23.83c.15-.408.366-.79.64-1.129-.403-.032-.682.82-.682.82l.042.31Z" fill="#458B28"/>
    <path d="M10.746 23.168a2.013 2.013 0 0 0-.372-1.19c.25.102.47.848.372 1.19ZM10.208 22.74a2.388 2.388 0 0 0-1.085-.132 1.488 1.488 0 0 1 1.085.131Z" fill="#ABDB91"/>
  </g>
  <defs>
    <clipPath id="a">
      <path fill="#fff" d="M0 0h32v32H0z"/>
    </clipPath>
  </defs>
</svg>
