<svg width="32" height="32" fill="none" xmlns="http://www.w3.org/2000/svg">
  <g clip-path="url(#a)">
    <path d="M32 15.863a16 16 0 1 1-31.999.273 16 16 0 0 1 32-.273Z" fill="#F4F4F4"/>
    <path d="M15.872 1.088a14.88 14.88 0 1 1 .23 29.76 14.88 14.88 0 0 1-.23-29.76Zm0-.371a15.283 15.283 0 1 0 .257 30.565A15.283 15.283 0 0 0 15.872.717Z" fill="#006EC3"/>
    <path d="M15.879 1.6A14.4 14.4 0 0 1 30.4 15.875a14.4 14.4 0 0 1-27.613 5.84A14.4 14.4 0 0 1 15.878 1.6Zm0-.15A14.54 14.54 0 1 0 30.54 15.875a14.544 14.544 0 0 0-14.666-14.4l.004-.025Z" fill="#006EC3"/>
    <path d="M26.992 15.907a10.992 10.992 0 1 1-21.983.185 10.992 10.992 0 0 1 21.983-.185Z" fill="#DADADA"/>
    <path d="M26.758 15.907a10.759 10.759 0 1 1-21.516.185 10.759 10.759 0 0 1 21.516-.185Z" fill="#F4F4F4"/>
    <path d="M22.371 19.488c-.227.087-.105.282.03.4.134.119.348-.048.348-.048.275-.211.64-.425.582-.512-.057-.086-.179-.045-.425 0-.181.043-.36.097-.535.16Z" fill="#809F20"/>
    <path d="M17.11 20.746a28.019 28.019 0 0 0-4.028 1.44c-.43.22-.036.832-.036.832.183.246.301.38 1.367.32a10.162 10.162 0 0 0 3.302-.774c1.322-.525 2.743-1.03 3.811-1.569 1.07-.537.83-.784 1.095-1.027.042-.035.09-.076.14-.115 0 0-.214.163-.348.045-.134-.119-.256-.32-.029-.4.177-.066.358-.122.54-.167-.297.039-.738.125-1.28.221-1.03.167-2.444.586-4.534 1.194Z" fill="#648C08"/>
    <path d="M16.077 22.778s.38-.141.669-.218c.288-.077.47-.14.227.093-.155.177-.354.31-.576.387-.176.048-.32.058-.422-.045-.103-.102-.007-.176.102-.217Z" fill="#809F20"/>
    <path d="M21.626 19.54c-1.012.178-2.413.598-4.516 1.206-.624.182-1.196.361-1.702.53 1.28-.095 2.528-.198 3.789-.32.739-.08 1.558-.185 2.198-.594.3-.205.623-.377.96-.512-.109-.119-.173-.272.026-.35.177-.065.357-.12.54-.166-.3.023-.742.11-1.295.205ZM15.437 22.893c-.525 0-1.047-.029-1.571 0a4.365 4.365 0 0 1-.679 0 1.879 1.879 0 0 1-.233-.048c.026.062.057.122.092.18.183.246.301.38 1.367.32a9.554 9.554 0 0 0 2.345-.436c-.438-.013-.883-.013-1.321-.016Z" fill="#648C08" style="mix-blend-mode:multiply" opacity=".5"/>
    <path d="M13.376 22.23s0 .32.423.138c.422-.182.85-.422.812-.521-.038-.1-.659-.052-.96.086-.3.137-.294.224-.275.297ZM17.002 21.818s-.224-.294-.061-.362a5.09 5.09 0 0 1 1.171-.246c.045.054-.365.32-.598.486-.234.167-.387.285-.512.122ZM19.178 22.08c.22-.08.434-.178.64-.29.32-.186.588-.369.566-.423-.022-.055-.762.14-1.1.24-.535.153-.462.617-.106.473ZM22.16 20.346s.058.25.26.173c.32-.159.615-.361.88-.602.197-.205-.02-.14-.436-.054-.416.086-.784.198-.704.483ZM21.338 19.661a.32.32 0 0 0 .259.227c.214.035.253-.057.483-.227.23-.17.605-.534.16-.406-.445.128-.992.236-.902.406Z" fill="#809F20"/>
    <path d="M12.662 24.512s-.044.598.32.662c1.145.038 2.29-.014 3.428-.153 1.19-.138 1.174-.154 1.92-.237.745-.083 1.033-.02 2.24-.201 1.206-.183 1.385-.17 1.26-.34-.124-.17-.32-.563-1.868-.61-1.55-.049-7.11.274-7.3.88Z" fill="#648C08"/>
    <path d="M17.26 24.368c.931-.067 1.851-.24 2.743-.512.183-.058.359-.118.538-.182a6.966 6.966 0 0 0-.589-.042c-1.533-.048-7.1.275-7.29.88-.007.125.005.25.039.371 1.491-.358 3.033-.374 4.56-.515Z" fill="#648C08" style="mix-blend-mode:multiply" opacity=".5"/>
    <path d="M15.36 25.12c.204-.03.404-.084.595-.16.218-.105-.038-.195-.576-.22-.537-.026-.617.044-.617.217s.083.288.598.163ZM18.38 24.797c.215 0 .43-.02.64-.058.273-.057.18-.182-.207-.198-.387-.016-.573-.029-.573.1 0 .127.032.153.14.156Z" fill="#809F20"/>
    <path d="M20.851 24.32s0 .208.18.208c.27-.002.537-.055.787-.157.048-.07-.164-.13-.64-.156-.308-.045-.336-.004-.327.105Z" fill="#788E1A"/>
    <path d="M21.12 23.946s0 .348.272.339c.272-.01.746-.064.762-.15.016-.087-1.07-.567-1.034-.19Z" fill="#809F20"/>
    <path d="M20.46 24.32c.17.003.34-.004.51-.022.24-.029.467-.042-.051-.218-.519-.176-.861-.24-.855-.032.006.208.032.247.397.272Z" fill="#809F20"/>
    <path d="M21.712 22.83s.32-.097.269-.2c-.051-.102-.352-.118-.583-.025-.23.093-.105.295.314.224Z" fill="#AAC844"/>
    <path d="M11.622 24.074s.077.566.503.566c.425 0 1.667-.15 2.419-.214s1.226.02 2.442-.115a17.748 17.748 0 0 0 3.603-.797c.96-.34 1.552-.611.87-.765a9.72 9.72 0 0 0-2.912.055c-.614.137-4.605.38-6.182.217-.717-.035-.877.458-.743 1.053Z" fill="#84AE0C"/>
    <path d="M14.915 23.428c.24-.062.486-.098.733-.11.378 0 .528.033.227.186-.3.154-.761.34-.915.228-.154-.112-.122-.266-.045-.304ZM17.28 22.998s-.02.32.272.247c.303-.069.595-.176.87-.32.173-.112.017-.147-.32-.115-.335.032-.841.035-.822.188ZM18.39 24.07c.305-.038.605-.107.896-.204.23-.109-.022-.067-.441-.131-.717-.106-.733.3-.454.336ZM20.425 23.568s-.3.112-.425-.102c-.125-.215.048-.381.352-.362.304.02.98.115.777.195l-.704.269Z" fill="#AAC844"/>
    <path d="M20.358 22.87s.023.19.5.074c.476-.115.876-.32.7-.387-.176-.067-1.459-.1-1.2.314Z" fill="#9FB739"/>
    <path d="M19.84 22.685s.096.32.368.237c.272-.083.851-.247.618-.32-.234-.074-1.034-.163-.986.083ZM13.53 24.403s.041.282.4.237c.417-.041.83-.116 1.235-.224.192-.083-.595-.166-1.008-.163-.413.003-.685 0-.627.15Z" fill="#AAC844"/>
    <path d="M11.2 21.373s2.56-.067 4.618-.278c2.057-.212 1.968-.199 3.017-.35.96-.14 2.003-.32 2.47-.44.468-.122.32-.266-.265-.391a16.43 16.43 0 0 0-2.88-.199c-1.162 0-1.22-.07-1.78-.07s-1.8-.106-3.433-.163c-1.632-.058-2.163-.154-2.24.237-.128.761-.147 1.692.493 1.654Z" fill="#84AE0C"/>
    <path d="M12.95 21.015s.64-.11.999-.208c.358-.1.361-.112-.17-.285s-1.299-.291-1.299.042c0 .332.109.505.47.45ZM10.7 19.719s-.066.32.43.17a6.167 6.167 0 0 1 1.004-.32c.32-.052.112-.093-.32-.125s-1.04-.145-1.113.275ZM15.856 19.805s-.86.32-.989.167c-.128-.154-.176-.375.263-.41.438-.035 1.302 0 1.161.077-.14.066-.286.122-.435.166ZM17.056 20.97a5.713 5.713 0 0 1-.96.134c-.377 0-.47-.118-.32-.368.15-.25.42-.144.669-.05.25.092.432.245.611.284Z" fill="#AAC844"/>
    <path d="M19.962 20.461s0 .269.438.218c.439-.052.919-.15.915-.247-.003-.096-.396-.3-.848-.358-.45-.058-.563.134-.505.387Z" fill="#9FB739"/>
    <path d="M20.074 19.978s.041.253.361.205c.247-.044.49-.103.73-.176.17-.045.096-.128-.16-.199-.256-.07-1.069-.172-.931.17Z" fill="#97A833"/>
    <path d="M19.616 19.891s-.122-.208.147-.224c.27-.016.88-.06.928.042.048.102-.265.227-.524.3-.26.074-.42.097-.55-.118ZM20.48 20.422a7.224 7.224 0 0 1-.96.25c-.304.038-.422-.029-.387-.294.035-.266.176-.384.515-.32.291.087.57.21.832.364Z" fill="#AAC844"/>
    <path d="M19.098 20.295s-.96.406-1.085.134-.048-.506.406-.448c.455.058 1.21.077.679.314Z" fill="#AAC844"/>
    <g style="mix-blend-mode:screen" fill="#84AE0C">
      <path d="M14.08 21.005c-1.037.073-2.077.025-3.114.06-.019 0 0 .03.017.03.51.063 1.022.099 1.535.108.554 0 1.108-.016 1.661-.045a18.912 18.912 0 0 0 3.283-.435c.07-.016-.057-.147-.108-.14-1.11.108-2.183.345-3.274.422ZM17.952 20.496c-.115.023-.22 0-.32.058-.035.025.035.086.064.073.128-.057.266 0 .397-.028.16-.022.317-.061.467-.119.055-.022-.045-.1-.077-.1a3.61 3.61 0 0 0-.53.116Z"/>
    </g>
    <g style="mix-blend-mode:screen" fill="#84AE0C">
      <path d="M15.02 24.195c-1.04.074-2.076.026-3.113.06-.019 0 0 .03 0 .033.51.06 1.023.096 1.536.105.554 0 1.107 0 1.661-.044a18.568 18.568 0 0 0 3.296-.436c.07 0-.058-.147-.109-.14-1.094.108-2.17.349-3.27.422ZM18.902 23.68c-.111.026-.22 0-.32.058-.038.025.032.086.064.073.128-.057.263 0 .397-.029a2.27 2.27 0 0 0 .458-.102c.054-.022-.045-.102-.077-.102a4.24 4.24 0 0 0-.521.102Z"/>
    </g>
    <path d="M26.88 12.98c-.358-.15-.768.14-1.046.39-.37.35-.703.738-.992 1.158-.32.413-.66.746-.986 1.13-.149.201-.31.393-.48.576a.234.234 0 0 1-.147-.074c-.141-.15-.035-.64 0-.819.083-.304.105-.622.064-.934-.186-.74-1.008 0-1.28.269-.272.268-.493.704-.826.736-.333.032-.435-.445-.445-.765.031-.518.147-1.027.343-1.507.218-.8.52-1.574.899-2.31a2.88 2.88 0 0 0 .394-.874.857.857 0 0 0-.538-1.04c-.362-.087-.758.32-.992.592-.26.34-.468.718-.618 1.12-.172.419-.304.85-.441 1.28-.064.201-.131.4-.202.598-.07.22-.126.445-.17.672a.553.553 0 0 1-.32.422c-.265.087-.281-.464-.275-.64.038-.485.115-.967.23-1.44.1-.428.202-.864.32-1.28.12-.416.295-.838.423-1.28.103-.345.48-1.696-.067-1.798-.547-.102-.96.851-1.251 1.302a14.633 14.633 0 0 0-1.098 2.365c-.077.189-.157.375-.243.557l-.125.243s-.102.176-.086.154c-.09.14-.18.281-.272.416-.051.073-.109.14-.163.208.05-.061 0-.016-.052.025a.14.14 0 0 0-.044 0 .312.312 0 0 0-.036-.057.924.924 0 0 1-.092-.26 2.935 2.935 0 0 1 .064-1.238c.118-.376.2-.763.243-1.155.051-.26.051-.527 0-.787-.147-.32-1.098 1.718-1.175 1.904-.46 1.081-.89 2.176-1.6 3.053-.108.134-.32.406-.48.422-.32.029-.412-.55-.432-.822-.013-.411.026-.822.116-1.223.21-.871.481-1.727.812-2.56.253-.733.64-1.379.928-2.093.144-.364.32-1.184-.112-1.36-.236-.096-.508.106-.7.26a3.392 3.392 0 0 0-.679.79 10.366 10.366 0 0 0-.979 2.134 22.77 22.77 0 0 0-.896 3.095c-.08.387-.058.797-.147 1.18-.039.164-.243.689-.416.625-.173-.064-.064-.79-.039-.96.056-.377.156-.745.298-1.098.077-.192.666-1.18.486-1.392-.22-.26-.806.253-.924.406-.394.525-.759 1.504-1.104 2.106-.208.362-.56.886-.96.589-.4-.298-.432-1.098-.32-1.581.198-.81.832-1.296 1.366-1.74.371-.32 1.331-.926 1.36-1.6.029-.676-.826-.174-1.04-.02a6.028 6.028 0 0 0-1.654 2.016 4.64 4.64 0 0 0-.688 2.49c.044.64.38 1.41.985 1.28.691-.157 1.104-1.264 1.424-1.92.198-.433.42-.854.666-1.261.105-.167.352-.621.55-.64.397-.048-.217 1.065-.297 1.241-.301.64-.922 1.693-.746 2.493.144.64.73.387 1.02.055.442-.503.58-1.28.695-1.968.295-1.786.515-3.62 1.463-5.082.144-.224.601-1.034.89-.86.287.172-.135.754-.238.934-.265.485-.5.988-.7 1.504a11.668 11.668 0 0 0-.877 2.905c-.109.752-.263 2.125.416 2.56.601.394 1.145-.512 1.472-1.02.435-.682.681-1.52 1.008-2.282-.208.745-.237 1.632.17 2.272.259.403.758.297 1.084.137a2.71 2.71 0 0 0 .925-.96c.467-.707.662-1.6.858-2.473.09-.407.172-.82.278-1.223a5.33 5.33 0 0 1 .48-1.19c.075-.156.175-.297.298-.42.25-.24.32.142.339.362-.014.471-.11.936-.285 1.373a24.907 24.907 0 0 0-.675 2.595c-.073.381-.126.766-.157 1.152a.797.797 0 0 0 .25.736c.39.288.841-.284 1.072-.604.361-.5.657-1.044.88-1.62.064-.166.09-.352.166-.508.077-.157.269-.32.298 0a2.45 2.45 0 0 1-.11.64 6.93 6.93 0 0 1-.22 1.004c-.131.43-.234.864-.32 1.306-.122.592-.41 1.651.275 1.92.32.125.64-.138.912-.32.16-.122.32-.25.48-.384.078-.073.163-.138.253-.195 0 .054-.026.109-.032.15-.03.174-.049.349-.054.525-.035.3.009.603.128.88.294.544.87.256 1.225 0 .919-.685 1.482-1.962 2.426-2.646.137-.09.105.38.17.441.521.442 1.209-1.149.441-1.465Z" fill="#EBEAEA" style="mix-blend-mode:multiply"/>
    <path d="M26.026 15.126a1.15 1.15 0 0 0-.288.557.407.407 0 0 0 .073.295c.009.013.02.023.032.032a.129.129 0 0 0 .122.054.698.698 0 0 0 .442-.198l.064-.07.035-.042a.748.748 0 0 0 .118-.237.474.474 0 0 0-.077-.448c-.16-.189-.37-.103-.521.057ZM25.542 16.41a.12.12 0 0 0-.05 0 .206.206 0 0 0-.148.064.318.318 0 0 0-.083.112.363.363 0 0 0-.039.198.267.267 0 0 0 .016.055.09.09 0 0 0 .042.057.197.197 0 0 0 .042.03.22.22 0 0 0 .256-.097.369.369 0 0 0 .064-.246.224.224 0 0 0-.042-.135.09.09 0 0 0-.058-.038Z" fill="#EBEAEA" style="mix-blend-mode:multiply"/>
    <path opacity=".6" d="M26.749 12.909c-.359-.147-.768.144-1.047.394-.369.35-.7.737-.992 1.155-.32.416-.659.749-.985 1.133a6.42 6.42 0 0 1-.477.576.233.233 0 0 1-.15-.074c-.141-.15-.032-.64 0-.822.085-.304.106-.622.064-.935-.186-.736-1.005.016-1.28.272-.276.256-.493.704-.826.733-.333.029-.435-.445-.445-.765a4.802 4.802 0 0 1 .342-1.504c.22-.8.522-1.574.903-2.31.177-.268.308-.563.39-.874a.854.854 0 0 0-.534-1.04c-.365-.086-.762.32-.995.592-.265.34-.476.717-.627 1.12-.173.416-.32.848-.442 1.28-.064.203-.131.401-.202.595a5.91 5.91 0 0 0-.17.672.553.553 0 0 1-.32.426c-.268.083-.284-.467-.274-.64.04-.485.124-.966.25-1.437.095-.432.198-.864.32-1.28.12-.416.297-.838.422-1.28.102-.345.48-1.699-.068-1.801-.547-.103-.96.854-1.25 1.305a14.635 14.635 0 0 0-1.099 2.365c-.076.189-.156.374-.243.557l-.124.24s-.103.176-.087.157c-.09.14-.18.278-.272.412-.051.074-.109.141-.163.208.051-.057 0-.016-.051.03l-.045-.02a.364.364 0 0 0-.035-.054.85.85 0 0 1-.09-.263 2.842 2.842 0 0 1 .064-1.238c.115-.376.196-.762.24-1.152.051-.261.051-.53 0-.79-.144-.32-1.098 1.721-1.174 1.92-.461 1.081-.887 2.175-1.6 3.052-.106.131-.32.407-.48.423-.32.028-.413-.55-.432-.826a4.89 4.89 0 0 1 .115-1.222c.212-.871.483-1.727.813-2.56.252-.733.64-1.38.928-2.096.144-.362.32-1.181-.11-1.357-.24-.096-.511.102-.7.259a3.417 3.417 0 0 0-.681.79 10.37 10.37 0 0 0-.97 2.144 22.195 22.195 0 0 0-.886 3.101c-.08.387-.061.797-.15 1.181-.036.163-.24.688-.417.62-.176-.066-.064-.786-.035-.96.053-.376.151-.744.294-1.097.077-.192.666-1.18.487-1.392-.18-.211-.893.55-1.021.704a14.361 14.361 0 0 0-1.034 1.799c-.208.358-.556.886-.96.585-.403-.3-.432-1.094-.32-1.58.199-.81.832-1.28 1.367-1.738.374-.32 1.33-.925 1.36-1.6.028-.675-.826-.173-1.04-.02A6.08 6.08 0 0 0 8.15 11a4.637 4.637 0 0 0-.684 2.49c.041.64.377 1.41.985 1.28.688-.158 1.104-1.265 1.424-1.92.203-.435.431-.856.685-1.262.109-.166.355-.64.55-.64.4-.048-.214 1.066-.297 1.242-.298.64-.922 1.69-.746 2.49.147.64.73.39 1.024.057.439-.505.576-1.28.691-1.968.288-1.792.506-3.625 1.453-5.088.144-.224.602-1.037.893-.864.291.173-.135.755-.24.938-.265.485-.5.986-.7 1.5a11.696 11.696 0 0 0-.878 2.906c-.109.752-.262 2.125.416 2.56.605.39 1.146-.515 1.472-1.02.439-.682.682-1.52 1.008-2.282-.208.745-.236 1.632.173 2.272.26.403.755.294 1.085.137.381-.24.699-.57.925-.96.464-.71.659-1.6.854-2.473.09-.407.173-.82.279-1.223.114-.413.275-.813.48-1.19.076-.155.176-.296.297-.42.25-.24.32.138.34.362-.015.466-.11.925-.282 1.357-.27.852-.495 1.717-.675 2.592a10.67 10.67 0 0 0-.154 1.155.8.8 0 0 0 .25.736c.387.288.838-.284 1.072-.604a7.5 7.5 0 0 0 .88-1.62c.046-.173.102-.344.166-.512.086-.176.265-.32.294 0a2.597 2.597 0 0 1-.105.64 7.98 7.98 0 0 1-.221 1.005c-.134.426-.234.864-.32 1.306-.125.592-.413 1.651.272 1.92.32.125.64-.141.912-.32.163-.122.32-.253.48-.387.08-.07.164-.135.253-.192 0 .054-.023.105-.032.15a3.603 3.603 0 0 0-.058.531 1.7 1.7 0 0 0 .128.88c.66 1.232 2.122-.918 2.56-1.51a4.21 4.21 0 0 1 .755-.82c.067-.05.208-.223.346-.32.137-.089.105.381.17.442.499.467 1.19-1.123.419-1.443Z" fill="#A96A26"/>
    <path opacity=".4" d="M26.416 15.002c-.16-.189-.371-.103-.518.057a1.076 1.076 0 0 0-.288.554.397.397 0 0 0 .07.298c.01.012.022.023.035.032a.122.122 0 0 0 .119.054.69.69 0 0 0 .441-.198l.067-.074.036-.038a.857.857 0 0 0 .115-.237.47.47 0 0 0-.077-.448ZM25.466 16.381a.115.115 0 0 0-.055-.042.11.11 0 0 0-.051 0 .208.208 0 0 0-.147.064.294.294 0 0 0-.083.112.445.445 0 0 0-.039.132.162.162 0 0 0 0 .067.33.33 0 0 0 0 .054.119.119 0 0 0 .045.058c.012.01.026.02.042.025a.215.215 0 0 0 .252-.092.37.37 0 0 0 .068-.247.243.243 0 0 0-.032-.131Z" fill="#A96A26"/>
    <g style="mix-blend-mode:screen">
      <path d="M10.608 8.86c-.483.136-.923.392-1.28.743a6.08 6.08 0 0 0-1.008 1.475c-.026.045.02.068.045.036.156-.199.284-.426.438-.64a8.17 8.17 0 0 1 .547-.64 6.293 6.293 0 0 1 1.28-.96s-.003-.023-.022-.013ZM8.39 14.441a.692.692 0 0 1-.534-.361 1.482 1.482 0 0 1-.23-.784h-.02c-.035.566.228 1.28.765 1.222.032.01.064-.07.02-.077ZM10.982 14.493c-.156.134-.441.3-.62.13h-.016a.248.248 0 0 0 .217.194c.035.004.07 0 .103-.01a.672.672 0 0 0 .352-.28c.025-.015 0-.066-.036-.034ZM16.26 12.525c-.804-.045.08-2.624.095-3.13 0-.019-.02 0-.02 0-.095.388-.214.77-.354 1.143a5.718 5.718 0 0 0-.211.96c-.036.368 0 1.245.48 1.075.015.003.038-.045.01-.048ZM17.38 12.48a2.478 2.478 0 0 1-.593.71c-.038.042-.022.116.029.074.283-.183.49-.46.585-.784.007-.029-.015-.029-.022 0ZM21.834 9.046c-.365-.176-.663.074-.938.356v.035c.18-.15.405-.237.64-.247.256 0 .422.461.4.736 0 .039.035.03.045 0 .118-.252.121-.748-.147-.88ZM21.776 10.355c-.022.045-.054.09-.077.135-.022.044 0 .073.02.076.019.004.06-.035.063-.07.004-.035 0-.093 0-.14 0-.049-.003-.01-.006 0ZM23.479 16.34c-.279.13-.58.281-.784-.08a2.347 2.347 0 0 1-.135-.996c-.051.439-.16.861.09 1.235.25.375.64.138.864-.076.022-.03.019-.103-.035-.084ZM26.282 15.123a.122.122 0 0 0-.119-.1.368.368 0 0 0-.237.167c-.05.07-.147.221-.092.32.002.04.015.077.038.11.054.089.17 0 .224-.042a.772.772 0 0 0 .09-.11.406.406 0 0 0 .035-.063c-.026.054.022-.035.022-.039a.32.32 0 0 0 .039-.243ZM25.296 16.387a.106.106 0 0 0-.054.052c0 .022-.02.067 0 .086.032.038.07 0 .09-.045.018-.045.012-.102-.036-.093ZM26.71 13.498a.126.126 0 0 0-.09-.04.125.125 0 0 0-.092.04.382.382 0 0 0-.147.259.192.192 0 0 0 .025.147c.014.017.032.03.052.038a.096.096 0 0 0 .108 0 .372.372 0 0 0 .141-.17.284.284 0 0 0 .003-.274Z" fill="#fff" style="mix-blend-mode:screen" opacity=".4"/>
    </g>
    <path opacity=".4" d="M9.526 10.039c-.064 0-.124.16-.044.156.08-.003.118-.156.044-.156ZM10.06 9.6c-.047 0-.092.119-.031.115.06-.003.093-.115.032-.115ZM8.336 11.252c-.029 0-.054.067-.02.067.036 0 .052-.068.02-.068ZM8 12.279c-.016 0-.038 0-.048.019v.02c-.016.028 0 .054.032.031A.045.045 0 0 0 8 12.28ZM9.002 14.208c-.042-.048-.096.032-.103.08 0 .035.02.058.045.051.045-.006.1-.086.058-.13ZM8.567 14.4c-.023 0-.042.052-.016.052.025 0 .041-.052.016-.052ZM11.2 14.23c-.029 0-.057.074-.02.074.04 0 .043-.074.02-.074ZM11.411 13.12a.064.064 0 0 0-.041.048c0 .042 0 .067.044.051a.082.082 0 0 0 .042-.083c-.006-.016-.029-.016-.045-.016ZM14.557 7.283s.032 0 .045-.019c.06-.099-.11-.035-.045.02ZM14.5 6.564h-.04a.048.048 0 0 0 0 .035c.017.035.055 0 .062-.026.006-.025-.01-.003-.023-.01ZM13.293 14.4c-.051 0-.102.125-.038.122.063-.003.099-.122.038-.122ZM12.74 14.374c-.036 0-.071.093-.023.09.048-.003.083-.09.022-.09ZM17.36 12.016c-.019-.022-.048 0-.064.016a.067.067 0 0 0 0 .08c.023.023.051 0 .064 0v-.016a.068.068 0 0 0 0-.08ZM16.442 13.204c-.045 0-.09.115-.032.115.057 0 .092-.115.032-.115ZM15.68 12.998c-.035 0-.067.084-.026.084.042 0 .074-.084.026-.084ZM15.68 12.538c-.032 0-.06.076-.022.073.038-.003.073-.073.022-.073ZM15.82 13.661a.029.029 0 0 0-.028 0c-.016.02-.016.07 0 .064.016-.006.06-.045.029-.064ZM18.672 8.218c-.029 0-.051.067-.02.064.033-.003.055-.064.02-.064ZM18.41 8.854c0-.041-.074 0-.068.052.007.05 0 .038.036.038.035 0 .067-.074.032-.09ZM20.06 12.362s0-.02-.018-.02c-.026-.025-.058-.025-.048.058h.019c.067.035.064-.006.048-.038ZM19.635 12.333c-.048 0-.093.118-.032.115.061-.003.093-.115.032-.115ZM21.078 10.157c-.032 0-.064.083-.022.083.041 0 .064-.083.022-.083ZM21.526 9.706c-.044 0-.086.108-.028.105.057-.003.083-.105.028-.105ZM21.402 11.114c-.036 0-.07.09-.026.09.045 0 .064-.09.026-.09ZM21.613 15.34c-.042 0-.08.09-.042.106.039.016.087 0 .08-.057a.051.051 0 0 0-.038-.048ZM21.12 15.463c-.02-.02-.042 0-.054 0v.016a.058.058 0 0 0 0 .067c0 .019.041 0 .054 0v-.016a.063.063 0 0 0 0-.067ZM22.822 15.456c-.038 0-.076.1-.028.1s.08-.1.028-.1ZM23.1 16.275c-.018 0-.038.052 0 .052.04 0 .026-.052 0-.052ZM24.733 14.918c-.038 0-.074.09-.026.09s.07-.09.026-.09ZM24.237 15.456c-.029 0-.058.077-.02.077.04 0 .058-.077.02-.077ZM25.6 13.927c-.045 0-.086.105-.032.105.054 0 .1-.105.032-.105ZM26.096 13.23c0 .028.032 0 .032 0 0-.04-.035-.023-.032 0ZM26.01 15.76c0 .032.044 0 .048-.019.016-.06-.064-.038-.048.02ZM26.388 15.402s-.021.028 0 .028c.022 0 .015-.028 0-.028ZM25.344 16.5c-.045 0-.086.105-.032.105.054 0 .086-.105.032-.105ZM11.747 11.712h-.032c0 .023 0 .055.02.048.019-.006.028-.025.012-.048ZM11.888 10.56c-.038 0-.074.09-.026.09s.074-.09.026-.09ZM9.952 12.48c0-.032-.048 0-.054.023a.035.035 0 0 0 0 .038h.032a.035.035 0 0 0 .03-.023.035.035 0 0 0-.008-.038ZM8.022 13.834c-.038 0-.073.093-.025.09.048-.004.07-.09.025-.09ZM7.795 13.376c-.051 0-.099.128-.035.125.064-.003.1-.125.035-.125Z" fill="#7B4E19"/>
    <path d="M23.04 12.16a1.09 1.09 0 0 1 .96-.34c.64.08 1.235.49 1.178.64-.058.151-.618.196-.618.196l-1.52-.496Z" fill="#AA6102"/>
    <path d="M23.763 11.815c-.185.093-.358.209-.515.345.163-.124.32-.227.509-.339.019.02.032-.02.006-.006ZM24.147 11.869c-.232.09-.448.216-.64.374v.023c.204-.137.418-.258.64-.362 0 0 .026-.045 0-.035ZM24.573 12.026c-.258.076-.499.2-.71.364 0 .023 0 0 0 0 .223-.133.457-.248.7-.342 0 0 .039-.032.01-.022ZM24.918 12.224a5.03 5.03 0 0 0-.368.131c-.121.048-.204.112-.32.154 0 0-.022.026 0 .026.094-.029.184-.067.27-.116.134-.057.271-.102.406-.163.016-.003.054-.041.012-.032Z" fill="#8E4F03"/>
    <path d="M27.088 14.919c.357.07.707.17 1.046.3 1.085.468 1.6.51 1.738.442.206-.16.351-.386.413-.64 0-.083-.198-.182-.298-.233a8.022 8.022 0 0 0-2.739-.474c-.027.208-.08.411-.16.605Z" fill="#AA6102"/>
    <path d="M30.31 14.74c.084-.023.234-1.357.234-1.473 0-.054-.137-.07-.282-.073-1.177.112-2.623.406-3.05.496.057.208.07.426.036.64a8.025 8.025 0 0 1 2.74.473l-.068-.028s.304-.016.39-.036Z" fill="#864000"/>
    <path d="M29.526 11.818s.672-.16.64-.32a1.065 1.065 0 0 0-.508-.602c-.199-.048-1.114.378-2.01 1.04-.47.356-.962.683-1.472.98.227.03.445.107.64.227a10.783 10.783 0 0 1 2.794-1.338l-.084.013Z" fill="#AA6102"/>
    <path d="M30.557 13.024c.128-.515-.115-1.222-.256-1.26a3.484 3.484 0 0 0-.701.044c-.99.31-1.932.76-2.794 1.338.151.1.272.24.35.403a9.92 9.92 0 0 1 3.4-.525Z" fill="#864000"/>
    <path d="M29.955 13.207c.211-.02.416-.082.602-.183a9.923 9.923 0 0 0-3.399.522c.021.047.04.095.055.144.425-.09 1.872-.384 3.05-.496a2.891 2.891 0 0 0-.308.013Z" fill="#AA6102"/>
    <path d="M29.5 10.938c-.384.16-.754.355-1.103.582a8.82 8.82 0 0 0-1.175.98c-.019.022 0 .057 0 .031.381-.32.765-.617 1.168-.899a4.3 4.3 0 0 1 .573-.342c.177-.067.349-.145.515-.234.045-.019.11-.156.023-.118Z" fill="#AA6102" style="mix-blend-mode:screen"/>
    <path d="M28.3 14.864a.996.996 0 0 1-.489-.64 3.86 3.86 0 0 0-.173-.762 1.397 1.397 0 0 0-1.078-.774c-.24.154-.378.227-.378.227.227.03.445.107.64.227a.985.985 0 0 1 .404.548c.056.208.068.426.035.64a2.411 2.411 0 0 1-.16.592c.357.069.707.17 1.046.3 1.085.468 1.6.51 1.738.442a.827.827 0 0 0 .253-.269 3.84 3.84 0 0 1-1.837-.531Z" fill="#AA6102" style="mix-blend-mode:multiply" opacity=".5"/>
    <path d="M10.96 17.92s1.987 1.152 3.2 1.027c.96-.16.7-.793.413-.982-.288-.189-3.613-.045-3.613-.045Z" fill="#864000"/>
    <g style="mix-blend-mode:multiply" opacity=".5" fill="#864000">
      <path d="M13.933 18.829c-.32-.16-.679-.301-1.011-.461-.333-.16-.762-.23-1.082-.403 0 0-.022 0 0 .019.306.165.627.299.96.4.358.188.728.354 1.107.496 0 0 .042-.042.026-.051ZM14.202 18.762c-.531-.263-1.075-.503-1.6-.778 0 0-.026 0 0 .02a9.796 9.796 0 0 0 1.6.8s.019-.033 0-.042ZM14.608 18.54a3.586 3.586 0 0 0-.58-.255 3.228 3.228 0 0 0-.706-.272s-.026.022 0 .025c.21.076.417.165.617.266.215.09.435.18.64.275.013.006.042-.02.03-.038ZM14.681 18.278c-.175-.092-.37-.147-.547-.236-.016 0-.041.022-.029.031.08.049.164.077.244.116.08.038.198.096.3.134.02.003.049-.035.033-.045Z"/>
    </g>
    <path d="M9.642 10.966c.25-.16.485-.345.7-.55.27-.272.362-.413 1.37-.662A14.665 14.665 0 0 1 16 9.552c1.398.154 3.635.813 5.872 2.087-1.52-.365-6.8-1.892-12.23-.672Z" fill="#AA6102"/>
    <path d="M20.858 11.098c-.253.02-.506.001-.752-.058-.224-.057-.426-.173-.64-.22-.215-.049-.496-.116-.75-.164-.518-.099-1.046-.125-1.567-.182-.522-.058-.989-.173-1.485-.234a12.104 12.104 0 0 0-3.117.103 21.71 21.71 0 0 0-2.627.432c-.154.112-.275.192-.275.192 5.44-1.22 10.71.32 12.24.672a19.964 19.964 0 0 0-1.027-.541Z" fill="#AA6102" style="mix-blend-mode:multiply" opacity=".5"/>
    <path d="M22.25 16.736s1.376.595 2.09.32c.713-.275.902-.681.46-.902a3.36 3.36 0 0 1-.598-.359l-1.952.941Z" fill="#864000"/>
    <path d="M8.32 14.97c.086-1.687-1.11-2.653-1.693-2.723-2.445.342-4.355 2.88-4.355 2.88s-.3-.032-.202.156a.768.768 0 0 0 .404.272c-.096.221.086.445.428.468.404.675 1.312 1.04 3.293 1.334 1.136-.134 2.051-.883 2.125-2.387Z" fill="#C6862C"/>
    <path d="M27.357 13.36c-.39-.601-.826-.592-1.331-.49-.506.103-.445.023-2.66-.64-2.56-1.008-3.616-1.536-7.881-1.878a15.727 15.727 0 0 0-8.854 1.891c.582.07 1.779 1.037 1.692 2.723-.076 1.505-.992 2.24-2.128 2.388.487.07 1.037.137 1.661.204 8.96 1.245 12.538-.096 14.08-.582 1.543-.486 3.11-1.357 3.92-1.712s.822-.397 1.142-.349c.464.087.752-.95.359-1.555Z" fill="#C17500"/>
    <path d="M9.104 16.356A11.95 11.95 0 0 1 11.52 12.8c1.024-1.03 1.334-1.296 1.334-1.296a5.462 5.462 0 0 1-1.203 2.106c-.979 1.11-1.753 2.115-2.547 2.746ZM11.888 16.32s1.725-3.46 3.968-4.765c-1.411 1.917-3.245 4.183-3.968 4.765ZM14.675 16.138s1.805-3.2 3.568-4.48c-1.104 1.84-2.243 3.45-3.568 4.48ZM17.686 16s1.46-2.688 3.287-3.562c-.848 1.383-2.374 3.159-3.287 3.562ZM21.069 15.36s1.28-1.699 2.134-2.144c-.646 1.021-1.222 1.68-2.134 2.144Z" fill="#E6B75F"/>
    <g style="mix-blend-mode:multiply" fill="#BA842D">
      <path d="M11.066 13.76c-.384.474-.733.976-1.13 1.437a8.694 8.694 0 0 0-.547.685c-.051.074-.119.157-.183.243-.067.144-.102.227-.102.227.794-.64 1.568-1.645 2.531-2.736.481-.538.86-1.16 1.117-1.833-.563.662-1.14 1.309-1.686 1.977ZM15.302 12.192c-.396.445-.864.82-1.229 1.28-.364.461-.742 1.04-1.145 1.54-.195.243-.387.492-.599.72-.086.092-.192.185-.284.284-.103.19-.157.301-.157.301.691-.563 2.4-2.662 3.782-4.512-.128.131-.25.256-.368.387ZM16.826 13.44c-.388.439-.74.91-1.108 1.364-.368.454-.697.876-1.03 1.315v.019c1.171-.906 2.192-2.266 3.174-3.84-.31.429-.704.765-1.036 1.142ZM19.571 13.879c-.335.384-.664.774-.989 1.17-.166.209-.32.423-.512.615-.096.1-.192.196-.284.298.915-.49 2.361-2.18 3.177-3.52-.492.45-.957.93-1.392 1.437ZM22.531 13.914c-.265.278-.521.566-.803.829-.215.195-.432.387-.64.598.867-.445 1.433-1.078 2.048-2.038-.198.198-.416.403-.605.61Z"/>
    </g>
    <path d="M27.357 13.36c-.39-.602-.826-.592-1.331-.49a.71.71 0 0 1 .048.48c-.154.544-.836.79-1.312.96-1.117.378-2.141.848-3.29 1.098a28.045 28.045 0 0 1-3.84.669c-1.28.086-2.525.032-3.798 0a13.155 13.155 0 0 1-3.44-.557c-.459-.14-.871-.4-1.194-.755a4.616 4.616 0 0 1-.598-.96c-.368-.679-.96-1.443-1.738-1.69l-.233.128c.582.07 1.779 1.037 1.692 2.723-.076 1.504-.992 2.24-2.128 2.388.487.07 1.037.137 1.661.204 8.96 1.245 12.538-.096 14.08-.582 1.543-.486 3.11-1.357 3.92-1.712s.822-.397 1.142-.349c.464.087.752-.95.359-1.555Z" fill="#C17500" style="mix-blend-mode:multiply" opacity=".5"/>
    <path d="M7.453 17.21a2.17 2.17 0 0 0 .73-.64c.204-.332.308-.715.3-1.104a5.12 5.12 0 0 0-.41-2.275 1.693 1.693 0 0 0-.77-.835c-.17-.07-.35-.122-.516-.192l-.156.086c.582.07 1.779 1.037 1.692 2.723-.076 1.504-.992 2.24-2.128 2.387l.784.106c.16-.08.32-.163.474-.256Z" fill="#C17500" style="mix-blend-mode:multiply" opacity=".5"/>
    <path d="M11.418 9.866c-.319.24-.598.526-.83.851.243-.307.52-.585.827-.829.032-.01.028-.041.003-.022ZM12.14 9.687c-.392.234-.74.54-1.023.899 0 0 0 .025 0 0a6.656 6.656 0 0 1 1.043-.87s0-.045-.02-.03ZM12.848 9.6a4.434 4.434 0 0 0-1.21.909s0 .025 0 0c.369-.34.773-.64 1.207-.893 0 0 .029-.016.003-.016ZM13.565 9.571c-.403.23-.781.5-1.13.807v.025c.358-.293.736-.561 1.13-.803 0 0 .02-.042 0-.029ZM14.112 9.542a3.873 3.873 0 0 0-1.011.762s0 .02 0 0c.31-.276.646-.524 1.001-.74 0 0 .036-.038.01-.022ZM14.666 9.55c-.36.21-.696.458-1.002.741v.016c.157-.105.295-.25.451-.358.157-.109.371-.237.55-.361.02-.013.033-.058 0-.039ZM15.222 9.527a4.08 4.08 0 0 0-1.005.739v.025c.318-.262.65-.507.996-.732 0 0 .035-.048.01-.032ZM15.712 9.6a2.848 2.848 0 0 0-.934.669c.144-.126.297-.243.457-.349.15-.105.32-.18.474-.278.013.003.035-.042.003-.042ZM16.26 9.622c-.362.164-.692.388-.977.663 0 .022 0 0 0 0 .302-.24.623-.454.96-.64 0 0 .042-.045.016-.023ZM16.938 9.68a9.03 9.03 0 0 0-1.092.666v.016c.166-.098.327-.205.48-.32.199-.122.407-.23.608-.346.026.01.026-.022.004-.016ZM17.398 9.885c-.159.08-.31.175-.454.281-.109.08-.205.196-.32.266 0 0-.016.022 0 .02.115-.07.223-.151.32-.244.147-.102.3-.195.454-.288.02 0 .032-.051 0-.035ZM18.087 10.06a5.533 5.533 0 0 0-.608.44v.028c.204-.138.396-.291.601-.429.023-.013.035-.057.007-.038ZM18.675 10.211a3.01 3.01 0 0 0-.537.4v.026c.17-.14.352-.262.528-.394.025-.003.038-.048.01-.032ZM19.229 10.403c-.162.093-.315.2-.458.32v.023c.15-.106.304-.202.458-.32.016 0 .025-.036 0-.023ZM19.52 10.56l-.157.112c-.054.042-.102.093-.16.131v.016c.056-.035.111-.074.163-.115l.16-.115s.01-.029-.006-.029Z" fill="#8E4F03"/>
    <g style="mix-blend-mode:multiply" opacity=".5" fill="#864000">
      <path d="M23.946 17.03c-.359-.15-.725-.28-1.098-.39 0 0-.029.023-.016.029.358.147.73.262 1.091.39.016.01.039-.022.023-.029ZM24.282 16.941c-.359-.176-.762-.26-1.133-.406 0 0-.026 0 0 .022.367.16.742.301 1.123.423 0 0 .026-.02.01-.039ZM24.723 16.676c-.182-.064-.364-.112-.55-.163-.186-.052-.349-.125-.528-.167.15.045.288.119.435.167.211.07.423.121.64.182-.003.016.02-.013.003-.02ZM24.98 16.436c-.302-.116-.618-.202-.926-.301.292.138.598.245.912.32-.006.022.032-.013.013-.02Z"/>
    </g>
    <path d="M5.76 14.18a.78.78 0 0 1-.816.738.737.737 0 1 1 0-1.462.78.78 0 0 1 .816.723Z" fill="#8E4F03"/>
    <path d="M5.44 14.183a.522.522 0 1 1-1.043.012.522.522 0 0 1 1.043-.012Z" fill="#E6B75F"/>
    <path d="M5.168 14.336a1.528 1.528 0 0 0-.208-.147c.033-.042.068-.081.106-.118.016 0 .022-.061 0-.039a.762.762 0 0 0-.135.135h-.016a.743.743 0 0 0-.233-.122s-.023.02 0 .023c.034.02.067.042.099.067l.115.07-.054.067a.64.64 0 0 1-.07.087s-.017.028 0 .022c.015-.006.076-.074.114-.112a.275.275 0 0 0 .042-.045c.074.048.14.096.214.141.01.01.036-.016.026-.029ZM4.95 13.168a.532.532 0 0 0-.419.176.045.045 0 0 0 0 .029h.02c.059-.014.118-.025.179-.032.092-.005.184.002.275.019.07 0 .185.096.256.07 0 0 .032-.025.029-.041-.03-.147-.208-.205-.34-.221ZM5.959 14.58c-.208.02-.409.087-.586.198a.902.902 0 0 0-.374.406c0 .02.016 0 .022 0 .111-.166.262-.302.438-.396.157-.063.317-.114.48-.154.02 0 .058-.054.02-.054ZM5.54 15.866c-.023-.042-.077-.07-.113-.103a.297.297 0 0 1-.083-.13c0-.02-.035 0-.035.022a.208.208 0 0 0 .029.137c-.205.05-.42.042-.621-.025-.218-.055-.46-.042-.685-.08-.509-.087-1.04-.084-1.552-.164 0 0-.025.02 0 .026.254.068.513.112.775.131.29.048.585.045.876.1.292.054.516.06.772.111a.64.64 0 0 0 .486-.054.178.178 0 0 0 .125.086c.003 0 .038-.038.025-.057Z" fill="#8E4F03"/>
    <g style="mix-blend-mode:multiply" fill="#C17500">
      <path d="m10.538 12.643-.128-.189.083-.073v-.02c0 .017-.058.049-.09.074l-.147-.24.157-.128s.02-.048 0-.032l-.173.125c-.064-.109-.125-.22-.185-.32.035-.029.073-.054.111-.08.039-.025.032-.067 0-.045l-.13.087-.167-.32s-.029 0-.026.019l.164.32-.407.253c-.09-.135-.18-.275-.265-.413.13-.086.262-.173.4-.256 0 0 .025-.048 0-.032a6.9 6.9 0 0 0-.416.256l-.048-.08s-.023 0-.02.02l.042.08a5.063 5.063 0 0 0-.365.265l-.08-.167s-.025 0-.022.02c.003.019.048.112.077.17a5.169 5.169 0 0 0-.346.3l-.118-.288c.025.104.061.205.108.3-.121.122-.24.253-.355.391.112-.13.23-.254.355-.371l.084.18c.038.101.08.2.128.3-.098.101-.19.208-.276.32.087-.107.18-.208.279-.304.054.118.112.23.176.342 0 0 .022 0 0-.016-.051-.118-.11-.236-.163-.355.108-.102.224-.202.345-.298.077.157.16.32.25.458a4.862 4.862 0 0 0-.167.195c0 .016 0 .032.016 0a1.48 1.48 0 0 1 .167-.182l.05.083s.043-.016.033-.032l-.048-.086a5.26 5.26 0 0 1 .39-.368l.173.243c0 .016-.032.035-.051.051-.02.016 0 .029 0 0l.058-.051c.019.032.041.06.064.093.022.032.028 0 .022-.023l-.054-.099.355-.24c.044.06.092.122.14.18.048.057.042-.01.02-.017Zm-1.763.096c-.074-.157-.148-.32-.218-.473.112-.103.227-.202.346-.295.068.154.138.307.21.461-.118.1-.233.202-.338.307Zm.156-.79c.119-.093.237-.182.365-.269.072.15.152.295.24.435a6.49 6.49 0 0 0-.38.282 19.48 19.48 0 0 1-.225-.448Zm.487.94c-.083-.149-.163-.299-.24-.45.125-.1.253-.19.384-.282.073.121.153.24.237.358-.134.119-.26.243-.381.375Zm.201-.77.39-.279c.058.112.12.227.183.34a4.85 4.85 0 0 0-.342.28l-.23-.342Zm.41.64a4.195 4.195 0 0 0-.157-.257l.34-.284c.047.08.098.16.15.236-.122.103-.224.205-.333.31v-.005ZM15.392 11.11c-.184.165-.36.339-.525.522l-.352-.217c.135-.119.27-.24.394-.368.02-.02 0-.049-.02-.026l-.428.355c-.131-.083-.253-.182-.378-.275.068-.064.132-.131.196-.199.064-.067 0-.054-.023-.028l-.214.195a2.274 2.274 0 0 0-.205-.138s-.029.02-.02.026c.068.045.132.093.196.14l-.352.32-.134-.086.124.093c-.105.1-.204.195-.32.298l-.073-.067s-.039.019-.026.032l.07.064a4.06 4.06 0 0 0-.227.246l.247-.23c.105.096.22.185.32.275-.093.083-.18.166-.266.25l.285-.24c.134.105.262.22.4.32l-.125.092s-.016.029 0 .02c.05-.03.097-.063.141-.1l.035.026s.051-.03.035-.042l-.028-.02c.115-.098.22-.207.32-.32.052.04.108.074.166.103 0 0 .045-.032.029-.041a1.608 1.608 0 0 1-.154-.103l.09-.08c.09-.08.176-.166.259-.252.086.054.173.108.256.166.02 0 .051-.026.035-.038a4.267 4.267 0 0 0-.246-.173c.163-.176.32-.355.499-.519.048.032.045-.003.02.02Zm-1.686.32c.118-.099.233-.201.345-.32.116.093.228.19.346.279l-.32.282c-.125-.087-.256-.167-.384-.25l.013.01Zm-.352.32c.102-.099.208-.198.32-.29l.368.258c-.119.1-.234.205-.346.32a5.848 5.848 0 0 1-.342-.275v-.012Zm.774.615-.406-.32.358-.278c.128.092.243.204.368.3a3.273 3.273 0 0 1-.32.31v-.012Zm.371-.352c-.124-.093-.243-.202-.368-.291l.336-.282c.116.08.237.154.356.227a5.021 5.021 0 0 1-.324.359v-.013ZM17.226 11.373a3.728 3.728 0 0 0-.4.32l-.17.16a.085.085 0 0 1-.022.026l-.205-.256.163-.135c.057.084.12.163.189.237 0 0 .029 0 .022-.026-.054-.083-.112-.163-.17-.246.078-.064.154-.125.228-.192.016 0 0-.048 0-.026l-.234.196c-.07-.1-.14-.196-.208-.295h-.016c.055.11.116.217.183.32-.051.048-.11.093-.16.138-.07-.083-.138-.17-.208-.256 0 0-.02 0 0 .019l.195.26c-.134.118-.24.262-.368.386.134-.115.25-.252.38-.37l.212.258a.748.748 0 0 1-.166.19v.018a.17.17 0 0 0 .06-.048l.125-.137.067.08s.023 0 .016-.02l-.064-.083c.035-.032.067-.067.106-.099.15-.14.32-.253.474-.397-.013-.006-.007-.038-.03-.022ZM20.291 12.246a2.78 2.78 0 0 0-.32.253l-.355-.3.128-.103c.02 0 .023-.058 0-.038a1.872 1.872 0 0 0-.154.112l-.284-.244.086-.086s.02-.045 0-.029c-.02.016-.09.064-.131.096a5.694 5.694 0 0 0-.355-.265c.112.09.217.185.32.281a5.306 5.306 0 0 0-.394.368c-.109-.093-.22-.185-.32-.285 0 0-.022 0 0 .02.096.102.202.201.32.297l-.128.128c-.109.109-.224.215-.336.32a3.425 3.425 0 0 1-.265-.262c.074.098.156.19.246.275l-.058.051a2.97 2.97 0 0 1-.336.32s-.022.039 0 .026a.466.466 0 0 0 .148-.128c.086-.09.175-.173.265-.256.1.099.205.195.32.288l-.24.291c0 .016 0 .026 0 0l.256-.282.227.208s.039-.019.03-.028a2.834 2.834 0 0 0-.225-.215c.147-.16.294-.32.445-.473l.355.32c-.098.1-.19.208-.275.32 0 .019 0 .022 0 0 .09-.11.189-.212.291-.32.008.009.016.018.026.025 0 0 .041-.022.032-.035l-.026-.022c.131-.132.269-.253.41-.375l.083.064s.045-.025.029-.035l-.07-.064.3-.256s-.016.02-.045.038Zm-1.632.832-.32-.275.19-.173.284-.272.272.24c-.144.154-.288.317-.426.48Zm.192-.752c.132-.124.26-.246.394-.364l.272.246a4.84 4.84 0 0 0-.384.349c-.093-.077-.186-.154-.282-.23Zm.67.583a4.142 4.142 0 0 0-.35-.32c.122-.122.25-.24.381-.352.119.105.237.205.362.3-.14.116-.27.24-.394.372ZM22.183 12.957l-.122.096c-.096-.07-.202-.132-.3-.199l.095-.07c.02-.016.035-.07 0-.048l-.131.09a1.068 1.068 0 0 1-.183-.16s-.035.019-.025.031c.05.059.106.112.166.16-.086.065-.17.138-.253.212-.064-.055-.13-.106-.195-.164 0 0-.029.017-.019.023.06.057.122.115.186.166-.247.228-.464.484-.698.724.25-.234.477-.48.723-.708.09.077.183.15.276.221-.117.11-.224.228-.32.355 0 .02 0 .032 0 0 .114-.113.235-.22.361-.32l.131.096c.016 0 .042-.022.03-.035l-.123-.096.27-.227.089.064c.016 0 .045-.022.029-.035a2.683 2.683 0 0 1-.077-.064l.1-.09c.028-.006.025-.048-.01-.022Zm-.423.355-.278-.214c.08-.073.164-.143.25-.212.095.07.198.135.297.202a1.779 1.779 0 0 0-.269.224ZM25.6 13.728l-.24.24-.432-.32.221-.22V13.4a2.598 2.598 0 0 0-.25.215 11.77 11.77 0 0 1-.435-.32c.053-.058.102-.12.144-.186.02-.022 0-.025-.022 0l-.157.17a3.271 3.271 0 0 1-.198-.17s-.036 0-.026.03l.195.172c-.112.125-.227.246-.342.371-.131-.093-.26-.189-.387-.285l.374.295c-.098.11-.19.225-.275.345l-.403-.32s-.036.023-.026.03l.397.32a2.62 2.62 0 0 1-.32.373c.129-.107.244-.23.342-.368l.407.32a1.413 1.413 0 0 1-.215.24c-.019 0 0 .045 0 .026.087-.07.166-.15.237-.237.17.135.342.272.512.413 0 0 .051-.029.035-.042a5.542 5.542 0 0 0-.509-.419c.08-.099.157-.198.237-.285l.064-.064.439.32c-.106.106-.215.23-.205.285h-.029c0 .023.022 0 .029 0 .062-.08.128-.157.198-.23l.07.051s.023 0 0-.02l-.07-.031c.115-.125.237-.243.359-.359l.028.02s.052-.03.036-.042h-.026c.083-.077.16-.153.237-.23.032-.051.006-.083.006-.061Zm-1.35.57-.09.102-.41-.32c.074-.096.145-.189.215-.275l.074-.08.425.32c-.077.083-.144.166-.227.252h.013Zm-.176-.602c.115-.122.237-.237.349-.362.137.116.278.224.425.32-.09.09-.173.18-.259.263l-.08.086-.435-.307Zm1.02.547-.127.125a5.096 5.096 0 0 0-.426-.32c.115-.118.23-.23.349-.342l.432.32c-.09.054-.167.137-.24.217h.013Z"/>
    </g>
    <path d="M10.016 16.407c0-.096-.128-.084-.186-.048a.17.17 0 0 0-.083.163.08.08 0 0 0 0 .025c0 .061.055.084.106.068a.161.161 0 0 0 .05-.03.118.118 0 0 0 .043-.038.172.172 0 0 0 .07-.14ZM10.931 15.623a.064.064 0 0 0-.064 0 .122.122 0 0 0-.112.185.128.128 0 0 0 .189 0c.048-.041.06-.15-.013-.185ZM10.912 16.787l-.032-.016c-.077-.025-.118.07-.102.131a.091.091 0 0 0 .054.054.092.092 0 0 0 .077-.005.102.102 0 0 0 .057-.087.09.09 0 0 0-.054-.077ZM11.347 14.762a.106.106 0 0 0-.064.093.224.224 0 0 0 0 .044.328.328 0 0 0-.032.058c0 .029 0 .074.032.08.032.006.119-.083.128-.14.01-.058.013-.16-.064-.135ZM12.304 16.941a.156.156 0 0 0-.173-.02.191.191 0 0 0-.038.276c.013.027.034.05.06.064.087.054.225-.074.215-.16a.262.262 0 0 0-.064-.16ZM13.792 16.083a.035.035 0 0 0-.026 0c-.035-.022-.073.026-.086.061-.013.035 0 .109.045.103.045-.007.08-.058.083-.106a.076.076 0 0 0-.016-.058ZM13.885 17.037a.039.039 0 0 0-.045-.01.04.04 0 0 0-.013.01.042.042 0 0 0-.041 0 .065.065 0 0 0-.02.057.065.065 0 0 0 .036.048.035.035 0 0 0 .054 0 .077.077 0 0 0 .029-.047.06.06 0 0 0 0-.058ZM14.518 15.127h-.025c-.026 0-.048.047-.052.083-.003.035.048.044.074.016.026-.03.035-.08.003-.1ZM16.186 16.487l-.026-.023a.102.102 0 0 0-.064-.038c-.09 0-.153.121-.147.192a.104.104 0 0 0 .06.09c.028.009.057.009.084 0h.026a.144.144 0 0 0 .06-.045.128.128 0 0 0 .007-.176ZM17.037 16.96a.068.068 0 0 0-.042-.016c-.044 0-.093.048-.096.09-.003.042.058.125.116.077a.102.102 0 0 0 .022-.15ZM18.266 16.144c-.058-.067-.122.032-.141.083a.243.243 0 0 0-.02.08.067.067 0 0 0 .03.068c.031.019.063 0 .09-.023a.16.16 0 0 0 .04-.208ZM19.52 16.803a.048.048 0 0 0-.051 0 .083.083 0 0 0-.064.048.12.12 0 0 0-.016.1c.019.08.099.073.147.022a.101.101 0 0 0 .037-.09.102.102 0 0 0-.053-.08ZM20.323 16a.074.074 0 0 0-.112 0 .142.142 0 0 0-.028.118.065.065 0 0 0 .026.044.064.064 0 0 0 .05.01.098.098 0 0 0 .07-.06.106.106 0 0 0-.006-.112ZM19.67 15.21a.142.142 0 0 0-.156-.071.14.14 0 0 0-.055.026.138.138 0 0 0 .032.23h.026a.077.077 0 0 0 .064 0 .115.115 0 0 0 .054-.035.153.153 0 0 0 .026-.134s.013-.01.01-.016ZM17.325 15.04c0-.035-.032-.054-.064-.067a.051.051 0 0 0-.051 0 .057.057 0 0 0-.058.045.07.07 0 0 0 .038.1.048.048 0 0 0 .058 0c.032-.014.08-.049.077-.078ZM16.87 15.04a.087.087 0 0 0-.073.052.061.061 0 0 0 0 .025c0 .022 0 .045.029.045.028 0 .073-.048.08-.083a.032.032 0 0 0-.02-.037c-.005-.002-.01-.002-.016-.002ZM20.845 16s0-.038-.035-.041c-.036-.004-.052 0-.068.038a.073.073 0 0 0-.025.064c0 .058.073.041.105 0a.057.057 0 0 0 .022-.06ZM21.309 15.514c-.032 0-.077.077-.032.077s.077-.077.032-.077ZM23.114 15.133a.055.055 0 0 0-.032 0 .086.086 0 0 0-.061.09.056.056 0 0 0 .022.047.058.058 0 0 0 .051.01.09.09 0 0 0 .074-.093.058.058 0 0 0-.054-.054ZM24.32 15.255a.088.088 0 0 0-.02-.074.09.09 0 0 0-.07-.032.148.148 0 0 0-.115.138c0 .06.067.08.119.054a.227.227 0 0 0 .057-.054s.029-.023.029-.033ZM8.375 16.534c0-.028-.052.02-.048.039a.042.042 0 0 0 .022.038h.042v-.022s-.01-.039-.016-.055ZM8 16.996c-.022 0-.054.054-.022.054s.057-.054.022-.054ZM11.2 11.731c-.035 0-.086.087-.035.087.051 0 .08-.087.035-.087ZM12.922 11.053c-.042 0-.1.103-.042.103s.102-.103.042-.103Z" fill="#461800"/>
    <g style="mix-blend-mode:screen" opacity=".5" fill="#fff">
      <path d="M16.8 10.695a3.863 3.863 0 0 0-1.082-.196 12.428 12.428 0 0 0-1.036-.057 20.383 20.383 0 0 0-2.24.102c-1.28.119-2.756.301-3.892.96-.022 0-.057.083 0 .07.592-.153 1.159-.387 1.757-.521.665-.12 1.338-.193 2.013-.218a20.47 20.47 0 0 1 2.125-.067c.397 0 .793.035 1.19.074a9.53 9.53 0 0 0 1.043.109c.074.012.25-.205.122-.256ZM20.102 11.22a7.726 7.726 0 0 0-1.401-.34 5.066 5.066 0 0 0-1.386-.144c-.038 0-.13.119-.064.128.43.068.855.199 1.28.288.487.112.981.187 1.479.224.054-.003.176-.124.092-.156Z"/>
    </g>
    <path d="M5.168 12.883c-.443.227-.87.483-1.28.765a5.642 5.642 0 0 0-.58.451c-.2.186-.364.4-.556.592v.023c.358-.35.736-.68 1.133-.986.416-.294.857-.518 1.28-.777.041-.02.064-.1.003-.068ZM6.598 12.438c-.168.009-.334.041-.492.096-.202.08-.397.173-.586.279.157 0 .291-.122.438-.16a4.6 4.6 0 0 0 .621-.144c.016 0 .07-.07.02-.07Z" fill="#C6862C" style="mix-blend-mode:screen"/>
  </g>
  <defs>
    <clipPath id="a">
      <path fill="#fff" d="M0 0h32v32H0z"/>
    </clipPath>
  </defs>
</svg>
