<svg aria-hidden="true" style="position: absolute; width: 0; height: 0; overflow: hidden;" version="1.1" xmlns="http://www.w3.org/2000/svg" xmlns:xlink="http://www.w3.org/1999/xlink">
<defs>
<symbol id="edit-weight" viewBox="0 0 32 32">
<path d="M20.696 1.924c-1.373 0.179-2.531 0.917-4.216 2.689-5.324 5.599-10.673 11.319-10.869 11.62-0.295 0.453-0.571 1.081-0.673 1.532-0.143 0.623-0.624 5.051-0.587 5.405 0.089 0.865 0.347 1.433 0.897 1.979 0.585 0.581 1.241 0.839 2.139 0.837 0.64 0 5.028-0.749 5.56-0.949 0.443-0.167 0.969-0.452 1.311-0.709 0.269-0.203 11.295-11.843 11.88-12.541 0.769-0.919 1.279-1.928 1.439-2.849 0.080-0.456 0.039-1.496-0.077-1.924-0.127-0.476-0.619-1.432-0.999-1.947-0.444-0.6-1.401-1.539-2.024-1.988-0.936-0.672-1.811-1.044-2.715-1.156-0.501-0.063-0.571-0.061-1.065 0.001zM22.213 4.080c0.805 0.32 1.844 1.137 2.529 1.988 1.040 1.293 1.171 2.399 0.431 3.647-0.284 0.477-0.657 0.924-1.619 1.939-0.928 0.98-0.819 0.935-1.671 0.689-1.832-0.528-3.505-1.933-4.377-3.676-0.228-0.455-0.547-1.347-0.547-1.531 0-0.067 0.221-0.347 0.559-0.709 1.577-1.691 2.135-2.141 3.015-2.436 0.441-0.148 1.184-0.108 1.68 0.089zM15.413 8.884c0 0.137 0.663 1.369 0.979 1.82 0.489 0.697 1.308 1.544 2.035 2.103 0.635 0.488 1.747 1.088 2.412 1.301 0.248 0.080 0.272 0.101 0.213 0.181-0.036 0.051-1.845 1.973-4.021 4.275-4.083 4.316-4.148 4.379-4.764 4.601-0.309 0.111-4.561 0.835-4.905 0.835-0.32 0-0.515-0.069-0.715-0.257-0.213-0.199-0.3-0.432-0.3-0.808 0-0.296 0.439-4.299 0.511-4.668 0.017-0.088 0.125-0.356 0.24-0.595 0.2-0.419 0.344-0.579 4.216-4.677 2.204-2.335 4.029-4.232 4.055-4.216 0.025 0.015 0.045 0.063 0.045 0.105zM3.74 28.373c-0.508 0.12-0.824 0.66-0.701 1.196 0.095 0.413 0.424 0.697 0.871 0.749 0.152 0.019 5.701 0.025 12.331 0.017 12.935-0.017 12.14 0 12.445-0.276 0.2-0.181 0.292-0.411 0.292-0.727s-0.092-0.545-0.292-0.727c-0.305-0.276 0.503-0.26-12.579-0.268-6.703-0.004-12.268 0.011-12.367 0.035z"></path>
</symbol>
<symbol id="change-your-goal" viewBox="0 0 32 32">
<path d="M5.067 11.019c-0.403 0.175-0.604 0.484-0.604 0.932 0 0.247 0.028 0.339 0.164 0.533 0.227 0.324 8.995 9.063 9.293 9.261 0.695 0.464 1.221 0.621 2.080 0.621s1.384-0.157 2.080-0.621c0.341-0.228 9.152-9.031 9.317-9.309 0.161-0.272 0.187-0.692 0.056-0.944-0.241-0.463-0.788-0.669-1.255-0.476-0.14 0.057-1.545 1.425-4.705 4.581-3.096 3.091-4.581 4.537-4.747 4.624-0.203 0.105-0.319 0.125-0.747 0.125s-0.544-0.020-0.747-0.125c-0.165-0.087-1.651-1.533-4.747-4.624-3.16-3.156-4.565-4.524-4.705-4.581-0.248-0.103-0.493-0.103-0.735 0.003z"></path>
</symbol>
</defs>
</svg>
