<svg aria-hidden="true" style="position: absolute; width: 0; height: 0; overflow: hidden;" version="1.1" xmlns="http://www.w3.org/2000/svg" xmlns:xlink="http://www.w3.org/1999/xlink">
<defs>
<symbol id="settings" viewBox="0 0 32 32">
<path d="M11.219 2.455c-0.221 0.045-0.411 0.1-0.595 0.168l0.028-0.009c-0.332 0.124-2.857 1.56-3.247 1.847-0.816 0.599-1.327 1.649-1.337 2.755-0.007 0.651 0.069 0.947 0.445 1.749 0.505 1.077 0.529 1.487 0.108 1.908-0.267 0.267-0.623 0.372-1.476 0.433-0.787 0.057-1.141 0.147-1.599 0.403-0.848 0.479-1.48 1.256-1.761 2.185l-0.007 0.027c-0.085 0.303-0.097 0.567-0.097 2.080s0.012 1.777 0.097 2.080c0.288 0.956 0.92 1.733 1.749 2.202l0.019 0.010c0.457 0.256 0.812 0.345 1.599 0.403 0.853 0.061 1.209 0.167 1.476 0.433 0.417 0.417 0.393 0.84-0.109 1.911-0.375 0.799-0.451 1.096-0.444 1.747 0.011 1.105 0.521 2.156 1.337 2.756 0.385 0.283 2.924 1.724 3.253 1.848 0.651 0.243 1.428 0.241 2.179-0.007 0.695-0.229 1.333-0.791 1.804-1.585 0.585-0.989 1.188-1.327 1.821-1.020 0.287 0.139 0.585 0.476 0.932 1.049 0.633 1.048 1.387 1.568 2.495 1.72 0.576 0.079 1.123-0.001 1.64-0.24 0.212-0.097 0.967-0.509 1.679-0.915 1.157-0.661 1.34-0.784 1.725-1.165 0.709-0.703 1.009-1.451 1.007-2.507-0.003-0.66-0.121-1.107-0.467-1.74-0.591-1.088-0.46-1.812 0.383-2.128 0.185-0.069 0.524-0.123 0.987-0.157 0.387-0.028 0.836-0.091 0.997-0.139 1.191-0.356 2.176-1.435 2.423-2.647 0.12-0.592 0.12-3.233 0-3.816-0.203-0.98-0.789-1.781-1.712-2.336-0.459-0.277-0.905-0.396-1.708-0.453-1.244-0.089-1.731-0.408-1.731-1.136 0-0.341 0.101-0.645 0.428-1.28 0.309-0.601 0.408-1.020 0.401-1.688-0.009-0.98-0.328-1.748-1.008-2.427-0.391-0.389-0.547-0.495-1.813-1.212-0.355-0.215-0.905-0.519-1.464-0.811l-0.219-0.104c-0.823-0.36-1.913-0.275-2.811 0.221-0.376 0.207-0.917 0.779-1.227 1.295-0.499 0.829-0.903 1.171-1.384 1.171-0.497 0-0.912-0.345-1.403-1.171-0.509-0.855-1.211-1.413-2.044-1.627-0.413-0.105-1.012-0.141-1.351-0.081zM12.24 4.528c0.273 0.127 0.479 0.353 0.8 0.885 0.372 0.615 1.107 1.331 1.627 1.585 0.503 0.247 0.813 0.316 1.393 0.315 1.153-0.004 2.163-0.68 2.956-1.98 0.408-0.669 0.755-0.909 1.311-0.905 0.279 0.003 0.385 0.053 1.833 0.879 1.268 0.724 1.557 0.963 1.705 1.411 0.159 0.477 0.096 0.872-0.255 1.603-0.365 0.761-0.468 1.171-0.471 1.879-0.004 0.908 0.281 1.565 0.939 2.164 0.595 0.543 1.371 0.831 2.464 0.913 0.863 0.067 1.209 0.224 1.541 0.703 0.231 0.332 0.287 0.733 0.287 2.021s-0.056 1.689-0.287 2.021c-0.332 0.479-0.679 0.636-1.541 0.703-1.093 0.083-1.869 0.371-2.464 0.913-0.657 0.599-0.943 1.256-0.939 2.164 0.003 0.708 0.105 1.117 0.471 1.879 0.351 0.731 0.413 1.125 0.255 1.603-0.148 0.448-0.437 0.687-1.705 1.411-1.448 0.825-1.555 0.876-1.833 0.879-0.555 0.004-0.885-0.216-1.263-0.84-0.828-1.369-1.824-2.043-3.027-2.047-0.656-0.001-1.080 0.124-1.66 0.489-0.44 0.279-1.008 0.88-1.336 1.415-0.463 0.756-0.76 0.98-1.297 0.983-0.332 0.001-0.284 0.024-1.823-0.844-1.341-0.756-1.579-0.948-1.76-1.427-0.172-0.455-0.132-0.829 0.145-1.381 0.688-1.373 0.772-2.472 0.264-3.472-0.224-0.431-0.54-0.786-0.925-1.048l-0.010-0.006c-0.628-0.417-1.213-0.596-2.192-0.671-0.733-0.056-0.991-0.148-1.303-0.463-0.437-0.441-0.435-0.428-0.435-2.26s-0.003-1.819 0.435-2.26c0.312-0.315 0.569-0.407 1.303-0.463 1.575-0.119 2.597-0.684 3.127-1.725 0.508-1 0.424-2.099-0.264-3.472-0.277-0.552-0.317-0.927-0.145-1.381 0.181-0.479 0.419-0.671 1.76-1.427 0.66-0.372 1.271-0.713 1.359-0.759 0.221-0.113 0.699-0.107 0.96 0.015zM15.46 11.043c-1.397 0.158-2.602 0.869-3.41 1.905l-0.008 0.011c-0.317 0.417-0.751 1.291-0.865 1.741-0.096 0.39-0.151 0.839-0.151 1.3s0.055 0.91 0.159 1.339l-0.008-0.039c0.115 0.451 0.548 1.324 0.865 1.741 0.488 0.643 1.089 1.116 1.895 1.492 0.599 0.284 1.301 0.449 2.042 0.449 0.179 0 0.356-0.010 0.53-0.029l-0.022 0.002c0.581-0.044 1.117-0.195 1.603-0.434l-0.026 0.011c1.14-0.532 1.875-1.253 2.417-2.373 0.259-0.485 0.429-1.055 0.474-1.659l0.001-0.014c0.017-0.153 0.027-0.33 0.027-0.509 0-0.741-0.166-1.443-0.462-2.072l0.013 0.030c-0.587-1.256-1.504-2.113-2.809-2.623-0.588-0.231-1.561-0.347-2.264-0.271zM16.765 13.097c0.501 0.129 0.929 0.383 1.341 0.796 0.608 0.608 0.88 1.259 0.88 2.107s-0.272 1.499-0.88 2.107c-0.608 0.608-1.259 0.88-2.107 0.88s-1.499-0.272-2.107-0.88c-0.608-0.608-0.88-1.259-0.88-2.107s0.272-1.499 0.88-2.107c0.612-0.611 1.221-0.869 2.072-0.876 0.271-0.003 0.613 0.032 0.8 0.080z"></path>
</symbol>
<symbol id="open-menu" viewBox="0 0 32 32">
<path d="M8.027 3.555c-1.476 0.225-2.691 1.166-3.294 2.452l-0.011 0.027c-0.457 0.961-0.489 2.279-0.081 3.367 0.349 0.936 1.371 1.968 2.332 2.359 0.96 0.389 2.323 0.389 3.283 0 0.961-0.391 1.983-1.423 2.332-2.359 0.289-0.771 0.364-1.773 0.193-2.572-0.161-0.752-0.647-1.585-1.247-2.14-0.819-0.759-1.652-1.103-2.76-1.14-0.094-0.005-0.205-0.008-0.316-0.008-0.151 0-0.302 0.005-0.45 0.016l0.020-0.001zM22.8 3.555c-1.476 0.225-2.692 1.166-3.294 2.452l-0.011 0.027c-0.457 0.961-0.489 2.279-0.081 3.367 0.349 0.936 1.371 1.968 2.332 2.359 0.96 0.389 2.323 0.389 3.283 0 0.961-0.391 1.983-1.423 2.332-2.359 0.289-0.771 0.364-1.773 0.193-2.572-0.161-0.752-0.647-1.585-1.247-2.14-0.819-0.759-1.652-1.103-2.76-1.14-0.094-0.005-0.205-0.008-0.316-0.008-0.151 0-0.302 0.005-0.451 0.016l0.020-0.001zM9.301 5.632c0.567 0.16 1.1 0.639 1.381 1.237 0.305 0.653 0.256 1.512-0.121 2.107-0.556 0.876-1.549 1.279-2.528 1.024-0.797-0.224-1.411-0.841-1.628-1.622l-0.004-0.016c-0.115-0.424-0.052-1.075 0.144-1.493 0.503-1.075 1.596-1.564 2.756-1.236zM24.075 5.632c0.567 0.16 1.1 0.639 1.381 1.237 0.305 0.653 0.256 1.512-0.121 2.107-0.556 0.876-1.549 1.279-2.528 1.024-0.797-0.224-1.411-0.841-1.628-1.622l-0.004-0.016c-0.115-0.424-0.052-1.075 0.144-1.493 0.503-1.075 1.596-1.564 2.756-1.236zM7.656 20.035c-1.045 0.224-2.023 0.915-2.649 1.875-0.449 0.688-0.644 1.373-0.644 2.277-0.001 0.716 0.107 1.249 0.359 1.78 0.576 1.215 1.547 2.025 2.852 2.385 0.481 0.133 1.599 0.133 2.080 0 1.305-0.36 2.276-1.171 2.852-2.385 0.457-0.961 0.489-2.279 0.081-3.367-0.349-0.936-1.371-1.968-2.332-2.359-0.709-0.288-1.811-0.376-2.599-0.207zM22.429 20.035c-1.045 0.224-2.023 0.915-2.649 1.875-0.449 0.688-0.644 1.373-0.644 2.277-0.001 0.716 0.107 1.249 0.359 1.78 0.576 1.215 1.547 2.025 2.852 2.385 0.481 0.133 1.599 0.133 2.080 0 1.305-0.36 2.276-1.171 2.852-2.385 0.457-0.961 0.489-2.279 0.081-3.367-0.349-0.936-1.371-1.968-2.332-2.359-0.709-0.288-1.811-0.376-2.599-0.207zM9.193 22c0.772 0.219 1.371 0.805 1.606 1.551l0.005 0.017c0.137 0.472 0.088 1.115-0.121 1.563-0.395 0.843-1.157 1.335-2.069 1.335-0.911 0-1.675-0.492-2.068-1.333-0.119-0.232-0.189-0.507-0.189-0.797v-0c-0.036-0.707 0.152-1.225 0.62-1.7 0.612-0.623 1.399-0.847 2.217-0.635zM23.967 22c0.772 0.219 1.371 0.805 1.606 1.551l0.005 0.017c0.137 0.472 0.088 1.115-0.121 1.563-0.395 0.843-1.157 1.335-2.069 1.335-0.911 0-1.675-0.492-2.068-1.333-0.119-0.232-0.189-0.507-0.189-0.797v-0c-0.036-0.707 0.152-1.225 0.62-1.7 0.612-0.623 1.399-0.847 2.217-0.635z"></path>
</symbol>
<symbol id="logout" viewBox="0 0 32 32">
<path d="M18.64 2.381c-1.971 0.161-3.673 0.699-4.833 1.525-0.799 0.571-1.611 1.565-2.045 2.505-0.401 0.869-0.701 2-0.833 3.136-0.077 0.673-0.043 0.9 0.176 1.149 0.408 0.465 0.98 0.503 1.432 0.093 0.243-0.219 0.283-0.34 0.399-1.191 0.401-2.973 1.66-4.424 4.345-5.011 0.951-0.208 1.38-0.243 2.96-0.24 1.316 0.001 1.655 0.019 2.267 0.116 2.847 0.453 4.195 1.588 4.828 4.067 0.323 1.265 0.357 2.103 0.332 8.055-0.024 5.427-0.031 5.591-0.283 6.707-0.403 1.781-1.197 2.907-2.531 3.587-0.393 0.182-0.863 0.353-1.349 0.485l-0.065 0.015c-1 0.253-2.703 0.376-4.147 0.297-2.733-0.148-4.371-0.831-5.327-2.22-0.444-0.647-0.828-1.711-0.984-2.729-0.149-0.98-0.185-1.123-0.327-1.291-0.537-0.639-1.583-0.389-1.749 0.417-0.045 0.22 0.048 0.98 0.219 1.78 0.523 2.448 1.695 4.077 3.621 5.028 1.416 0.7 3.241 1.043 5.547 1.043 5.792 0.001 8.629-2.221 9.263-7.252 0.101-0.808 0.103-12.039 0.001-12.853-0.217-1.741-0.643-3.020-1.361-4.095-1.207-1.801-3.089-2.777-5.949-3.080-0.652-0.069-2.949-0.097-3.607-0.044zM7.249 10.717c-0.387 0.257-4.724 4.639-4.82 4.868-0.050 0.123-0.079 0.265-0.079 0.415s0.029 0.292 0.082 0.422l-0.003-0.008c0.096 0.229 4.433 4.611 4.82 4.868 0.188 0.125 0.293 0.157 0.521 0.157 0.88 0 1.319-0.884 0.793-1.592-0.101-0.136-0.761-0.824-1.468-1.528l-1.284-1.28 7.241-0.027c6.605-0.024 7.255-0.035 7.4-0.115 0.314-0.16 0.525-0.48 0.525-0.85 0-0.017-0-0.034-0.001-0.051l0 0.002c0.001-0.014 0.001-0.031 0.001-0.049 0-0.37-0.211-0.691-0.52-0.848l-0.005-0.002c-0.145-0.080-0.795-0.091-7.4-0.115l-7.241-0.027 1.284-1.28c0.707-0.704 1.367-1.392 1.468-1.528 0.525-0.708 0.087-1.592-0.793-1.592-0.015-0.001-0.033-0.002-0.051-0.002-0.178 0-0.342 0.060-0.472 0.16l0.002-0.001z"></path>
</symbol>
<symbol id="close-modal" viewBox="0 0 32 32">
<path d="M15.067 1.707c-3.459 0.216-6.675 1.683-9.176 4.184-2.297 2.299-3.665 5.071-4.107 8.323-0.117 0.865-0.117 2.708 0 3.573 0.351 2.58 1.256 4.787 2.825 6.88 0.608 0.812 1.891 2.097 2.697 2.704 2.097 1.579 4.328 2.497 6.907 2.844 0.864 0.116 2.709 0.116 3.573 0 2.579-0.347 4.809-1.265 6.907-2.844 0.787-0.592 2.085-1.891 2.677-2.677 1.579-2.097 2.497-4.328 2.844-6.907 0.116-0.864 0.116-2.709 0-3.573-0.347-2.579-1.265-4.809-2.844-6.907-0.592-0.787-1.891-2.085-2.677-2.677-2.835-2.135-6.153-3.141-9.627-2.923zM17.307 3.733c1.832 0.201 3.856 0.921 5.36 1.908 2.413 1.581 4.155 3.839 5.037 6.531 0.451 1.376 0.615 2.397 0.615 3.828s-0.164 2.452-0.615 3.828c-1.247 3.74-4.136 6.629-7.789 7.851l-0.087 0.025c-1.376 0.451-2.397 0.615-3.828 0.615s-2.452-0.164-3.828-0.615c-4.032-1.354-7.087-4.615-8.128-8.682l-0.019-0.086c-0.269-1.071-0.315-1.489-0.315-2.936 0-1.696 0.127-2.512 0.613-3.949 1.516-4.475 5.616-7.787 10.289-8.312 0.572-0.064 2.129-0.067 2.693-0.005zM11.813 11.316c-0.169 0.093-0.403 0.325-0.485 0.481-0.088 0.169-0.099 0.613-0.019 0.825 0.032 0.083 0.781 0.877 1.665 1.764l1.609 1.613-1.609 1.613c-0.884 0.888-1.633 1.681-1.665 1.764-0.080 0.212-0.069 0.656 0.019 0.825 0.087 0.164 0.323 0.396 0.495 0.484 0.171 0.088 0.636 0.073 0.833-0.025 0.093-0.047 0.884-0.796 1.757-1.667l1.587-1.58 1.587 1.58c0.873 0.871 1.664 1.62 1.757 1.667 0.211 0.105 0.665 0.111 0.859 0.011 0.164-0.087 0.396-0.323 0.484-0.495 0.088-0.171 0.073-0.636-0.025-0.833-0.047-0.093-0.796-0.884-1.667-1.757l-1.58-1.587 1.58-1.587c0.871-0.873 1.62-1.664 1.667-1.757 0.099-0.197 0.113-0.663 0.025-0.833-0.12-0.204-0.284-0.37-0.478-0.491l-0.006-0.004c-0.169-0.088-0.613-0.099-0.825-0.019-0.083 0.032-0.877 0.781-1.764 1.667l-1.615 1.609-1.585-1.581c-0.873-0.869-1.664-1.619-1.757-1.665-0.195-0.097-0.684-0.111-0.843-0.023z"></path>
</symbol>
<symbol id="edit-weight" viewBox="0 0 32 32">
<path d="M20.696 1.924c-1.373 0.179-2.531 0.917-4.216 2.689-5.324 5.599-10.673 11.319-10.869 11.62-0.295 0.453-0.571 1.081-0.673 1.532-0.143 0.623-0.624 5.051-0.587 5.405 0.089 0.865 0.347 1.433 0.897 1.979 0.585 0.581 1.241 0.839 2.139 0.837 0.64 0 5.028-0.749 5.56-0.949 0.443-0.167 0.969-0.452 1.311-0.709 0.269-0.203 11.295-11.843 11.88-12.541 0.769-0.919 1.279-1.928 1.439-2.849 0.080-0.456 0.039-1.496-0.077-1.924-0.127-0.476-0.619-1.432-0.999-1.947-0.444-0.6-1.401-1.539-2.024-1.988-0.936-0.672-1.811-1.044-2.715-1.156-0.501-0.063-0.571-0.061-1.065 0.001zM22.213 4.080c0.805 0.32 1.844 1.137 2.529 1.988 1.040 1.293 1.171 2.399 0.431 3.647-0.284 0.477-0.657 0.924-1.619 1.939-0.928 0.98-0.819 0.935-1.671 0.689-1.832-0.528-3.505-1.933-4.377-3.676-0.228-0.455-0.547-1.347-0.547-1.531 0-0.067 0.221-0.347 0.559-0.709 1.577-1.691 2.135-2.141 3.015-2.436 0.441-0.148 1.184-0.108 1.68 0.089zM15.413 8.884c0 0.137 0.663 1.369 0.979 1.82 0.489 0.697 1.308 1.544 2.035 2.103 0.635 0.488 1.747 1.088 2.412 1.301 0.248 0.080 0.272 0.101 0.213 0.181-0.036 0.051-1.845 1.973-4.021 4.275-4.083 4.316-4.148 4.379-4.764 4.601-0.309 0.111-4.561 0.835-4.905 0.835-0.32 0-0.515-0.069-0.715-0.257-0.213-0.199-0.3-0.432-0.3-0.808 0-0.296 0.439-4.299 0.511-4.668 0.017-0.088 0.125-0.356 0.24-0.595 0.2-0.419 0.344-0.579 4.216-4.677 2.204-2.335 4.029-4.232 4.055-4.216 0.025 0.015 0.045 0.063 0.045 0.105zM3.74 28.373c-0.508 0.12-0.824 0.66-0.701 1.196 0.095 0.413 0.424 0.697 0.871 0.749 0.152 0.019 5.701 0.025 12.331 0.017 12.935-0.017 12.14 0 12.445-0.276 0.2-0.181 0.292-0.411 0.292-0.727s-0.092-0.545-0.292-0.727c-0.305-0.276 0.503-0.26-12.579-0.268-6.703-0.004-12.268 0.011-12.367 0.035z"></path>
</symbol>
<symbol id="change-your-goal" viewBox="0 0 32 32">
<path d="M5.067 11.019c-0.403 0.175-0.604 0.484-0.604 0.932 0 0.247 0.028 0.339 0.164 0.533 0.227 0.324 8.995 9.063 9.293 9.261 0.695 0.464 1.221 0.621 2.080 0.621s1.384-0.157 2.080-0.621c0.341-0.228 9.152-9.031 9.317-9.309 0.161-0.272 0.187-0.692 0.056-0.944-0.241-0.463-0.788-0.669-1.255-0.476-0.14 0.057-1.545 1.425-4.705 4.581-3.096 3.091-4.581 4.537-4.747 4.624-0.203 0.105-0.319 0.125-0.747 0.125s-0.544-0.020-0.747-0.125c-0.165-0.087-1.651-1.533-4.747-4.624-3.16-3.156-4.565-4.524-4.705-4.581-0.248-0.103-0.493-0.103-0.735 0.003z"></path>
</symbol>
<symbol id="avatar-sign-in" viewBox="0 0 32 32">
<path d="M15.333 1.688c-5.965 0.296-10.949 4.19-12.846 9.544l-0.031 0.1c-0.545 1.581-0.763 2.916-0.763 4.668s0.217 3.087 0.763 4.668c1.053 3.063 3.181 5.74 5.971 7.513 0.537 0.341 1.983 1.047 2.632 1.285 2.751 1.008 5.892 1.143 8.701 0.372 0.98-0.265 1.83-0.601 2.632-1.018l-0.072 0.034c1.673-0.821 2.935-1.772 4.277-3.223 1.731-1.868 3.012-4.427 3.476-6.944 0.177-0.959 0.232-1.593 0.232-2.688 0-2.328-0.445-4.263-1.455-6.32-1.792-3.652-5.003-6.328-8.953-7.465-1.195-0.341-2.568-0.538-3.986-0.538-0.203 0-0.405 0.004-0.607 0.012l0.029-0.001zM18.080 3.84c2.159 0.393 4.062 1.284 5.652 2.55l-0.026-0.020c0.681 0.58 1.294 1.192 1.857 1.847l0.019 0.022c1.065 1.322 1.88 2.895 2.344 4.612l0.020 0.089c0.293 1.16 0.347 1.633 0.347 3.059s-0.053 1.899-0.347 3.059c-0.475 1.757-1.255 3.289-2.288 4.614l0.022-0.029-0.248 0.311-0.309-0.471c-1.081-1.641-3.217-2.933-5.843-3.533-2.508-0.573-5.4-0.444-7.795 0.349-2.053 0.68-3.715 1.827-4.608 3.184l-0.309 0.471-0.248-0.311c-1.236-1.552-2.12-3.539-2.487-5.591-0.109-0.607-0.124-0.864-0.124-2.053s0.015-1.447 0.124-2.053c0.393-2.192 1.304-4.124 2.601-5.731l-0.019 0.024c0.582-0.678 1.195-1.29 1.854-1.85l0.023-0.019c1.563-1.249 3.468-2.138 5.551-2.513l0.076-0.011c0.944-0.156 0.964-0.157 2.293-0.14 0.949 0.012 1.339 0.040 1.867 0.133zM15.173 7.385c-0.489 0.064-0.933 0.197-1.343 0.39l0.027-0.012c-2.607 1.116-3.897 4.207-2.859 6.849 0.683 1.742 2.21 3.018 4.063 3.334l0.031 0.004c3.104 0.508 5.915-1.639 6.236-4.761 0.289-2.813-1.711-5.383-4.52-5.805-0.246-0.044-0.529-0.069-0.818-0.069s-0.572 0.025-0.847 0.073l0.029-0.004zM16.88 9.423c0.783 0.195 1.713 0.928 2.096 1.653 0.609 1.159 0.483 2.663-0.309 3.649-0.669 0.833-1.661 1.328-2.667 1.328-0.816-0.023-1.56-0.315-2.151-0.789l0.007 0.005c-0.813-0.685-1.213-1.541-1.215-2.604-0.003-0.937 0.301-1.66 0.985-2.348 0.891-0.897 2.003-1.203 3.253-0.895zM18.027 21.732c2.869 0.497 5.168 1.869 5.765 3.443l0.108 0.284-0.172 0.137c-2.097 1.691-4.792 2.716-7.726 2.724h-0.002c-2.936-0.008-5.631-1.033-7.752-2.743l0.024 0.019-0.172-0.137 0.108-0.284c0.559-1.469 2.679-2.813 5.261-3.336 0.367-0.075 0.84-0.156 1.052-0.183 0.615-0.077 2.913-0.027 3.505 0.076z"></path>
</symbol>
<symbol id="icon-right-converted" viewBox="0 0 32 32">
<path d="M18.8 7.017c-0.581 0.303-0.724 0.969-0.323 1.508 0.1 0.136 1.577 1.64 3.28 3.341l3.096 3.093-10.227 0.027c-9.4 0.024-10.24 0.033-10.387 0.115-0.359 0.199-0.56 0.521-0.56 0.899s0.201 0.7 0.56 0.899c0.147 0.081 0.987 0.091 10.387 0.115l10.227 0.027-3.096 3.093c-1.703 1.701-3.18 3.205-3.28 3.341-0.527 0.708-0.088 1.592 0.792 1.592 0.228 0 0.333-0.032 0.521-0.157 0.395-0.264 8.352-8.265 8.447-8.495 0.048-0.123 0.078-0.264 0.083-0.413l0-0.002c-0.005-0.15-0.035-0.292-0.086-0.424l0.003 0.009c-0.095-0.229-8.052-8.231-8.447-8.495-0.129-0.1-0.294-0.16-0.472-0.16-0.022 0-0.043 0.001-0.064 0.003l0.003-0c-0.004-0-0.010-0-0.015-0-0.159 0-0.311 0.031-0.451 0.087l0.008-0.003z"></path>
</symbol>
</defs>
</svg>
