<svg aria-hidden="true" style="position: absolute; width: 0; height: 0; overflow: hidden;" version="1.1" xmlns="http://www.w3.org/2000/svg" xmlns:xlink="http://www.w3.org/1999/xlink">
<defs>
<symbol id="avatar-sign-in" viewBox="0 0 32 32">
<path d="M15.333 1.688c-5.965 0.296-10.949 4.19-12.846 9.544l-0.031 0.1c-0.545 1.581-0.763 2.916-0.763 4.668s0.217 3.087 0.763 4.668c1.053 3.063 3.181 5.74 5.971 7.513 0.537 0.341 1.983 1.047 2.632 1.285 2.751 1.008 5.892 1.143 8.701 0.372 0.98-0.265 1.83-0.601 2.632-1.018l-0.072 0.034c1.673-0.821 2.935-1.772 4.277-3.223 1.731-1.868 3.012-4.427 3.476-6.944 0.177-0.959 0.232-1.593 0.232-2.688 0-2.328-0.445-4.263-1.455-6.32-1.792-3.652-5.003-6.328-8.953-7.465-1.195-0.341-2.568-0.538-3.986-0.538-0.203 0-0.405 0.004-0.607 0.012l0.029-0.001zM18.080 3.84c2.159 0.393 4.062 1.284 5.652 2.55l-0.026-0.020c0.681 0.58 1.294 1.192 1.857 1.847l0.019 0.022c1.065 1.322 1.88 2.895 2.344 4.612l0.020 0.089c0.293 1.16 0.347 1.633 0.347 3.059s-0.053 1.899-0.347 3.059c-0.475 1.757-1.255 3.289-2.288 4.614l0.022-0.029-0.248 0.311-0.309-0.471c-1.081-1.641-3.217-2.933-5.843-3.533-2.508-0.573-5.4-0.444-7.795 0.349-2.053 0.68-3.715 1.827-4.608 3.184l-0.309 0.471-0.248-0.311c-1.236-1.552-2.12-3.539-2.487-5.591-0.109-0.607-0.124-0.864-0.124-2.053s0.015-1.447 0.124-2.053c0.393-2.192 1.304-4.124 2.601-5.731l-0.019 0.024c0.582-0.678 1.195-1.29 1.854-1.85l0.023-0.019c1.563-1.249 3.468-2.138 5.551-2.513l0.076-0.011c0.944-0.156 0.964-0.157 2.293-0.14 0.949 0.012 1.339 0.040 1.867 0.133zM15.173 7.385c-0.489 0.064-0.933 0.197-1.343 0.39l0.027-0.012c-2.607 1.116-3.897 4.207-2.859 6.849 0.683 1.742 2.21 3.018 4.063 3.334l0.031 0.004c3.104 0.508 5.915-1.639 6.236-4.761 0.289-2.813-1.711-5.383-4.52-5.805-0.246-0.044-0.529-0.069-0.818-0.069s-0.572 0.025-0.847 0.073l0.029-0.004zM16.88 9.423c0.783 0.195 1.713 0.928 2.096 1.653 0.609 1.159 0.483 2.663-0.309 3.649-0.669 0.833-1.661 1.328-2.667 1.328-0.816-0.023-1.56-0.315-2.151-0.789l0.007 0.005c-0.813-0.685-1.213-1.541-1.215-2.604-0.003-0.937 0.301-1.66 0.985-2.348 0.891-0.897 2.003-1.203 3.253-0.895zM18.027 21.732c2.869 0.497 5.168 1.869 5.765 3.443l0.108 0.284-0.172 0.137c-2.097 1.691-4.792 2.716-7.726 2.724h-0.002c-2.936-0.008-5.631-1.033-7.752-2.743l0.024 0.019-0.172-0.137 0.108-0.284c0.559-1.469 2.679-2.813 5.261-3.336 0.367-0.075 0.84-0.156 1.052-0.183 0.615-0.077 2.913-0.027 3.505 0.076z"></path>
</symbol>
</defs>
</svg>
