<svg aria-hidden="true" style="position: absolute; width: 0; height: 0; overflow: hidden;" version="1.1" xmlns="http://www.w3.org/2000/svg" xmlns:xlink="http://www.w3.org/1999/xlink">
<defs>

<symbol id="icon-logo" viewBox="0 0 32 32">
<path d="M29.082 0.314h-4.009c-1.237 0-2.24 0.983-2.24 2.195v3.929c0 1.212 1.003 2.195 2.24 2.195h4.009c1.237 0 2.24-0.983 2.24-2.195v-3.929c0-1.212-1.003-2.195-2.24-2.195z"></path>
<path d="M6.73 23.040h-4.318c-1.332 0-2.412 0.983-2.412 2.195v3.929c0 1.213 1.080 2.195 2.412 2.195h4.318c1.332 0 2.412-0.983 2.412-2.195v-3.929c0-1.212-1.080-2.195-2.412-2.195z"></path>
<path d="M6.25 11.582h-4.009c-1.237 0-2.24 0.983-2.24 2.195v3.929c0 1.212 1.003 2.195 2.24 2.195h4.009c1.237 0 2.24-0.983 2.24-2.195v-3.929c0-1.212-1.003-2.195-2.24-2.195z"></path>
<path d="M17.766 22.978h-4.009c-1.237 0-2.24 0.983-2.24 2.195l-0 3.929c0 1.212 1.003 2.195 2.241 2.195h4.009c1.237 0 2.24-0.983 2.24-2.195v-3.929c0-1.212-1.003-2.195-2.24-2.195z"></path>
<path d="M6.25 0.086h-4.009c-1.237 0-2.24 0.983-2.24 2.195v3.929c0 1.212 1.003 2.195 2.24 2.195h4.009c1.237 0 2.24-0.983 2.24-2.195v-3.929c0-1.212-1.003-2.195-2.24-2.195z"></path>
<path d="M18.076 11.697h-4.009c-1.237 0-2.24 0.983-2.24 2.195v3.929c0 1.212 1.003 2.195 2.24 2.195h4.009c1.237 0 2.24-0.983 2.24-2.195v-3.929c0-1.212-1.003-2.195-2.24-2.195z"></path>
<path d="M29.333 22.978h-4.010c-1.237 0-2.24 0.983-2.24 2.195v3.929c0 1.212 1.003 2.195 2.24 2.195h4.009c1.237 0 2.24-0.983 2.24-2.195v-3.929c0-1.212-1.003-2.195-2.24-2.195z"></path>
<path d="M17.591 0.224h-4.009c-1.237 0-2.24 0.983-2.24 2.195v3.929c0 1.212 1.003 2.195 2.24 2.195h4.009c1.237 0 2.24-0.984 2.24-2.196v-3.929c0-1.212-1.003-2.195-2.24-2.195z"></path>
<path d="M29.044 11.926h-4.010c-1.237 0-2.24 0.983-2.24 2.195v3.929c0 1.212 1.003 2.195 2.24 2.195h4.009c1.237 0 2.24-0.983 2.24-2.195v-3.929c0-1.212-1.003-2.195-2.24-2.195z"></path>
</symbol>

<symbol id="icon-bottle" viewBox="0 0 32 32">
<path fill="none" stroke="#b6c3ff" style="stroke: var(--color1, #b6c3ff)" stroke-linejoin="round" stroke-linecap="round" stroke-miterlimit="4" stroke-width="0.8" d="M24 20v5.333c0 2.2-1.8 4-4 4h-8c-2.2 0-4-1.8-4-4v-6.693l5.187 0.027c0.973 0 1.933 0.227 2.813 0.667s1.84 0.667 2.827 0.667h5.173z"></path>
<path fill="none" stroke="#b6c3ff" style="stroke: var(--color1, #b6c3ff)" stroke-linejoin="round" stroke-linecap="round" stroke-miterlimit="4" stroke-width="0.8" d="M24 14.44v5.56h-5.173c-0.987 0-1.947-0.227-2.827-0.667s-1.84-0.667-2.813-0.667l-5.187-0.027v-4.2c0-0.613 0.347-1.453 0.787-1.893l2.827-2.827c0.24-0.24 0.387-0.587 0.387-0.933v-2.12h8v2.12c0 0.347 0.147 0.693 0.387 0.933l2.827 2.827c0.44 0.44 0.787 1.28 0.787 1.893z"></path>
<path fill="none" stroke="#b6c3ff" style="stroke: var(--color1, #b6c3ff)" stroke-linejoin="round" stroke-linecap="round" stroke-miterlimit="4" stroke-width="0.6" d="M24 21.333v-1.333"></path>
<path fill="none" stroke="#b6c3ff" style="stroke: var(--color1, #b6c3ff)" stroke-linejoin="round" stroke-linecap="round" stroke-miterlimit="4" stroke-width="0.6" d="M8 19.973v-1.333"></path>
<path fill="none" stroke="#b6c3ff" style="stroke: var(--color1, #b6c3ff)" stroke-linejoin="round" stroke-linecap="round" stroke-miterlimit="4" stroke-width="0.8" d="M19.333 6.667h-6.667c-1.107 0-2-0.907-2-2s0.893-2 2-2h6.667c1.107 0 2 0.907 2 2s-0.893 2-2 2z"></path>
</symbol>

<symbol id="icon-trash-bin" viewBox="0 0 32 32">
<path fill="none" stroke="#e3ffa8" style="stroke: var(--color2, #e3ffa8)" stroke-linejoin="round" stroke-linecap="round" stroke-miterlimit="4" stroke-width="2.4" d="M12 4h8M13.333 14v6.667M18.667 14v6.667"></path>
<path fill="none" stroke="#e3ffa8" style="stroke: var(--color2, #e3ffa8)" stroke-linejoin="round" stroke-linecap="round" stroke-miterlimit="4" stroke-width="2.4" d="M4 8h24M25.333 8l-0.935 14.026c-0.14 2.104-0.21 3.156-0.665 3.954-0.4 0.702-1.004 1.267-1.731 1.62-0.826 0.4-1.881 0.4-3.99 0.4h-4.025c-2.109 0-3.163 0-3.99-0.4-0.727-0.352-1.331-0.917-1.731-1.62-0.455-0.798-0.525-1.85-0.665-3.954l-0.935-14.026"></path>
</symbol>

<symbol id="icon-bubble" viewBox="0 0 32 32">
<path fill="none" stroke="#45ffbc" style="stroke: var(--color3, #45ffbc)" stroke-linejoin="miter" stroke-linecap="butt" stroke-miterlimit="10" stroke-width="0.8" d="M20.786 16.347c3.778 0 6.84-3.062 6.84-6.84s-3.062-6.84-6.84-6.84c-3.778 0-6.84 3.062-6.84 6.84s3.062 6.84 6.84 6.84z"></path>
<path fill="none" stroke="#45ffbc" style="stroke: var(--color3, #45ffbc)" stroke-linejoin="miter" stroke-linecap="butt" stroke-miterlimit="10" stroke-width="0.8" d="M8.48 25.92c2.268 0 4.107-1.839 4.107-4.107s-1.839-4.107-4.107-4.107c-2.268 0-4.107 1.839-4.107 4.107s1.839 4.107 4.107 4.107z"></path>
<path fill="none" stroke="#45ffbc" style="stroke: var(--color3, #45ffbc)" stroke-linejoin="miter" stroke-linecap="butt" stroke-miterlimit="10" stroke-width="0.8" d="M22.16 29.333c1.885 0 3.413-1.528 3.413-3.413s-1.528-3.413-3.413-3.413c-1.885 0-3.413 1.528-3.413 3.413s1.528 3.413 3.413 3.413z"></path>
</symbol>

<symbol id="icon-plus" viewBox="0 0 32 32">
<path d="M29.086 13.079h-10.174v-10.166c0-1.609-1.298-2.914-2.907-2.914s-2.907 1.305-2.907 2.914v10.172h-10.179c-1.609 0-2.917 1.305-2.917 2.914-0.001 0.804 0.324 1.541 0.851 2.068 0.527 0.528 1.255 0.861 2.058 0.861h10.187v10.158c0 0.805 0.319 1.534 0.846 2.059 0.527 0.527 1.252 0.854 2.057 0.854 1.608 0 2.91-1.305 2.91-2.913v-10.159h10.174c1.609 0 2.914-1.316 2.913-2.925s-1.305-2.925-2.913-2.925z"></path>
</symbol>

<symbol id="icon-arrow-right" viewBox="0 0 32 32">
<path fill="none" stroke="#b6b6b6" style="stroke: var(--color4, #b6b6b6)" stroke-linejoin="round" stroke-linecap="round" stroke-miterlimit="10" stroke-width="2" d="M19.24 7.906l8.093 8.093-8.093 8.093"></path>
<path fill="none" stroke="#b6b6b6" style="stroke: var(--color4, #b6b6b6)" stroke-linejoin="round" stroke-linecap="round" stroke-miterlimit="10" stroke-width="2" d="M4.666 16h22.44"></path>
</symbol>

    <symbol id="error" width="16" height="16" viewBox="0 0 16 16" fill="none" xmlns="http://www.w3.org/2000/svg">
<path d="M0 8C0 3.58125 3.58125 0 8 0C12.4187 0 16 3.58125 16 8C16 12.4187 12.4187 16 8 16C3.58125 16 0 12.4187 0 8ZM5.46875 6.50313L6.94063 7.97188L5.46875 9.46875C5.17812 9.7625 5.17812 10.2375 5.46875 10.5031C5.7625 10.8219 6.2375 10.8219 6.50313 10.5031L7.97188 9.05937L9.46875 10.5031C9.7625 10.8219 10.2375 10.8219 10.5031 10.5031C10.8219 10.2375 10.8219 9.7625 10.5031 9.46875L9.05937 7.97188L10.5031 6.50313C10.8219 6.2375 10.8219 5.7625 10.5031 5.46875C10.2375 5.17812 9.7625 5.17812 9.46875 5.46875L7.97188 6.94063L6.50313 5.46875C6.2375 5.17812 5.7625 5.17812 5.46875 5.46875C5.17812 5.7625 5.17812 6.2375 5.46875 6.50313Z" fill="#E74A3B"/>
</symbol>
<symbol id="correct"  width="16" height="16" viewBox="0 0 16 16" fill="none" xmlns="http://www.w3.org/2000/svg">
<path d="M0 8C0 3.58125 3.58125 0 8 0C12.4187 0 16 3.58125 16 8C16 12.4187 12.4187 16 8 16C3.58125 16 0 12.4187 0 8ZM11.6187 6.61875C11.9594 6.27813 11.9594 5.72187 11.6187 5.38125C11.2781 5.04063 10.7219 5.04063 10.3813 5.38125L7 8.7625L5.61875 7.38125C5.27813 7.04063 4.72187 7.04063 4.38125 7.38125C4.04063 7.72187 4.04063 8.27812 4.38125 8.61875L6.38125 10.6187C6.72187 10.9594 7.27813 10.9594 7.61875 10.6187L11.6187 6.61875Z" fill="#3CBC81"/>
</symbol>
<symbol id="eye" width="16" height="16" viewBox="0 0 16 16" fill="none" xmlns="http://www.w3.org/2000/svg">
<path d="M0.666504 7.99996C0.666504 7.99996 3.33317 2.66663 7.99984 2.66663C12.6665 2.66663 15.3332 7.99996 15.3332 7.99996C15.3332 7.99996 12.6665 13.3333 7.99984 13.3333C3.33317 13.3333 0.666504 7.99996 0.666504 7.99996Z" stroke="white" stroke-width="1.3" stroke-linecap="round" stroke-linejoin="round"/>
<path d="M8 10C9.10457 10 10 9.10457 10 8C10 6.89543 9.10457 6 8 6C6.89543 6 6 6.89543 6 8C6 9.10457 6.89543 10 8 10Z" stroke="white" stroke-width="1.3" stroke-linecap="round" stroke-linejoin="round"/>
</symbol>
<symbol id="eye-off" width="16" height="16" viewBox="0 0 16 16" fill="none" xmlns="http://www.w3.org/2000/svg">
<g clip-path="url(#clip0_283_2250)">
<path d="M11.9601 11.96C10.8205 12.8286 9.43282 13.3099 8.00008 13.3333C3.33342 13.3333 0.666748 7.99998 0.666748 7.99998C1.49601 6.45457 2.64617 5.10438 4.04008 4.03998M6.60008 2.82664C7.05897 2.71923 7.52879 2.66554 8.00008 2.66664C12.6667 2.66664 15.3334 7.99998 15.3334 7.99998C14.9287 8.75705 14.4461 9.4698 13.8934 10.1266M9.41342 9.41331C9.23032 9.60981 9.00952 9.76741 8.76418 9.87672C8.51885 9.98604 8.25402 10.0448 7.98548 10.0496C7.71693 10.0543 7.45019 10.0049 7.20116 9.9043C6.95212 9.80371 6.7259 9.65399 6.53598 9.46408C6.34606 9.27416 6.19634 9.04794 6.09575 8.7989C5.99517 8.54987 5.94577 8.28312 5.9505 8.01458C5.95524 7.74604 6.01402 7.48121 6.12333 7.23587C6.23264 6.99054 6.39025 6.76974 6.58675 6.58664" stroke="white" stroke-width="1.3" stroke-linecap="round" stroke-linejoin="round"/>
<path d="M0.666748 0.666626L15.3334 15.3333" stroke="white" stroke-width="1.3" stroke-linecap="round" stroke-linejoin="round"/>
</g>
<defs>
<clipPath id="clip0_283_2250">
<rect width="16" height="16" fill="white"/>
</clipPath>
</defs>
</symbol>
</defs>
</svg>

