<svg xmlns="http://www.w3.org/2000/svg" width="24" height="24" fill="none">
  <g id="vuesax/linear/direct-inbox">
    <g id="vuesax/linear/direct-inbox_2">
      <g id="direct-inbox" stroke="#050505" stroke-linecap="round" stroke-linejoin="round" stroke-width="1.5">
        <path id="Vector" d="M12 2v7l2-2"/>
        <path id="Vector_2" d="m12 9-2-2"/>
        <path id="Vector_3" d="M1.98 13h4.41c.38 0 .72.21.89.55l1.17 2.34A2 2 0 0 0 10.24 17h3.53a2 2 0 0 0 1.79-1.11l1.17-2.34a1 1 0 0 1 .89-.55h4.36"/>
        <path id="Vector_4" d="M7 4.13c-3.54.52-5 2.6-5 6.87v4c0 5 2 7 7 7h6c5 0 7-2 7-7v-4c0-4.27-1.46-6.35-5-6.87"/>
      </g>
    </g>
  </g>
</svg>
