<svg xmlns="http://www.w3.org/2000/svg" width="24" height="24" fill="none">
  <symbol id="inbox" viewBox="0 0 32 32">
<path stroke-width="2" stroke-miterlimit="4" stroke-linecap="round" stroke-linejoin="round" d="M16 2.667v9.333l2.667-2.667"></path>
<path stroke-width="2" stroke-miterlimit="4" stroke-linecap="round" stroke-linejoin="round" d="M16 12l-2.667-2.667"></path>
<path stroke-width="2" stroke-miterlimit="4" stroke-linecap="round" stroke-linejoin="round" d="M2.64 17.333h5.88c0.507 0 0.96 0.28 1.187 0.733l1.56 3.12c0.446 0.884 1.347 1.479 2.387 1.48h4.707c1.040-0.001 1.94-0.596 2.38-1.465l0.007-0.015 1.56-3.12c0.224-0.437 0.671-0.732 1.186-0.733h5.814"></path>
<path stroke-width="2" stroke-miterlimit="4" stroke-linecap="round" stroke-linejoin="round" d="M9.333 5.507c-4.72 0.693-6.667 3.467-6.667 9.16v5.333c0 6.667 2.667 9.333 9.333 9.333h8c6.667 0 9.333-2.667 9.333-9.333v-5.333c0-5.693-1.947-8.467-6.667-9.16"></path>
</symbol>
</svg>
