<svg aria-hidden="true" style="position: absolute; width: 0; height: 0; overflow: hidden;" version="1.1" xmlns="http://www.w3.org/2000/svg" xmlns:xlink="http://www.w3.org/1999/xlink">
<defs>
<symbol id="icon-inbox" viewBox="0 0 32 32">
<path d="M15.74 1.705c0.352-0.085 0.764 0.029 0.987 0.276 0.268 0.296 0.259 0.163 0.287 3.98l0.027 3.588 0.507-0.512c0.279-0.281 0.579-0.549 0.667-0.596 0.205-0.109 0.699-0.111 0.907-0.001l0.006 0.003c0.189 0.106 0.345 0.265 0.45 0.464 0.095 0.185 0.085 0.687-0.017 0.88-0.047 0.088-0.74 0.813-1.541 1.612-1.472 1.465-1.659 1.615-2.017 1.615s-0.545-0.149-2.017-1.615c-0.801-0.799-1.495-1.524-1.541-1.612-0.103-0.193-0.112-0.695-0.017-0.88l0.003-0.006c0.102-0.192 0.258-0.351 0.453-0.461 0.193-0.101 0.696-0.111 0.88-0.016 0.073 0.037 0.379 0.311 0.68 0.608l0.547 0.54 0.001-3.467c0-1.905 0.023-3.56 0.049-3.675l0.001-0.007c0.082-0.348 0.35-0.625 0.701-0.719zM8.747 4.593c-2.153 0.443-3.539 1.125-4.684 2.309-1.481 1.531-2.197 3.595-2.355 6.777-0.069 1.421-0.069 6.204 0 7.467 0.232 4.193 1.553 6.669 4.292 8.045 1.299 0.652 2.763 0.984 4.853 1.1 1.24 0.068 9.045 0.068 10.279 0 3.773-0.209 6.133-1.288 7.589-3.468 0.953-1.429 1.439-3.201 1.572-5.749 0.069-1.305 0.068-5.912-0.001-7.368-0.153-3.199-0.869-5.268-2.355-6.804-1.137-1.176-2.609-1.905-4.613-2.289-0.568-0.109-0.887-0.101-1.135 0.025-0.536 0.273-0.681 1.027-0.288 1.495 0.201 0.239 0.365 0.305 1.123 0.456 2.375 0.473 3.805 1.531 4.556 3.367 0.537 1.316 0.74 2.689 0.74 5.017v1.347h-2.413c-1.376 0-2.563 0.024-2.76 0.055-0.48 0.076-0.983 0.333-1.315 0.672-0.235 0.24-0.413 0.555-1.215 2.148-1.033 2.051-1.095 2.137-1.668 2.352-0.273 0.101-0.413 0.107-2.949 0.107-2.559 0-2.675-0.004-2.956-0.109-0.549-0.205-0.665-0.372-1.676-2.381-0.68-1.353-0.975-1.884-1.157-2.088-0.307-0.34-0.871-0.632-1.359-0.703-0.191-0.028-1.435-0.051-2.765-0.051l-2.419-0.001 0.027-1.72c0.040-2.427 0.236-3.577 0.84-4.924 0.721-1.607 2.212-2.643 4.441-3.087 0.757-0.151 0.921-0.217 1.123-0.456 0.138-0.161 0.222-0.372 0.222-0.603 0-0.081-0.010-0.159-0.030-0.234l0.001 0.006c-0.145-0.653-0.663-0.889-1.545-0.709zM9.627 20.153c0.499 0.979 1.004 1.909 1.124 2.068 0.32 0.425 0.787 0.796 1.329 1.059 0.773 0.373 0.771 0.373 3.973 0.373 2.592 0 2.885-0.009 3.2-0.097 0.729-0.203 1.475-0.673 1.907-1.204 0.165-0.204 0.576-0.945 1.187-2.145l0.933-1.833 5.052-0.028-0.027 1.721c-0.033 2.111-0.125 2.821-0.525 4.085-0.761 2.4-2.344 3.572-5.461 4.044-0.587 0.089-1.103 0.097-6.319 0.097s-5.732-0.008-6.319-0.097c-2.408-0.365-3.847-1.125-4.751-2.513-0.547-0.837-0.876-1.799-1.1-3.203-0.088-0.559-0.115-1.028-0.136-2.413l-0.027-1.721 5.052 0.028 0.907 1.78z"></path>
</symbol>
</defs>
</svg>
